<svg width="100" height="140" viewBox="0 0 100 140" fill="none" xmlns="http://www.w3.org/2000/svg">
<path fill-rule="evenodd" clip-rule="evenodd" d="M0 140L0 2.25306e-05C33.3333 -0.000186086 66.6667 -0.000185124 100 2.25306e-05V140C66.6667 140 33.3333 140 0 140Z" fill="url(#paint0_linear_2026_40788)"/>
<path d="M7.13741 30H10.8971V6H6V9.22794H7.13741V30Z" fill="url(#paint1_linear_2026_40788)"/>
<path fill-rule="evenodd" clip-rule="evenodd" d="M13.2794 24.3235C13.2794 26.0948 14.0561 27.5218 15.3098 28.501C16.5588 29.4765 18.2701 30 20.1397 30C22.0093 30 23.7206 29.4765 24.9696 28.501C26.2233 27.5218 27 26.0949 27 24.3235V11.6397C27 9.86812 26.223 8.44999 24.9686 7.47995C23.7194 6.51382 22.0083 6 20.1397 6C18.2711 6 16.56 6.51382 15.3108 7.47995C14.0564 8.44999 13.2794 9.86812 13.2794 11.6397V24.3235ZM16.9012 11.3224C16.9012 10.84 17.2603 10.2805 17.8804 9.82773C18.4921 9.38104 19.3121 9.07475 20.1397 9.07475C20.98 9.07475 21.8366 9.29631 22.4756 9.70428C23.1105 10.1096 23.5161 10.6866 23.5161 11.413V24.5257C23.5161 25.221 23.0106 25.7941 22.2784 26.2078C21.5506 26.6189 20.6614 26.8333 20.0342 26.8333C19.4091 26.8333 18.6114 26.6232 17.9753 26.2189C17.3412 25.8158 16.9012 25.2444 16.9012 24.5257V11.3224Z" fill="url(#paint2_linear_2026_40788)"/>
<path fill-rule="evenodd" clip-rule="evenodd" d="M72.4996 75.3054C77.8786 81.586 82.6854 87.6251 86.485 92.7638C87.1717 93.6861 87.1717 94.8939 86.485 95.8162C82.754 100.999 78.0388 107.104 72.7514 113.45C67.7844 119.401 63.0006 124.76 58.8347 129.108C57.7131 130.294 55.7675 130.294 54.6231 129.13C50.4114 124.848 45.536 119.555 40.5004 113.648C35.1214 107.367 30.3146 101.328 26.515 96.1895C25.8283 95.2672 25.8283 94.0594 26.515 93.1371C30.246 87.9545 34.9612 81.8496 40.2486 75.5031C45.1927 69.5738 49.9765 64.2155 54.1195 59.8894C55.264 58.7035 57.2325 58.7035 58.3769 59.8894C61.7188 63.3811 68.2422 70.3205 72.5225 75.2835L72.4996 75.3054Z" fill="url(#paint3_linear_2026_40788)"/>
<path fill-rule="evenodd" clip-rule="evenodd" d="M22.0081 40.5117C23.8598 42.6347 25.5146 44.6761 26.8227 46.4131C27.0591 46.7249 27.0591 47.1332 26.8227 47.4449C25.5383 49.1968 23.915 51.2604 22.0947 53.4057C20.3848 55.4174 18.7379 57.2286 17.3037 58.6984C16.9176 59.0993 16.2478 59.0993 15.8538 58.7059C14.4039 57.2583 12.7255 55.4694 10.9919 53.4725C9.14015 51.3495 7.48537 49.3081 6.1773 47.5711C5.9409 47.2593 5.9409 46.8511 6.1773 46.5393C7.46173 44.7874 9.08499 42.7238 10.9053 40.5785C12.6073 38.5743 14.2542 36.763 15.6805 35.3006C16.0745 34.8998 16.7522 34.8998 17.1462 35.3006C18.2966 36.4809 20.5424 38.8266 22.016 40.5043L22.0081 40.5117Z" fill="url(#paint4_linear_2026_40788)"/>
<defs>
<linearGradient id="paint0_linear_2026_40788" x1="50" y1="140" x2="50" y2="0" gradientUnits="userSpaceOnUse">
<stop stop-color="#E9E9E9"/>
<stop offset="0.99" stop-color="white"/>
</linearGradient>
<linearGradient id="paint1_linear_2026_40788" x1="9.36079" y1="6.50106" x2="22.6587" y2="30.614" gradientUnits="userSpaceOnUse">
<stop stop-color="#DD1D24"/>
<stop offset="0.99" stop-color="#B90000"/>
</linearGradient>
<linearGradient id="paint2_linear_2026_40788" x1="9.36079" y1="6.50106" x2="22.6587" y2="30.614" gradientUnits="userSpaceOnUse">
<stop stop-color="#DD1D24"/>
<stop offset="0.99" stop-color="#B90000"/>
</linearGradient>
<linearGradient id="paint3_linear_2026_40788" x1="35.7623" y1="60.4823" x2="75.4826" y2="131.202" gradientUnits="userSpaceOnUse">
<stop stop-color="#DD1D24"/>
<stop offset="0.99" stop-color="#B90000"/>
</linearGradient>
<linearGradient id="paint4_linear_2026_40788" x1="9.36079" y1="35.5011" x2="22.6587" y2="59.614" gradientUnits="userSpaceOnUse">
<stop stop-color="#DD1D24"/>
<stop offset="0.99" stop-color="#B90000"/>
</linearGradient>
</defs>
</svg>
