<svg width="100" height="140" viewBox="0 0 100 140" fill="none" xmlns="http://www.w3.org/2000/svg">
<path fill-rule="evenodd" clip-rule="evenodd" d="M0 140L0 2.25306e-05C33.3333 -0.000186086 66.6667 -0.000185124 100 2.25306e-05V140C66.6667 140 33.3333 140 0 140Z" fill="url(#paint0_linear_2026_40655)"/>
<path fill-rule="evenodd" clip-rule="evenodd" d="M24.3393 87.9515C22.8431 78.7364 26.2888 68.2565 34.8125 65.1848C43.6536 62.0002 51.7693 67.3079 55.4417 72.4801C59.0462 67.2627 67.0938 61.8195 75.9802 64.8912C84.5266 67.8274 88.1084 78.2621 86.7029 87.4998C84.5039 102.181 69.3154 113.519 57.822 126.099C56.7339 127.274 54.7163 127.319 53.6508 126.122C42.8148 113.948 26.7422 102.587 24.3619 87.9515H24.3393Z" fill="url(#paint1_linear_2026_40655)"/>
<path d="M7.08325 30H10.6639V6H6V9.22794H7.08325V30Z" fill="url(#paint2_linear_2026_40655)"/>
<path fill-rule="evenodd" clip-rule="evenodd" d="M12.9328 24.3235C12.9328 26.0948 13.6725 27.5218 14.8665 28.501C16.056 29.4765 17.6858 30 19.4664 30C21.247 30 22.8767 29.4765 24.0662 28.501C25.2603 27.5218 26 26.0949 26 24.3235V11.6397C26 9.86812 25.26 8.44999 24.0654 7.47995C22.8756 6.51382 21.246 6 19.4664 6C17.6867 6 16.0572 6.51382 14.8674 7.47995C13.6728 8.44999 12.9328 9.86812 12.9328 11.6397V24.3235ZM16.3821 11.3224C16.3821 10.84 16.7241 10.2805 17.3146 9.82773C17.8973 9.38104 18.6782 9.07475 19.4664 9.07475C20.2667 9.07475 21.0824 9.29631 21.691 9.70428C22.2957 10.1096 22.682 10.6866 22.682 11.413V24.5257C22.682 25.221 22.2005 25.7941 21.5032 26.2078C20.8101 26.6189 19.9632 26.8333 19.3659 26.8333C18.7705 26.8333 18.0109 26.6232 17.405 26.2189C16.8011 25.8158 16.3821 25.2444 16.3821 24.5257V11.3224Z" fill="url(#paint3_linear_2026_40655)"/>
<path fill-rule="evenodd" clip-rule="evenodd" d="M6.11309 42.9838C5.61436 39.9121 6.76294 36.4188 9.60418 35.3949C12.5512 34.3334 15.2564 36.1026 16.4806 37.8267C17.6821 36.0876 20.3646 34.2732 23.3267 35.2971C26.1755 36.2758 27.3695 39.754 26.901 42.8332C26.168 47.7269 21.1051 51.5063 17.274 55.6997C16.9113 56.0912 16.2388 56.1063 15.8836 55.7073C12.2716 51.6493 6.91407 47.8624 6.12064 42.9838H6.11309Z" fill="url(#paint4_linear_2026_40655)"/>
<defs>
<linearGradient id="paint0_linear_2026_40655" x1="50" y1="140" x2="50" y2="0" gradientUnits="userSpaceOnUse">
<stop stop-color="#E9E9E9"/>
<stop offset="0.99" stop-color="white"/>
</linearGradient>
<linearGradient id="paint1_linear_2026_40655" x1="34.0824" y1="65.3153" x2="66.392" y2="132.271" gradientUnits="userSpaceOnUse">
<stop stop-color="#DD1D24"/>
<stop offset="0.99" stop-color="#B90000"/>
</linearGradient>
<linearGradient id="paint2_linear_2026_40655" x1="9.20075" y1="6.50106" x2="22.8376" y2="30.051" gradientUnits="userSpaceOnUse">
<stop stop-color="#DD1D24"/>
<stop offset="0.99" stop-color="#B90000"/>
</linearGradient>
<linearGradient id="paint3_linear_2026_40655" x1="9.20075" y1="6.50106" x2="22.8376" y2="30.051" gradientUnits="userSpaceOnUse">
<stop stop-color="#DD1D24"/>
<stop offset="0.99" stop-color="#B90000"/>
</linearGradient>
<linearGradient id="paint4_linear_2026_40655" x1="9.36079" y1="35.4384" x2="20.1307" y2="57.7571" gradientUnits="userSpaceOnUse">
<stop stop-color="#DD1D24"/>
<stop offset="0.99" stop-color="#B90000"/>
</linearGradient>
</defs>
</svg>
