<svg width="100" height="140" viewBox="0 0 100 140" fill="none" xmlns="http://www.w3.org/2000/svg">
<path fill-rule="evenodd" clip-rule="evenodd" d="M0 140L0 2.25306e-05C33.3333 -0.000186086 66.6667 -0.000185124 100 2.25306e-05V140C66.6667 140 33.3333 140 0 140Z" fill="url(#paint0_linear_2026_40662)"/>
<path d="M7.08325 30H10.6639V6H6V9.22794H7.08325V30Z" fill="url(#paint1_linear_2026_40662)"/>
<path fill-rule="evenodd" clip-rule="evenodd" d="M12.9328 24.3235C12.9328 26.0948 13.6725 27.5218 14.8665 28.501C16.056 29.4765 17.6858 30 19.4664 30C21.247 30 22.8767 29.4765 24.0662 28.501C25.2603 27.5218 26 26.0949 26 24.3235V11.6397C26 9.86812 25.26 8.44999 24.0654 7.47995C22.8756 6.51382 21.246 6 19.4664 6C17.6867 6 16.0572 6.51382 14.8674 7.47995C13.6728 8.44999 12.9328 9.86812 12.9328 11.6397V24.3235ZM16.3821 11.3224C16.3821 10.84 16.7241 10.2805 17.3146 9.82773C17.8973 9.38104 18.6782 9.07475 19.4664 9.07475C20.2667 9.07475 21.0824 9.29631 21.691 9.70428C22.2957 10.1096 22.682 10.6866 22.682 11.413V24.5257C22.682 25.221 22.2005 25.7941 21.5032 26.2078C20.8101 26.6189 19.9632 26.8333 19.3659 26.8333C18.7705 26.8333 18.0109 26.6232 17.405 26.2189C16.8011 25.8158 16.3821 25.2444 16.3821 24.5257V11.3224Z" fill="url(#paint2_linear_2026_40662)"/>
<path fill-rule="evenodd" clip-rule="evenodd" d="M28.2751 96.4259C26.9667 104.364 30.3278 113.34 38.313 115.855C45.1479 118.024 51.4639 115.255 55.3663 111.702C54.4866 118.047 50.1105 125.108 45.1704 128.085V130C48.3059 129.538 52.7497 129.239 57.6897 129.215C62.6298 129.192 67.051 129.423 70.209 129.838V127.923C65.2238 125.016 60.7575 118.024 59.7875 111.678C63.7351 115.163 70.0962 117.863 76.8859 115.601C84.8486 112.971 88.0969 103.948 86.6758 96.0336C84.4426 83.4577 68.9007 76.466 59.2462 61.9057C58.4567 60.7058 56.0656 60.6827 55.3212 61.9288C47.4262 75.4276 30.3503 83.8039 28.2751 96.4259Z" fill="url(#paint3_linear_2026_40662)"/>
<path fill-rule="evenodd" clip-rule="evenodd" d="M6.0979 47.322C5.63223 50.083 6.82853 53.2052 9.67074 54.08C12.1035 54.8345 14.3516 53.8713 15.7406 52.6353C15.4274 54.8425 13.8698 57.2985 12.1115 58.3338V59C13.2275 58.8395 14.8092 58.7351 16.5675 58.7271C18.3258 58.7191 19.8995 58.7993 21.0235 58.9438V58.2777C19.2492 57.2664 17.6595 54.8345 17.3142 52.6273C18.7193 53.8392 20.9834 54.7783 23.4001 53.9917C26.2343 53.0768 27.3904 49.9386 26.8846 47.1856C26.0897 42.8114 20.5579 40.3795 17.1215 35.315C16.8405 34.8977 15.9894 34.8896 15.7245 35.3231C12.9144 40.0183 6.83656 42.9318 6.0979 47.322Z" fill="url(#paint4_linear_2026_40662)"/>
<defs>
<linearGradient id="paint0_linear_2026_40662" x1="50" y1="140" x2="50" y2="0" gradientUnits="userSpaceOnUse">
<stop stop-color="#E9E9E9"/>
<stop offset="0.99" stop-color="white"/>
</linearGradient>
<linearGradient id="paint1_linear_2026_40662" x1="19.4716" y1="5.52991" x2="19.4716" y2="30.1398" gradientUnits="userSpaceOnUse">
<stop stop-color="#505050"/>
<stop offset="1"/>
</linearGradient>
<linearGradient id="paint2_linear_2026_40662" x1="19.4716" y1="5.52991" x2="19.4716" y2="30.1398" gradientUnits="userSpaceOnUse">
<stop stop-color="#505050"/>
<stop offset="1"/>
</linearGradient>
<linearGradient id="paint3_linear_2026_40662" x1="57.5234" y1="59.6485" x2="57.5234" y2="130.402" gradientUnits="userSpaceOnUse">
<stop stop-color="#505050"/>
<stop offset="1"/>
</linearGradient>
<linearGradient id="paint4_linear_2026_40662" x1="16.5083" y1="34.5299" x2="16.5083" y2="59.1398" gradientUnits="userSpaceOnUse">
<stop stop-color="#505050"/>
<stop offset="1"/>
</linearGradient>
</defs>
</svg>
