<svg width="100" height="140" viewBox="0 0 100 140" fill="none" xmlns="http://www.w3.org/2000/svg">
<path fill-rule="evenodd" clip-rule="evenodd" d="M0 140L0 2.25306e-05C33.3333 -0.000186086 66.6667 -0.000185124 100 2.25306e-05V140C66.6667 140 33.3333 140 0 140Z" fill="url(#paint0_linear_2026_40523)"/>
<path fill-rule="evenodd" clip-rule="evenodd" d="M11.1219 20.813C11.9329 19.944 13.8889 18.3721 16.9192 16.1312C17.9839 15.3465 18.7652 14.6226 19.2779 13.9583C19.7915 13.2929 20.0218 12.7058 20.0218 12.1887C20.0218 11.195 19.4673 10.3897 18.3056 9.80189C17.4075 9.34743 16.3689 9.11729 15.2316 9.11729C13.7801 9.11729 12.7248 9.37501 12.0384 9.85086C11.3675 10.316 11.0248 11.0061 11.0248 11.9525C11.0248 12.2995 11.089 12.6717 11.2422 13.0704L11.3255 13.2871L8.49324 14.4837L8.41109 14.255C8.12155 13.4492 8 12.6892 8 11.9525C8 9.99367 8.70739 8.47636 10.1995 7.41198C11.5065 6.48119 13.1889 6 15.1849 6C17.1837 6 18.9562 6.50604 20.4459 7.52694C22.1621 8.67702 23 10.213 23 12.1651C23 13.9806 22.0648 15.7181 20.3049 17.2585L20.294 17.268L15.0222 21.3277C12.9508 23.0755 11.7064 24.9442 11.2769 26.8827H20.0218V23.8826H23V30H8V28.4886C8 25.635 9.05431 23.0496 11.1219 20.813Z" fill="url(#paint1_linear_2026_40523)"/>
<path fill-rule="evenodd" clip-rule="evenodd" d="M72.4996 75.3054C77.8786 81.586 82.6854 87.6251 86.485 92.7638C87.1717 93.6861 87.1717 94.8939 86.485 95.8162C82.754 100.999 78.0388 107.104 72.7514 113.45C67.7844 119.401 63.0006 124.76 58.8347 129.108C57.7131 130.294 55.7675 130.294 54.6231 129.13C50.4114 124.848 45.536 119.555 40.5004 113.648C35.1214 107.367 30.3146 101.328 26.515 96.1895C25.8283 95.2672 25.8283 94.0594 26.515 93.1371C30.246 87.9545 34.9612 81.8496 40.2486 75.5031C45.1927 69.5738 49.9765 64.2155 54.1195 59.8894C55.264 58.7035 57.2325 58.7035 58.3769 59.8894C61.7188 63.3811 68.2422 70.3205 72.5225 75.2835L72.4996 75.3054Z" fill="url(#paint2_linear_2026_40523)"/>
<path fill-rule="evenodd" clip-rule="evenodd" d="M22.0081 40.5117C23.8598 42.6347 25.5146 44.6761 26.8227 46.4131C27.0591 46.7249 27.0591 47.1332 26.8227 47.445C25.5383 49.1968 23.915 51.2605 22.0947 53.4058C20.3848 55.4174 18.7379 57.2287 17.3037 58.6985C16.9176 59.0993 16.2478 59.0993 15.8538 58.7059C14.4039 57.2584 12.7255 55.4694 10.9919 53.4726C9.14015 51.3495 7.48537 49.3082 6.1773 47.5711C5.9409 47.2594 5.9409 46.8511 6.1773 46.5393C7.46173 44.7875 9.08499 42.7238 10.9053 40.5785C12.6073 38.5743 14.2542 36.763 15.6805 35.3007C16.0745 34.8998 16.7522 34.8998 17.1462 35.3007C18.2966 36.481 20.5424 38.8267 22.016 40.5043L22.0081 40.5117Z" fill="url(#paint3_linear_2026_40523)"/>
<defs>
<linearGradient id="paint0_linear_2026_40523" x1="50" y1="140" x2="50" y2="0" gradientUnits="userSpaceOnUse">
<stop stop-color="#E9E9E9"/>
<stop offset="0.99" stop-color="white"/>
</linearGradient>
<linearGradient id="paint1_linear_2026_40523" x1="10.4006" y1="6.50106" x2="25.6121" y2="26.2031" gradientUnits="userSpaceOnUse">
<stop stop-color="#DD1D24"/>
<stop offset="0.99" stop-color="#B90000"/>
</linearGradient>
<linearGradient id="paint2_linear_2026_40523" x1="35.7623" y1="60.4823" x2="75.4826" y2="131.202" gradientUnits="userSpaceOnUse">
<stop stop-color="#DD1D24"/>
<stop offset="0.99" stop-color="#B90000"/>
</linearGradient>
<linearGradient id="paint3_linear_2026_40523" x1="9.36079" y1="35.5011" x2="22.6587" y2="59.614" gradientUnits="userSpaceOnUse">
<stop stop-color="#DD1D24"/>
<stop offset="0.99" stop-color="#B90000"/>
</linearGradient>
</defs>
</svg>
