<svg width="100" height="140" viewBox="0 0 100 140" fill="none" xmlns="http://www.w3.org/2000/svg">
<path fill-rule="evenodd" clip-rule="evenodd" d="M0 140L0 2.25306e-05C33.3333 -0.000186086 66.6667 -0.000185124 100 2.25306e-05V140C66.6667 140 33.3333 140 0 140Z" fill="url(#paint0_linear_2026_40641)"/>
<path fill-rule="evenodd" clip-rule="evenodd" d="M12.1219 20.813C12.9329 19.944 14.8889 18.3721 17.9192 16.1312C18.9839 15.3465 19.7652 14.6226 20.2779 13.9583C20.7915 13.2929 21.0218 12.7058 21.0218 12.1887C21.0218 11.195 20.4673 10.3897 19.3056 9.80189C18.4075 9.34743 17.3689 9.11729 16.2316 9.11729C14.7801 9.11729 13.7248 9.37501 13.0384 9.85086C12.3675 10.316 12.0248 11.0061 12.0248 11.9525C12.0248 12.2995 12.089 12.6717 12.2422 13.0704L12.3255 13.2871L9.49324 14.4837L9.41109 14.255C9.12155 13.4492 9 12.6892 9 11.9525C9 9.99367 9.70739 8.47636 11.1995 7.41198C12.5065 6.48119 14.1889 6 16.1849 6C18.1837 6 19.9562 6.50604 21.4459 7.52694C23.1621 8.67702 24 10.213 24 12.1651C24 13.9806 23.0648 15.7181 21.3049 17.2585L21.294 17.268L16.0222 21.3277C13.9508 23.0755 12.7064 24.9442 12.2769 26.8827H21.0218V23.8826H24V30H9V28.4886C9 25.635 10.0543 23.0496 12.1219 20.813Z" fill="url(#paint1_linear_2026_40641)"/>
<path fill-rule="evenodd" clip-rule="evenodd" d="M24.3393 87.9515C22.8431 78.7364 26.2888 68.2565 34.8125 65.1848C43.6536 62.0002 51.7693 67.3079 55.4417 72.4801C59.0462 67.2627 67.0938 61.8195 75.9802 64.8912C84.5266 67.8274 88.1084 78.2621 86.7029 87.4998C84.5039 102.181 69.3154 113.519 57.822 126.099C56.7339 127.274 54.7163 127.319 53.6508 126.122C42.8148 113.948 26.7422 102.587 24.3619 87.9515H24.3393Z" fill="url(#paint2_linear_2026_40641)"/>
<path fill-rule="evenodd" clip-rule="evenodd" d="M6.11309 42.9838C5.61436 39.9121 6.76294 36.4188 9.60418 35.3949C12.5512 34.3334 15.2564 36.1026 16.4806 37.8267C17.6821 36.0876 20.3646 34.2732 23.3267 35.2971C26.1755 36.2758 27.3695 39.754 26.901 42.8332C26.168 47.7269 21.1051 51.5063 17.274 55.6997C16.9113 56.0912 16.2388 56.1063 15.8836 55.7073C12.2716 51.6493 6.91407 47.8624 6.12064 42.9838H6.11309Z" fill="url(#paint3_linear_2026_40641)"/>
<defs>
<linearGradient id="paint0_linear_2026_40641" x1="50" y1="140" x2="50" y2="0" gradientUnits="userSpaceOnUse">
<stop stop-color="#E9E9E9"/>
<stop offset="0.99" stop-color="white"/>
</linearGradient>
<linearGradient id="paint1_linear_2026_40641" x1="11.4006" y1="6.50106" x2="26.6121" y2="26.2031" gradientUnits="userSpaceOnUse">
<stop stop-color="#DD1D24"/>
<stop offset="0.99" stop-color="#B90000"/>
</linearGradient>
<linearGradient id="paint2_linear_2026_40641" x1="34.0824" y1="65.3153" x2="66.392" y2="132.271" gradientUnits="userSpaceOnUse">
<stop stop-color="#DD1D24"/>
<stop offset="0.99" stop-color="#B90000"/>
</linearGradient>
<linearGradient id="paint3_linear_2026_40641" x1="9.36079" y1="35.4384" x2="20.1307" y2="57.7571" gradientUnits="userSpaceOnUse">
<stop stop-color="#DD1D24"/>
<stop offset="0.99" stop-color="#B90000"/>
</linearGradient>
</defs>
</svg>
