<svg width="100" height="140" viewBox="0 0 100 140" fill="none" xmlns="http://www.w3.org/2000/svg">
<path fill-rule="evenodd" clip-rule="evenodd" d="M0 140L0 2.25306e-05C33.3333 -0.000186086 66.6667 -0.000185124 100 2.25306e-05V140C66.6667 140 33.3333 140 0 140Z" fill="url(#paint0_linear_2026_40739)"/>
<path fill-rule="evenodd" clip-rule="evenodd" d="M11.1219 20.813C11.9329 19.944 13.8889 18.3721 16.9192 16.1312C17.9839 15.3465 18.7652 14.6226 19.2779 13.9583C19.7915 13.2929 20.0218 12.7058 20.0218 12.1887C20.0218 11.195 19.4673 10.3897 18.3056 9.80189C17.4075 9.34743 16.3689 9.11729 15.2316 9.11729C13.7801 9.11729 12.7248 9.37501 12.0384 9.85086C11.3675 10.316 11.0248 11.0061 11.0248 11.9525C11.0248 12.2995 11.089 12.6717 11.2422 13.0704L11.3255 13.2871L8.49324 14.4837L8.41109 14.255C8.12155 13.4492 8 12.6892 8 11.9525C8 9.99367 8.70739 8.47636 10.1995 7.41198C11.5065 6.48119 13.1889 6 15.1849 6C17.1837 6 18.9562 6.50604 20.4459 7.52694C22.1621 8.67702 23 10.213 23 12.1651C23 13.9806 22.0648 15.7181 20.3049 17.2585L20.294 17.268L15.0222 21.3277C12.9508 23.0755 11.7064 24.9442 11.2769 26.8827H20.0218V23.8826H23V30H8V28.4886C8 25.635 9.05431 23.0496 11.1219 20.813Z" fill="url(#paint1_linear_2026_40739)"/>
<path fill-rule="evenodd" clip-rule="evenodd" d="M28.2751 96.4259C26.9667 104.364 30.3278 113.34 38.313 115.855C45.1479 118.024 51.4639 115.255 55.3663 111.702C54.4866 118.047 50.1105 125.108 45.1704 128.085V130C48.3059 129.538 52.7497 129.239 57.6897 129.215C62.6298 129.192 67.051 129.423 70.209 129.838V127.923C65.2238 125.016 60.7575 118.024 59.7875 111.678C63.7351 115.163 70.0962 117.863 76.8859 115.601C84.8486 112.971 88.0969 103.948 86.6758 96.0336C84.4426 83.4577 68.9007 76.466 59.2462 61.9057C58.4567 60.7058 56.0656 60.6827 55.3212 61.9288C47.4262 75.4276 30.3503 83.8039 28.2751 96.4259Z" fill="url(#paint2_linear_2026_40739)"/>
<path fill-rule="evenodd" clip-rule="evenodd" d="M6.0979 47.322C5.63223 50.083 6.82853 53.2052 9.67074 54.08C12.1035 54.8345 14.3516 53.8713 15.7406 52.6353C15.4274 54.8425 13.8698 57.2985 12.1115 58.3338V59C13.2275 58.8395 14.8092 58.7351 16.5675 58.7271C18.3258 58.7191 19.8995 58.7993 21.0235 58.9438V58.2777C19.2492 57.2664 17.6595 54.8345 17.3142 52.6273C18.7193 53.8392 20.9834 54.7783 23.4001 53.9917C26.2343 53.0768 27.3904 49.9386 26.8846 47.1856C26.0897 42.8114 20.5579 40.3795 17.1215 35.315C16.8405 34.8977 15.9894 34.8896 15.7245 35.3231C12.9144 40.0183 6.83656 42.9318 6.0979 47.322Z" fill="url(#paint3_linear_2026_40739)"/>
<defs>
<linearGradient id="paint0_linear_2026_40739" x1="50" y1="140" x2="50" y2="0" gradientUnits="userSpaceOnUse">
<stop stop-color="#E9E9E9"/>
<stop offset="0.99" stop-color="white"/>
</linearGradient>
<linearGradient id="paint1_linear_2026_40739" x1="15.5059" y1="5.52991" x2="15.5059" y2="30.1398" gradientUnits="userSpaceOnUse">
<stop stop-color="#505050"/>
<stop offset="1"/>
</linearGradient>
<linearGradient id="paint2_linear_2026_40739" x1="57.5234" y1="59.6485" x2="57.5234" y2="130.402" gradientUnits="userSpaceOnUse">
<stop stop-color="#505050"/>
<stop offset="1"/>
</linearGradient>
<linearGradient id="paint3_linear_2026_40739" x1="16.5083" y1="34.5299" x2="16.5083" y2="59.1398" gradientUnits="userSpaceOnUse">
<stop stop-color="#505050"/>
<stop offset="1"/>
</linearGradient>
</defs>
</svg>
