<svg width="100" height="140" viewBox="0 0 100 140" fill="none" xmlns="http://www.w3.org/2000/svg">
<path fill-rule="evenodd" clip-rule="evenodd" d="M0 140L0 2.25306e-05C33.3333 -0.000186086 66.6667 -0.000185124 100 2.25306e-05V140C66.6667 140 33.3333 140 0 140Z" fill="url(#paint0_linear_2026_40488)"/>
<path fill-rule="evenodd" clip-rule="evenodd" d="M11.0611 28.1382L11.0593 28.1367C9.75296 27.0517 8.75512 25.6536 8.09123 23.947L8 23.7125L11.0327 22.6968L11.1111 22.901C11.5232 23.9735 12.1271 24.8589 12.9223 25.562C13.8834 26.4215 15.0074 26.8706 16.2249 26.8706C17.7401 26.8706 19.0828 26.3067 20.1903 25.1735C21.3027 24.0354 21.8475 22.7526 21.8475 21.3412C21.8475 19.9206 21.3713 18.7855 20.4471 17.9155C19.5223 17.045 18.2558 16.5882 16.7248 16.5882C16.0138 16.5882 15.4487 16.6813 15.064 16.8517C14.7132 17.0058 14.2809 17.2752 13.7935 17.6882L13.6445 17.8144L11.3302 15.691L18.76 9.10588H11.5272V12.1176H8.37468V6H24.725V8.06245L18.3347 13.6498L18.3402 13.6509C20.3332 14.012 21.9553 14.9054 23.1676 16.3137C24.381 17.7232 25 19.4502 25 21.3882C25 23.6712 24.1198 25.6835 22.3808 27.4168C20.6639 29.1294 18.583 30 16.1999 30C14.2983 30 12.5747 29.3698 11.0611 28.1382Z" fill="url(#paint1_linear_2026_40488)"/>
<path fill-rule="evenodd" clip-rule="evenodd" d="M24.3393 87.9515C22.8431 78.7364 26.2888 68.2565 34.8125 65.1848C43.6536 62.0002 51.7693 67.3079 55.4417 72.4801C59.0462 67.2627 67.0938 61.8195 75.9802 64.8912C84.5266 67.8274 88.1084 78.2621 86.7029 87.4998C84.5039 102.181 69.3154 113.519 57.822 126.099C56.7339 127.274 54.7163 127.319 53.6508 126.122C42.8148 113.948 26.7422 102.587 24.3619 87.9515H24.3393Z" fill="url(#paint2_linear_2026_40488)"/>
<path fill-rule="evenodd" clip-rule="evenodd" d="M6.11309 42.9838C5.61436 39.9121 6.76294 36.4188 9.60418 35.3949C12.5512 34.3334 15.2564 36.1026 16.4806 37.8267C17.6821 36.0876 20.3646 34.2732 23.3267 35.2971C26.1755 36.2758 27.3695 39.754 26.901 42.8332C26.168 47.7269 21.1051 51.5063 17.274 55.6997C16.9113 56.0912 16.2388 56.1063 15.8836 55.7073C12.2716 51.6493 6.91407 47.8624 6.12064 42.9838H6.11309Z" fill="url(#paint3_linear_2026_40488)"/>
<defs>
<linearGradient id="paint0_linear_2026_40488" x1="50" y1="140" x2="50" y2="0" gradientUnits="userSpaceOnUse">
<stop stop-color="#E9E9E9"/>
<stop offset="0.99" stop-color="white"/>
</linearGradient>
<linearGradient id="paint1_linear_2026_40488" x1="10.7206" y1="6.50106" x2="25.3527" y2="27.9795" gradientUnits="userSpaceOnUse">
<stop stop-color="#DD1D24"/>
<stop offset="0.99" stop-color="#B90000"/>
</linearGradient>
<linearGradient id="paint2_linear_2026_40488" x1="34.0824" y1="65.3153" x2="66.392" y2="132.271" gradientUnits="userSpaceOnUse">
<stop stop-color="#DD1D24"/>
<stop offset="0.99" stop-color="#B90000"/>
</linearGradient>
<linearGradient id="paint3_linear_2026_40488" x1="9.36079" y1="35.4384" x2="20.1307" y2="57.7571" gradientUnits="userSpaceOnUse">
<stop stop-color="#DD1D24"/>
<stop offset="0.99" stop-color="#B90000"/>
</linearGradient>
</defs>
</svg>
