<svg width="100" height="140" viewBox="0 0 100 140" fill="none" xmlns="http://www.w3.org/2000/svg">
<path fill-rule="evenodd" clip-rule="evenodd" d="M0 140L0 2.25306e-05C33.3333 -0.000186086 66.6667 -0.000185124 100 2.25306e-05V140C66.6667 140 33.3333 140 0 140Z" fill="url(#paint0_linear_2026_40544)"/>
<path fill-rule="evenodd" clip-rule="evenodd" d="M11.1572 28.2706L11.1542 28.2682C9.87706 27.2618 8.86348 25.9458 8.1118 24.373L8 24.139L11.0226 22.9675L11.1126 23.1593C11.582 24.1587 12.2238 24.9982 12.9635 25.6558C13.9171 26.4872 15.0107 26.9098 16.1752 26.9098C17.8069 26.9098 19.1935 26.1972 20.2725 24.7993L20.2742 24.7971C21.2602 23.5507 21.7491 22.1528 21.7491 20.643C21.7491 19.1328 21.26 17.7358 20.2755 16.5139C19.2253 15.189 17.8386 14.5164 16.1752 14.5164C14.8243 14.5164 13.4518 15.1588 12.0798 16.4661L11.9631 16.5772L9.48525 15.2417L9.61786 6H22.7868V9.11355H12.8655V12.1189L12.9116 12.0977C13.9531 11.6668 15.0499 11.4263 16.1752 11.4263C18.7037 11.4263 20.8761 12.3875 22.5739 14.3083C24.1891 16.1051 25 18.2203 25 20.643C25 23.0651 24.1896 25.2021 22.6275 27.0212C20.9069 28.9866 18.7593 30 16.2261 30H16.1752C14.3708 30 12.6707 29.4221 11.1572 28.2706Z" fill="url(#paint1_linear_2026_40544)"/>
<path fill-rule="evenodd" clip-rule="evenodd" d="M72.4996 75.3054C77.8786 81.586 82.6854 87.6251 86.485 92.7638C87.1717 93.6861 87.1717 94.8939 86.485 95.8162C82.754 100.999 78.0388 107.104 72.7514 113.45C67.7844 119.401 63.0006 124.76 58.8347 129.108C57.7131 130.294 55.7675 130.294 54.6231 129.13C50.4114 124.848 45.536 119.555 40.5004 113.648C35.1214 107.367 30.3146 101.328 26.515 96.1895C25.8283 95.2672 25.8283 94.0594 26.515 93.1371C30.246 87.9545 34.9612 81.8496 40.2486 75.5031C45.1927 69.5738 49.9765 64.2155 54.1195 59.8894C55.264 58.7035 57.2325 58.7035 58.3769 59.8894C61.7188 63.3811 68.2422 70.3205 72.5225 75.2835L72.4996 75.3054Z" fill="url(#paint2_linear_2026_40544)"/>
<path fill-rule="evenodd" clip-rule="evenodd" d="M22.0081 40.5117C23.8598 42.6347 25.5146 44.6761 26.8227 46.4131C27.0591 46.7249 27.0591 47.1332 26.8227 47.4449C25.5383 49.1968 23.915 51.2604 22.0947 53.4057C20.3848 55.4174 18.7379 57.2286 17.3037 58.6984C16.9176 59.0993 16.2478 59.0993 15.8538 58.7059C14.4039 57.2583 12.7255 55.4694 10.9919 53.4725C9.14015 51.3495 7.48537 49.3081 6.1773 47.5711C5.9409 47.2593 5.9409 46.8511 6.1773 46.5393C7.46173 44.7874 9.08499 42.7238 10.9053 40.5785C12.6073 38.5743 14.2542 36.763 15.6805 35.3006C16.0745 34.8998 16.7522 34.8998 17.1462 35.3006C18.2966 36.4809 20.5424 38.8266 22.016 40.5043L22.0081 40.5117Z" fill="url(#paint3_linear_2026_40544)"/>
<defs>
<linearGradient id="paint0_linear_2026_40544" x1="50" y1="140" x2="50" y2="0" gradientUnits="userSpaceOnUse">
<stop stop-color="#E9E9E9"/>
<stop offset="0.99" stop-color="white"/>
</linearGradient>
<linearGradient id="paint1_linear_2026_40544" x1="10.7206" y1="6.50106" x2="25.3527" y2="27.9795" gradientUnits="userSpaceOnUse">
<stop stop-color="#DD1D24"/>
<stop offset="0.99" stop-color="#B90000"/>
</linearGradient>
<linearGradient id="paint2_linear_2026_40544" x1="35.7623" y1="60.4823" x2="75.4826" y2="131.202" gradientUnits="userSpaceOnUse">
<stop stop-color="#DD1D24"/>
<stop offset="0.99" stop-color="#B90000"/>
</linearGradient>
<linearGradient id="paint3_linear_2026_40544" x1="9.36079" y1="35.5011" x2="22.6587" y2="59.614" gradientUnits="userSpaceOnUse">
<stop stop-color="#DD1D24"/>
<stop offset="0.99" stop-color="#B90000"/>
</linearGradient>
</defs>
</svg>
