<svg width="100" height="140" viewBox="0 0 100 140" fill="none" xmlns="http://www.w3.org/2000/svg">
<path fill-rule="evenodd" clip-rule="evenodd" d="M0 140L0 2.25306e-05C33.3333 -0.000186086 66.6667 -0.000185124 100 2.25306e-05V140C66.6667 140 33.3333 140 0 140Z" fill="url(#paint0_linear_2026_40502)"/>
<path fill-rule="evenodd" clip-rule="evenodd" d="M11.1572 28.2706L11.1542 28.2682C9.87706 27.2618 8.86348 25.9458 8.1118 24.373L8 24.139L11.0226 22.9675L11.1126 23.1593C11.582 24.1587 12.2238 24.9982 12.9635 25.6558C13.9171 26.4872 15.0107 26.9098 16.1752 26.9098C17.8069 26.9098 19.1935 26.1972 20.2725 24.7993L20.2742 24.7971C21.2602 23.5507 21.7491 22.1528 21.7491 20.643C21.7491 19.1328 21.26 17.7358 20.2755 16.5139C19.2253 15.189 17.8386 14.5164 16.1752 14.5164C14.8243 14.5164 13.4518 15.1588 12.0798 16.4661L11.9631 16.5772L9.48525 15.2417L9.61786 6H22.7868V9.11355H12.8655V12.1189L12.9116 12.0977C13.9531 11.6668 15.0499 11.4263 16.1752 11.4263C18.7037 11.4263 20.8761 12.3875 22.5739 14.3083C24.1891 16.1051 25 18.2203 25 20.643C25 23.0651 24.1896 25.2021 22.6275 27.0212C20.9069 28.9866 18.7593 30 16.2261 30H16.1752C14.3708 30 12.6707 29.4221 11.1572 28.2706Z" fill="url(#paint1_linear_2026_40502)"/>
<path fill-rule="evenodd" clip-rule="evenodd" d="M24.3393 87.9515C22.8431 78.7364 26.2888 68.2565 34.8125 65.1848C43.6536 62.0002 51.7693 67.3079 55.4417 72.4801C59.0462 67.2627 67.0938 61.8195 75.9802 64.8912C84.5266 67.8274 88.1084 78.2621 86.7029 87.4998C84.5039 102.181 69.3154 113.519 57.822 126.099C56.7339 127.274 54.7163 127.319 53.6508 126.122C42.8148 113.948 26.7422 102.587 24.3619 87.9515H24.3393Z" fill="url(#paint2_linear_2026_40502)"/>
<path fill-rule="evenodd" clip-rule="evenodd" d="M6.11309 42.9838C5.61436 39.9121 6.76294 36.4188 9.60418 35.3949C12.5512 34.3334 15.2564 36.1026 16.4806 37.8267C17.6821 36.0876 20.3646 34.2732 23.3267 35.2971C26.1755 36.2758 27.3695 39.754 26.901 42.8332C26.168 47.7269 21.1051 51.5063 17.274 55.6997C16.9113 56.0912 16.2388 56.1063 15.8836 55.7073C12.2716 51.6493 6.91407 47.8624 6.12064 42.9838H6.11309Z" fill="url(#paint3_linear_2026_40502)"/>
<defs>
<linearGradient id="paint0_linear_2026_40502" x1="50" y1="140" x2="50" y2="0" gradientUnits="userSpaceOnUse">
<stop stop-color="#E9E9E9"/>
<stop offset="0.99" stop-color="white"/>
</linearGradient>
<linearGradient id="paint1_linear_2026_40502" x1="10.7206" y1="6.50106" x2="25.3527" y2="27.9795" gradientUnits="userSpaceOnUse">
<stop stop-color="#DD1D24"/>
<stop offset="0.99" stop-color="#B90000"/>
</linearGradient>
<linearGradient id="paint2_linear_2026_40502" x1="34.0824" y1="65.3153" x2="66.392" y2="132.271" gradientUnits="userSpaceOnUse">
<stop stop-color="#DD1D24"/>
<stop offset="0.99" stop-color="#B90000"/>
</linearGradient>
<linearGradient id="paint3_linear_2026_40502" x1="9.36079" y1="35.4384" x2="20.1307" y2="57.7571" gradientUnits="userSpaceOnUse">
<stop stop-color="#DD1D24"/>
<stop offset="0.99" stop-color="#B90000"/>
</linearGradient>
</defs>
</svg>
