<svg width="100" height="140" viewBox="0 0 100 140" fill="none" xmlns="http://www.w3.org/2000/svg">
<path fill-rule="evenodd" clip-rule="evenodd" d="M0 140L0 2.25306e-05C33.3333 -0.000186086 66.6667 -0.000185124 100 2.25306e-05V140C66.6667 140 33.3333 140 0 140Z" fill="url(#paint0_linear_2026_40711)"/>
<path fill-rule="evenodd" clip-rule="evenodd" d="M11.1572 28.2706L11.1542 28.2682C9.87706 27.2618 8.86348 25.9458 8.1118 24.373L8 24.139L11.0226 22.9675L11.1126 23.1593C11.582 24.1587 12.2238 24.9982 12.9635 25.6558C13.9171 26.4872 15.0107 26.9098 16.1752 26.9098C17.8069 26.9098 19.1935 26.1972 20.2725 24.7993L20.2742 24.7971C21.2602 23.5507 21.7491 22.1528 21.7491 20.643C21.7491 19.1328 21.26 17.7358 20.2755 16.5139C19.2253 15.189 17.8386 14.5164 16.1752 14.5164C14.8243 14.5164 13.4518 15.1588 12.0798 16.4661L11.9631 16.5772L9.48525 15.2417L9.61786 6H22.7868V9.11355H12.8655V12.1189L12.9116 12.0977C13.9531 11.6668 15.0499 11.4263 16.1752 11.4263C18.7037 11.4263 20.8761 12.3875 22.5739 14.3083C24.1891 16.1051 25 18.2203 25 20.643C25 23.0651 24.1896 25.2021 22.6275 27.0212C20.9069 28.9866 18.7593 30 16.2261 30H16.1752C14.3708 30 12.6707 29.4221 11.1572 28.2706Z" fill="url(#paint1_linear_2026_40711)"/>
<path fill-rule="evenodd" clip-rule="evenodd" d="M28.2751 96.4259C26.9667 104.364 30.3278 113.34 38.313 115.855C45.1479 118.024 51.4639 115.255 55.3663 111.702C54.4866 118.047 50.1105 125.108 45.1704 128.085V130C48.3059 129.538 52.7497 129.239 57.6897 129.215C62.6298 129.192 67.051 129.423 70.209 129.838V127.923C65.2238 125.016 60.7575 118.024 59.7875 111.678C63.7351 115.163 70.0962 117.863 76.8859 115.601C84.8486 112.971 88.0969 103.948 86.6758 96.0336C84.4426 83.4577 68.9007 76.466 59.2462 61.9057C58.4567 60.7058 56.0656 60.6827 55.3212 61.9288C47.4262 75.4276 30.3503 83.8039 28.2751 96.4259Z" fill="url(#paint2_linear_2026_40711)"/>
<path fill-rule="evenodd" clip-rule="evenodd" d="M6.0979 47.322C5.63223 50.083 6.82853 53.2052 9.67074 54.08C12.1035 54.8345 14.3516 53.8713 15.7406 52.6353C15.4274 54.8425 13.8698 57.2985 12.1115 58.3338V59C13.2275 58.8395 14.8092 58.7351 16.5675 58.7271C18.3258 58.7191 19.8995 58.7993 21.0235 58.9438V58.2777C19.2492 57.2664 17.6595 54.8345 17.3142 52.6273C18.7193 53.8392 20.9834 54.7783 23.4001 53.9917C26.2343 53.0768 27.3904 49.9386 26.8846 47.1856C26.0897 42.8114 20.5579 40.3795 17.1215 35.315C16.8405 34.8977 15.9894 34.8896 15.7245 35.3231C12.9144 40.0183 6.83656 42.9318 6.0979 47.322Z" fill="url(#paint3_linear_2026_40711)"/>
<defs>
<linearGradient id="paint0_linear_2026_40711" x1="50" y1="140" x2="50" y2="0" gradientUnits="userSpaceOnUse">
<stop stop-color="#E9E9E9"/>
<stop offset="0.99" stop-color="white"/>
</linearGradient>
<linearGradient id="paint1_linear_2026_40711" x1="16.5067" y1="5.52991" x2="16.5067" y2="30.1398" gradientUnits="userSpaceOnUse">
<stop stop-color="#505050"/>
<stop offset="1"/>
</linearGradient>
<linearGradient id="paint2_linear_2026_40711" x1="57.5234" y1="59.6485" x2="57.5234" y2="130.402" gradientUnits="userSpaceOnUse">
<stop stop-color="#505050"/>
<stop offset="1"/>
</linearGradient>
<linearGradient id="paint3_linear_2026_40711" x1="16.5083" y1="34.5299" x2="16.5083" y2="59.1398" gradientUnits="userSpaceOnUse">
<stop stop-color="#505050"/>
<stop offset="1"/>
</linearGradient>
</defs>
</svg>
