<svg width="100" height="140" viewBox="0 0 100 140" fill="none" xmlns="http://www.w3.org/2000/svg">
<path fill-rule="evenodd" clip-rule="evenodd" d="M0 140L0 2.25306e-05C33.3333 -0.000186086 66.6667 -0.000185124 100 2.25306e-05V140C66.6667 140 33.3333 140 0 140Z" fill="url(#paint0_linear_2026_40844)"/>
<path fill-rule="evenodd" clip-rule="evenodd" d="M6.00009 47.3456C5.98523 45.2084 7.78352 43.4655 10.0202 43.4497C11.4098 43.4418 12.8143 44.3645 13.6762 45.4134C14.1593 46.0049 14.3696 45.784 15.1127 45.784C15.1201 44.4828 15.1327 43.9387 14.2856 43.0475C13.3642 42.0775 12.5988 40.6579 12.5913 39.2384C12.5765 36.7069 14.4342 35.0159 16.5669 35.0001C18.6921 34.9843 20.2823 36.6596 20.3046 39.1911C20.3121 40.6106 19.569 42.0381 18.6624 43.0238C17.8301 43.9229 17.8475 44.5222 17.8549 45.784C18.6203 45.8235 18.8259 45.9891 19.3015 45.3897C20.1486 44.3251 21.5456 43.3866 22.9352 43.3787C25.1645 43.363 26.985 45.0822 26.9999 47.2194C27.0148 49.3566 25.2165 51.0995 22.9798 51.1152C21.5902 51.1231 20.1857 50.2004 19.3238 49.1515C18.8407 48.5601 18.598 48.6595 17.8549 48.6595C17.4899 51.8434 18.1786 55.7455 21.0593 57.3849V58C20.0784 57.8659 18.1125 57.7871 16.5669 57.8028C15.0212 57.8107 12.9444 57.858 11.9561 58V57.3849C14.8133 55.7003 15.537 51.8668 15.1127 48.6595C14.3399 48.6595 14.1741 48.5837 13.6985 49.1831C12.8514 50.2477 11.4544 51.1862 10.0648 51.1941C7.83553 51.2099 6.01495 49.4906 6.00009 47.3534V47.3456Z" fill="url(#paint1_linear_2026_40844)"/>
<path fill-rule="evenodd" clip-rule="evenodd" d="M11.3983 14.7841L11.414 14.6965C12.0587 11.1002 13.9915 9.06963 16.5131 9.06963C18.4321 9.06963 19.9635 9.88378 21.1012 11.5027L21.2158 11.6659L24.0892 10.1375L23.9344 9.91564C23.1285 8.76096 22.1066 7.81713 20.8961 7.13285C19.5502 6.37726 18.07 6 16.4869 6C14.8707 6 13.4865 6.32821 12.3243 7.0049C11.1609 7.68223 10.2344 8.70036 9.52216 10.056C8.50117 12.0122 8 14.6552 8 17.8735C8 20.1262 8.21743 23.0121 9.09446 25.0528C9.82449 26.7605 11.0424 28.0645 12.6858 28.9389C13.9112 29.5751 15.103 29.9306 16.2332 29.9727V30H16.4607C18.8809 30 20.9589 29.101 22.628 27.3299C24.1865 25.6564 25 23.666 25 21.4616C25 19.1059 24.2467 17.0259 22.7929 15.3256C21.1736 13.4317 19.0648 12.4861 16.4869 12.4861C14.5121 12.4861 12.8261 13.2244 11.4972 14.6756L11.3983 14.7841ZM16.4607 15.2975V15.2745C16.3845 15.2745 16.3087 15.276 16.2332 15.279C14.9049 15.3327 13.6844 15.8567 12.816 16.7925C12.1081 17.5515 11.3739 18.5175 11.3215 20.0355C11.269 21.6456 11.5313 23.0026 12.1868 24.4286C13.1045 26.4527 14.9923 27.1657 16.4607 27.1657C18.0601 27.1657 19.3973 26.5217 20.4462 25.2566C21.4163 24.1296 21.9145 22.8416 21.9145 21.4386C21.9145 19.8745 21.4687 18.4945 20.5773 17.3445C19.5809 15.9875 18.1912 15.2975 16.4607 15.2975Z" fill="url(#paint2_linear_2026_40844)"/>
<path fill-rule="evenodd" clip-rule="evenodd" d="M30.0002 97.8161C29.9599 91.962 34.841 87.1881 40.912 87.1449C44.6838 87.1233 48.4958 89.6507 50.8355 92.5237C52.1465 94.1438 52.7175 93.5388 54.7345 93.5388C54.7547 89.9746 54.7888 88.4842 52.4894 86.0432C49.9884 83.3862 47.9109 79.4979 47.8908 75.6095C47.8504 68.6754 52.8928 64.0435 58.6815 64.0003C64.45 63.9571 68.7664 68.5458 68.8269 75.4799C68.847 79.3682 66.8301 83.2782 64.3694 85.9784C62.1104 88.441 62.1574 90.0826 62.1776 93.5388C64.255 93.6469 64.8131 94.1006 66.104 92.4589C68.4033 89.5426 72.1952 86.972 75.9669 86.9504C82.0178 86.9072 86.9594 91.6164 86.9998 97.4705C87.0401 103.325 82.159 108.099 76.088 108.142C72.3162 108.163 68.5042 105.636 66.1645 102.763C64.8535 101.143 64.1945 101.415 62.1776 101.415C61.187 110.136 63.0561 120.825 70.8752 125.315V127C68.2128 126.633 62.8768 126.417 58.6815 126.46C54.4862 126.482 48.849 126.611 46.1664 127V125.315C53.9217 120.701 55.8861 110.2 54.7345 101.415C52.6368 101.415 52.1869 101.208 50.896 102.849C48.5967 105.766 44.8048 108.336 41.0331 108.358C34.9822 108.401 30.0406 103.692 30.0002 97.8377V97.8161Z" fill="url(#paint3_linear_2026_40844)"/>
<defs>
<linearGradient id="paint0_linear_2026_40844" x1="50" y1="140" x2="50" y2="0" gradientUnits="userSpaceOnUse">
<stop stop-color="#E9E9E9"/>
<stop offset="0.99" stop-color="white"/>
</linearGradient>
<linearGradient id="paint1_linear_2026_40844" x1="16.5083" y1="34.5495" x2="16.5083" y2="58.1339" gradientUnits="userSpaceOnUse">
<stop stop-color="#505050"/>
<stop offset="1"/>
</linearGradient>
<linearGradient id="paint2_linear_2026_40844" x1="16.5067" y1="5.52991" x2="16.5067" y2="30.1398" gradientUnits="userSpaceOnUse">
<stop stop-color="#505050"/>
<stop offset="1"/>
</linearGradient>
<linearGradient id="paint3_linear_2026_40844" x1="58.5226" y1="62.766" x2="58.5226" y2="127.367" gradientUnits="userSpaceOnUse">
<stop stop-color="#505050"/>
<stop offset="1"/>
</linearGradient>
</defs>
</svg>
