<svg width="100" height="140" viewBox="0 0 100 140" fill="none" xmlns="http://www.w3.org/2000/svg">
<path fill-rule="evenodd" clip-rule="evenodd" d="M0 140L0 2.25306e-05C33.3333 -0.000186086 66.6667 -0.000185124 100 2.25306e-05V140C66.6667 140 33.3333 140 0 140Z" fill="url(#paint0_linear_2026_40823)"/>
<path fill-rule="evenodd" clip-rule="evenodd" d="M11.3983 14.7841L11.414 14.6965C12.0587 11.1002 13.9915 9.06963 16.5131 9.06963C18.4321 9.06963 19.9635 9.88378 21.1012 11.5027L21.2158 11.6659L24.0892 10.1375L23.9344 9.91564C23.1285 8.76096 22.1066 7.81713 20.8961 7.13285C19.5502 6.37726 18.07 6 16.4869 6C14.8707 6 13.4865 6.32821 12.3243 7.0049C11.1609 7.68223 10.2344 8.70036 9.52216 10.056C8.50117 12.0122 8 14.6552 8 17.8735C8 20.1262 8.21743 23.0121 9.09446 25.0528C9.82449 26.7605 11.0424 28.0645 12.6858 28.9389C13.9112 29.5751 15.103 29.9306 16.2332 29.9727V30H16.4607C18.8809 30 20.9589 29.101 22.628 27.3299C24.1865 25.6564 25 23.666 25 21.4616C25 19.1059 24.2467 17.0259 22.7929 15.3256C21.1736 13.4317 19.0648 12.4861 16.4869 12.4861C14.5121 12.4861 12.8261 13.2244 11.4972 14.6756L11.3983 14.7841ZM16.4607 15.2975V15.2745C16.3845 15.2745 16.3087 15.276 16.2332 15.279C14.9049 15.3327 13.6844 15.8567 12.816 16.7925C12.1081 17.5515 11.3739 18.5175 11.3215 20.0355C11.269 21.6456 11.5313 23.0026 12.1868 24.4286C13.1045 26.4527 14.9923 27.1657 16.4607 27.1657C18.0601 27.1657 19.3973 26.5217 20.4462 25.2566C21.4163 24.1296 21.9145 22.8416 21.9145 21.4386C21.9145 19.8745 21.4687 18.4945 20.5773 17.3445C19.5809 15.9875 18.1912 15.2975 16.4607 15.2975Z" fill="url(#paint1_linear_2026_40823)"/>
<path fill-rule="evenodd" clip-rule="evenodd" d="M72.4996 75.3054C77.8786 81.586 82.6854 87.6251 86.485 92.7638C87.1717 93.6861 87.1717 94.8939 86.485 95.8162C82.754 100.999 78.0388 107.104 72.7514 113.45C67.7844 119.401 63.0006 124.76 58.8347 129.108C57.7131 130.294 55.7675 130.294 54.6231 129.13C50.4114 124.848 45.536 119.555 40.5004 113.648C35.1214 107.367 30.3146 101.328 26.515 96.1895C25.8283 95.2672 25.8283 94.0594 26.515 93.1371C30.246 87.9545 34.9612 81.8496 40.2486 75.5031C45.1927 69.5738 49.9765 64.2155 54.1195 59.8894C55.264 58.7035 57.2325 58.7035 58.3769 59.8894C61.7188 63.3811 68.2422 70.3205 72.5225 75.2835L72.4996 75.3054Z" fill="url(#paint2_linear_2026_40823)"/>
<path fill-rule="evenodd" clip-rule="evenodd" d="M22.0081 40.5117C23.8598 42.6347 25.5146 44.6761 26.8227 46.4131C27.0591 46.7249 27.0591 47.1332 26.8227 47.4449C25.5383 49.1968 23.915 51.2604 22.0947 53.4057C20.3848 55.4174 18.7379 57.2286 17.3037 58.6984C16.9176 59.0993 16.2478 59.0993 15.8538 58.7059C14.4039 57.2583 12.7255 55.4694 10.9919 53.4725C9.14015 51.3495 7.48537 49.3081 6.1773 47.5711C5.9409 47.2593 5.9409 46.8511 6.1773 46.5393C7.46173 44.7874 9.08499 42.7238 10.9053 40.5785C12.6073 38.5743 14.2542 36.763 15.6805 35.3006C16.0745 34.8998 16.7522 34.8998 17.1462 35.3006C18.2966 36.4809 20.5424 38.8266 22.016 40.5043L22.0081 40.5117Z" fill="url(#paint3_linear_2026_40823)"/>
<defs>
<linearGradient id="paint0_linear_2026_40823" x1="50" y1="140" x2="50" y2="0" gradientUnits="userSpaceOnUse">
<stop stop-color="#E9E9E9"/>
<stop offset="0.99" stop-color="white"/>
</linearGradient>
<linearGradient id="paint1_linear_2026_40823" x1="10.7206" y1="6.50106" x2="25.3527" y2="27.9795" gradientUnits="userSpaceOnUse">
<stop stop-color="#DD1D24"/>
<stop offset="0.99" stop-color="#B90000"/>
</linearGradient>
<linearGradient id="paint2_linear_2026_40823" x1="35.7623" y1="60.4823" x2="75.4826" y2="131.202" gradientUnits="userSpaceOnUse">
<stop stop-color="#DD1D24"/>
<stop offset="0.99" stop-color="#B90000"/>
</linearGradient>
<linearGradient id="paint3_linear_2026_40823" x1="9.36079" y1="35.5011" x2="22.6587" y2="59.614" gradientUnits="userSpaceOnUse">
<stop stop-color="#DD1D24"/>
<stop offset="0.99" stop-color="#B90000"/>
</linearGradient>
</defs>
</svg>
