<svg width="100" height="140" viewBox="0 0 100 140" fill="none" xmlns="http://www.w3.org/2000/svg">
<path fill-rule="evenodd" clip-rule="evenodd" d="M0 140L0 2.25306e-05C33.3333 -0.000186086 66.6667 -0.000185124 100 2.25306e-05V140C66.6667 140 33.3333 140 0 140Z" fill="url(#paint0_linear_2026_40558)"/>
<path fill-rule="evenodd" clip-rule="evenodd" d="M11.3983 14.7841L11.414 14.6965C12.0587 11.1002 13.9915 9.06963 16.5131 9.06963C18.4321 9.06963 19.9635 9.88378 21.1012 11.5027L21.2158 11.6659L24.0892 10.1375L23.9344 9.91564C23.1285 8.76096 22.1066 7.81713 20.8961 7.13285C19.5502 6.37726 18.07 6 16.4869 6C14.8707 6 13.4865 6.32821 12.3243 7.0049C11.1609 7.68223 10.2344 8.70036 9.52216 10.056C8.50117 12.0122 8 14.6552 8 17.8735C8 20.1262 8.21743 23.0121 9.09446 25.0528C9.82449 26.7605 11.0424 28.0645 12.6858 28.9389C13.9112 29.5751 15.103 29.9306 16.2332 29.9727V30H16.4607C18.8809 30 20.9589 29.101 22.628 27.3299C24.1865 25.6564 25 23.666 25 21.4616C25 19.1059 24.2467 17.0259 22.7929 15.3256C21.1736 13.4317 19.0648 12.4861 16.4869 12.4861C14.5121 12.4861 12.8261 13.2244 11.4972 14.6756L11.3983 14.7841ZM16.4607 15.2975V15.2745C16.3845 15.2745 16.3087 15.276 16.2332 15.279C14.9049 15.3327 13.6844 15.8567 12.816 16.7925C12.1081 17.5515 11.3739 18.5175 11.3215 20.0355C11.269 21.6456 11.5313 23.0026 12.1868 24.4286C13.1045 26.4527 14.9923 27.1657 16.4607 27.1657C18.0601 27.1657 19.3973 26.5217 20.4462 25.2566C21.4163 24.1296 21.9145 22.8416 21.9145 21.4386C21.9145 19.8745 21.4687 18.4945 20.5773 17.3445C19.5809 15.9875 18.1912 15.2975 16.4607 15.2975Z" fill="url(#paint1_linear_2026_40558)"/>
<path fill-rule="evenodd" clip-rule="evenodd" d="M24.3393 87.9515C22.8431 78.7364 26.2888 68.2565 34.8125 65.1848C43.6536 62.0002 51.7693 67.3079 55.4417 72.4801C59.0462 67.2627 67.0938 61.8195 75.9802 64.8912C84.5266 67.8274 88.1084 78.2621 86.7029 87.4998C84.5039 102.181 69.3154 113.519 57.822 126.099C56.7339 127.274 54.7163 127.319 53.6508 126.122C42.8148 113.948 26.7422 102.587 24.3619 87.9515H24.3393Z" fill="url(#paint2_linear_2026_40558)"/>
<path fill-rule="evenodd" clip-rule="evenodd" d="M6.11309 42.9838C5.61436 39.9121 6.76294 36.4188 9.60418 35.3949C12.5512 34.3334 15.2564 36.1026 16.4806 37.8267C17.6821 36.0876 20.3646 34.2732 23.3267 35.2971C26.1755 36.2758 27.3695 39.754 26.901 42.8332C26.168 47.7269 21.1051 51.5063 17.274 55.6997C16.9113 56.0912 16.2388 56.1063 15.8836 55.7073C12.2716 51.6493 6.91407 47.8624 6.12064 42.9838H6.11309Z" fill="url(#paint3_linear_2026_40558)"/>
<defs>
<linearGradient id="paint0_linear_2026_40558" x1="50" y1="140" x2="50" y2="0" gradientUnits="userSpaceOnUse">
<stop stop-color="#E9E9E9"/>
<stop offset="0.99" stop-color="white"/>
</linearGradient>
<linearGradient id="paint1_linear_2026_40558" x1="10.7206" y1="6.50106" x2="25.3527" y2="27.9795" gradientUnits="userSpaceOnUse">
<stop stop-color="#DD1D24"/>
<stop offset="0.99" stop-color="#B90000"/>
</linearGradient>
<linearGradient id="paint2_linear_2026_40558" x1="34.0824" y1="65.3153" x2="66.392" y2="132.271" gradientUnits="userSpaceOnUse">
<stop stop-color="#DD1D24"/>
<stop offset="0.99" stop-color="#B90000"/>
</linearGradient>
<linearGradient id="paint3_linear_2026_40558" x1="9.36079" y1="35.4384" x2="20.1307" y2="57.7571" gradientUnits="userSpaceOnUse">
<stop stop-color="#DD1D24"/>
<stop offset="0.99" stop-color="#B90000"/>
</linearGradient>
</defs>
</svg>
