<svg width="100" height="140" viewBox="0 0 100 140" fill="none" xmlns="http://www.w3.org/2000/svg">
<path fill-rule="evenodd" clip-rule="evenodd" d="M0 140L0 2.25306e-05C33.3333 -0.000186086 66.6667 -0.000185124 100 2.25306e-05V140C66.6667 140 33.3333 140 0 140Z" fill="url(#paint0_linear_2026_40704)"/>
<path fill-rule="evenodd" clip-rule="evenodd" d="M11.3983 14.7841L11.414 14.6965C12.0587 11.1002 13.9915 9.06963 16.5131 9.06963C18.4321 9.06963 19.9635 9.88378 21.1012 11.5027L21.2158 11.6659L24.0892 10.1375L23.9344 9.91564C23.1285 8.76096 22.1066 7.81713 20.8961 7.13285C19.5502 6.37726 18.07 6 16.4869 6C14.8707 6 13.4865 6.32821 12.3243 7.0049C11.1609 7.68223 10.2344 8.70036 9.52216 10.056C8.50117 12.0122 8 14.6552 8 17.8735C8 20.1262 8.21743 23.0121 9.09446 25.0528C9.82449 26.7605 11.0424 28.0645 12.6858 28.9389C13.9112 29.5751 15.103 29.9306 16.2332 29.9727V30H16.4607C18.8809 30 20.9589 29.101 22.628 27.3299C24.1865 25.6564 25 23.666 25 21.4616C25 19.1059 24.2467 17.0259 22.7929 15.3256C21.1736 13.4317 19.0648 12.4861 16.4869 12.4861C14.5121 12.4861 12.8261 13.2244 11.4972 14.6756L11.3983 14.7841ZM16.4607 15.2975V15.2745C16.3845 15.2745 16.3087 15.276 16.2332 15.279C14.9049 15.3327 13.6844 15.8567 12.816 16.7925C12.1081 17.5515 11.3739 18.5175 11.3215 20.0355C11.269 21.6456 11.5313 23.0026 12.1868 24.4286C13.1045 26.4527 14.9923 27.1657 16.4607 27.1657C18.0601 27.1657 19.3973 26.5217 20.4462 25.2566C21.4163 24.1296 21.9145 22.8416 21.9145 21.4386C21.9145 19.8745 21.4687 18.4945 20.5773 17.3445C19.5809 15.9875 18.1912 15.2975 16.4607 15.2975Z" fill="url(#paint1_linear_2026_40704)"/>
<path fill-rule="evenodd" clip-rule="evenodd" d="M28.2751 96.4259C26.9667 104.364 30.3278 113.34 38.313 115.855C45.1479 118.024 51.4639 115.255 55.3663 111.702C54.4866 118.047 50.1105 125.108 45.1704 128.085V130C48.3059 129.538 52.7497 129.239 57.6897 129.215C62.6298 129.192 67.051 129.423 70.209 129.838V127.923C65.2238 125.016 60.7575 118.024 59.7875 111.678C63.7351 115.163 70.0962 117.863 76.8859 115.601C84.8486 112.971 88.0969 103.948 86.6758 96.0336C84.4426 83.4577 68.9007 76.466 59.2462 61.9057C58.4567 60.7058 56.0656 60.6827 55.3212 61.9288C47.4262 75.4276 30.3503 83.8039 28.2751 96.4259Z" fill="url(#paint2_linear_2026_40704)"/>
<path fill-rule="evenodd" clip-rule="evenodd" d="M6.0979 47.322C5.63223 50.083 6.82853 53.2052 9.67074 54.08C12.1035 54.8345 14.3516 53.8713 15.7406 52.6353C15.4274 54.8425 13.8698 57.2985 12.1115 58.3338V59C13.2275 58.8395 14.8092 58.7351 16.5675 58.7271C18.3258 58.7191 19.8995 58.7993 21.0235 58.9438V58.2777C19.2492 57.2664 17.6595 54.8345 17.3142 52.6273C18.7193 53.8392 20.9834 54.7783 23.4001 53.9917C26.2343 53.0768 27.3904 49.9386 26.8846 47.1856C26.0897 42.8114 20.5579 40.3795 17.1215 35.315C16.8405 34.8977 15.9894 34.8896 15.7245 35.3231C12.9144 40.0183 6.83656 42.9318 6.0979 47.322Z" fill="url(#paint3_linear_2026_40704)"/>
<defs>
<linearGradient id="paint0_linear_2026_40704" x1="50" y1="140" x2="50" y2="0" gradientUnits="userSpaceOnUse">
<stop stop-color="#E9E9E9"/>
<stop offset="0.99" stop-color="white"/>
</linearGradient>
<linearGradient id="paint1_linear_2026_40704" x1="16.5067" y1="5.52991" x2="16.5067" y2="30.1398" gradientUnits="userSpaceOnUse">
<stop stop-color="#505050"/>
<stop offset="1"/>
</linearGradient>
<linearGradient id="paint2_linear_2026_40704" x1="57.5234" y1="59.6485" x2="57.5234" y2="130.402" gradientUnits="userSpaceOnUse">
<stop stop-color="#505050"/>
<stop offset="1"/>
</linearGradient>
<linearGradient id="paint3_linear_2026_40704" x1="16.5083" y1="34.5299" x2="16.5083" y2="59.1398" gradientUnits="userSpaceOnUse">
<stop stop-color="#505050"/>
<stop offset="1"/>
</linearGradient>
</defs>
</svg>
