<svg width="100" height="140" viewBox="0 0 100 140" fill="none" xmlns="http://www.w3.org/2000/svg">
<path fill-rule="evenodd" clip-rule="evenodd" d="M0 140L0 2.25306e-05C33.3333 -0.000186086 66.6667 -0.000185124 100 2.25306e-05V140C66.6667 140 33.3333 140 0 140Z" fill="url(#paint0_linear_2026_40837)"/>
<path fill-rule="evenodd" clip-rule="evenodd" d="M6.00009 47.3456C5.98523 45.2084 7.78352 43.4655 10.0202 43.4497C11.4098 43.4418 12.8143 44.3645 13.6762 45.4134C14.1593 46.0049 14.3696 45.784 15.1127 45.784C15.1201 44.4828 15.1327 43.9387 14.2856 43.0475C13.3642 42.0775 12.5988 40.6579 12.5913 39.2384C12.5765 36.7069 14.4342 35.0159 16.5669 35.0001C18.6921 34.9843 20.2823 36.6596 20.3046 39.1911C20.3121 40.6106 19.569 42.0381 18.6624 43.0238C17.8301 43.9229 17.8475 44.5222 17.8549 45.784C18.6203 45.8235 18.8259 45.9891 19.3015 45.3897C20.1486 44.3251 21.5456 43.3866 22.9352 43.3787C25.1645 43.363 26.985 45.0822 26.9999 47.2194C27.0148 49.3566 25.2165 51.0995 22.9798 51.1152C21.5902 51.1231 20.1857 50.2004 19.3238 49.1515C18.8407 48.5601 18.598 48.6595 17.8549 48.6595C17.4899 51.8434 18.1786 55.7455 21.0593 57.3849V58C20.0784 57.8659 18.1125 57.7871 16.5669 57.8028C15.0212 57.8107 12.9444 57.858 11.9561 58V57.3849C14.8133 55.7003 15.537 51.8668 15.1127 48.6595C14.3399 48.6595 14.1741 48.5837 13.6985 49.1831C12.8514 50.2477 11.4544 51.1862 10.0648 51.1941C7.83553 51.2099 6.01495 49.4906 6.00009 47.3534V47.3456Z" fill="url(#paint1_linear_2026_40837)"/>
<path fill-rule="evenodd" clip-rule="evenodd" d="M12.4963 29.717L12.5009 29.6939C13.9956 22.0513 16.5927 15.2223 20.269 9.37872H11.5383V12.407H8V6H23.2772L25 8.77179L24.901 8.90355C20.7173 14.4701 17.7496 21.4772 16.0822 29.8125L16.0447 30H12.4963V29.717Z" fill="url(#paint2_linear_2026_40837)"/>
<path fill-rule="evenodd" clip-rule="evenodd" d="M30.0002 97.8161C29.9599 91.962 34.841 87.1881 40.912 87.1449C44.6838 87.1233 48.4958 89.6507 50.8355 92.5237C52.1465 94.1438 52.7175 93.5388 54.7345 93.5388C54.7547 89.9746 54.7888 88.4842 52.4894 86.0432C49.9884 83.3862 47.9109 79.4979 47.8908 75.6095C47.8504 68.6754 52.8928 64.0435 58.6815 64.0003C64.45 63.9571 68.7664 68.5458 68.8269 75.4799C68.847 79.3682 66.8301 83.2782 64.3694 85.9784C62.1104 88.441 62.1574 90.0826 62.1776 93.5388C64.255 93.6469 64.8131 94.1006 66.104 92.4589C68.4033 89.5426 72.1952 86.972 75.9669 86.9504C82.0178 86.9072 86.9594 91.6164 86.9998 97.4705C87.0401 103.325 82.159 108.099 76.088 108.142C72.3162 108.163 68.5042 105.636 66.1645 102.763C64.8535 101.143 64.1945 101.415 62.1776 101.415C61.187 110.136 63.0561 120.825 70.8752 125.315V127C68.2128 126.633 62.8768 126.417 58.6815 126.46C54.4862 126.482 48.849 126.611 46.1664 127V125.315C53.9217 120.701 55.8861 110.2 54.7345 101.415C52.6368 101.415 52.1869 101.208 50.896 102.849C48.5967 105.766 44.8048 108.336 41.0331 108.358C34.9822 108.401 30.0406 103.692 30.0002 97.8377V97.8161Z" fill="url(#paint3_linear_2026_40837)"/>
<defs>
<linearGradient id="paint0_linear_2026_40837" x1="50" y1="140" x2="50" y2="0" gradientUnits="userSpaceOnUse">
<stop stop-color="#E9E9E9"/>
<stop offset="0.99" stop-color="white"/>
</linearGradient>
<linearGradient id="paint1_linear_2026_40837" x1="16.5083" y1="34.5495" x2="16.5083" y2="58.1339" gradientUnits="userSpaceOnUse">
<stop stop-color="#505050"/>
<stop offset="1"/>
</linearGradient>
<linearGradient id="paint2_linear_2026_40837" x1="16.5067" y1="5.52991" x2="16.5067" y2="30.1398" gradientUnits="userSpaceOnUse">
<stop stop-color="#505050"/>
<stop offset="1"/>
</linearGradient>
<linearGradient id="paint3_linear_2026_40837" x1="58.5226" y1="62.766" x2="58.5226" y2="127.367" gradientUnits="userSpaceOnUse">
<stop stop-color="#505050"/>
<stop offset="1"/>
</linearGradient>
</defs>
</svg>
