<svg width="100" height="140" viewBox="0 0 100 140" fill="none" xmlns="http://www.w3.org/2000/svg">
<path fill-rule="evenodd" clip-rule="evenodd" d="M0 140L0 2.25306e-05C33.3333 -0.000186086 66.6667 -0.000185124 100 2.25306e-05V140C66.6667 140 33.3333 140 0 140Z" fill="url(#paint0_linear_2026_40830)"/>
<path fill-rule="evenodd" clip-rule="evenodd" d="M6.00009 47.3456C5.98523 45.2084 7.78352 43.4655 10.0202 43.4497C11.4098 43.4418 12.8143 44.3645 13.6762 45.4134C14.1593 46.0049 14.3696 45.784 15.1127 45.784C15.1201 44.4828 15.1327 43.9387 14.2856 43.0475C13.3642 42.0775 12.5988 40.6579 12.5913 39.2384C12.5765 36.7069 14.4342 35.0159 16.5669 35.0001C18.6921 34.9843 20.2823 36.6596 20.3046 39.1911C20.3121 40.6106 19.569 42.0381 18.6624 43.0238C17.8301 43.9229 17.8475 44.5222 17.8549 45.784C18.6203 45.8235 18.8259 45.9891 19.3015 45.3897C20.1486 44.3251 21.5456 43.3866 22.9352 43.3787C25.1645 43.363 26.985 45.0822 26.9999 47.2194C27.0148 49.3566 25.2165 51.0995 22.9798 51.1152C21.5902 51.1231 20.1857 50.2004 19.3238 49.1515C18.8407 48.5601 18.598 48.6595 17.8549 48.6595C17.4899 51.8434 18.1786 55.7455 21.0593 57.3849V58C20.0784 57.8659 18.1125 57.7871 16.5669 57.8028C15.0212 57.8107 12.9444 57.858 11.9561 58V57.3849C14.8133 55.7003 15.537 51.8668 15.1127 48.6595C14.3399 48.6595 14.1741 48.5837 13.6985 49.1831C12.8514 50.2477 11.4544 51.1862 10.0648 51.1941C7.83553 51.2099 6.01495 49.4906 6.00009 47.3534V47.3456Z" fill="url(#paint1_linear_2026_40830)"/>
<path fill-rule="evenodd" clip-rule="evenodd" d="M16.4871 30C14.2281 30 12.2481 29.329 10.5838 27.9819C8.86161 26.6061 8 24.8762 8 22.8277C8 20.437 9.15817 18.4937 11.4223 17.053C9.78595 15.8207 8.97778 14.2806 8.97778 12.352C8.97778 10.5375 9.76256 8.97134 11.305 7.75974C12.738 6.60012 14.512 6 16.4871 6C18.4633 6 20.2369 6.6007 21.6948 7.75953L21.6969 7.76127C23.2087 8.99325 24.0222 10.5339 24.0222 12.352C24.0222 14.159 23.1931 15.7862 21.5942 17.0397C23.8745 18.4566 25 20.351 25 22.8043C25 24.8523 24.1387 26.5828 22.4412 27.9356C20.7497 29.2836 18.6074 30 16.4871 30ZM12.9104 19.8815C11.8046 20.6648 11.2597 21.6748 11.2597 22.8512C11.2597 24.0229 11.8005 24.9885 12.912 25.822C13.954 26.5441 15.1438 26.9281 16.4871 26.9281C17.836 26.9281 19.0494 26.5645 20.0608 25.823L20.0633 25.8212C21.1977 25.0126 21.7403 24.025 21.7403 22.8512C21.7403 21.6774 21.1977 20.6897 20.0633 19.8811C19.0218 19.1358 17.8318 18.7509 16.4871 18.7509C15.141 18.7509 13.927 19.1363 12.9134 19.8793L12.9104 19.8815ZM13.5778 9.99281C12.6461 10.6404 12.186 11.4414 12.186 12.352C12.186 13.2673 12.6248 14.0892 13.5755 14.7331L13.584 14.7388C14.3882 15.3381 15.3687 15.6321 16.4871 15.6321C17.6005 15.6321 18.5596 15.3175 19.3963 14.7348C20.3279 14.0872 20.7883 13.286 20.7883 12.3754C20.7883 11.4602 20.3495 10.6382 19.3988 9.99436L19.3903 9.98861C18.5861 9.38933 17.6056 9.09538 16.4871 9.09538C15.3738 9.09538 14.4145 9.41004 13.5778 9.99281Z" fill="url(#paint2_linear_2026_40830)"/>
<path fill-rule="evenodd" clip-rule="evenodd" d="M30.0002 97.8161C29.9599 91.962 34.841 87.1881 40.912 87.1449C44.6838 87.1233 48.4958 89.6507 50.8355 92.5237C52.1465 94.1438 52.7175 93.5388 54.7345 93.5388C54.7547 89.9746 54.7888 88.4842 52.4894 86.0432C49.9884 83.3862 47.9109 79.4979 47.8908 75.6095C47.8504 68.6754 52.8928 64.0435 58.6815 64.0003C64.45 63.9571 68.7664 68.5458 68.8269 75.4799C68.847 79.3682 66.8301 83.2782 64.3694 85.9784C62.1104 88.441 62.1574 90.0826 62.1776 93.5388C64.255 93.6469 64.8131 94.1006 66.104 92.4589C68.4033 89.5426 72.1952 86.972 75.9669 86.9504C82.0178 86.9072 86.9594 91.6164 86.9998 97.4705C87.0401 103.325 82.159 108.099 76.088 108.142C72.3162 108.163 68.5042 105.636 66.1645 102.763C64.8535 101.143 64.1945 101.415 62.1776 101.415C61.187 110.136 63.0561 120.825 70.8752 125.315V127C68.2128 126.633 62.8768 126.417 58.6815 126.46C54.4862 126.482 48.849 126.611 46.1664 127V125.315C53.9217 120.701 55.8861 110.2 54.7345 101.415C52.6368 101.415 52.1869 101.208 50.896 102.849C48.5967 105.766 44.8048 108.336 41.0331 108.358C34.9822 108.401 30.0406 103.692 30.0002 97.8377V97.8161Z" fill="url(#paint3_linear_2026_40830)"/>
<defs>
<linearGradient id="paint0_linear_2026_40830" x1="50" y1="140" x2="50" y2="0" gradientUnits="userSpaceOnUse">
<stop stop-color="#E9E9E9"/>
<stop offset="0.99" stop-color="white"/>
</linearGradient>
<linearGradient id="paint1_linear_2026_40830" x1="16.5083" y1="34.5495" x2="16.5083" y2="58.1339" gradientUnits="userSpaceOnUse">
<stop stop-color="#505050"/>
<stop offset="1"/>
</linearGradient>
<linearGradient id="paint2_linear_2026_40830" x1="16.5067" y1="5.52991" x2="16.5067" y2="30.1398" gradientUnits="userSpaceOnUse">
<stop stop-color="#505050"/>
<stop offset="1"/>
</linearGradient>
<linearGradient id="paint3_linear_2026_40830" x1="58.5226" y1="62.766" x2="58.5226" y2="127.367" gradientUnits="userSpaceOnUse">
<stop stop-color="#505050"/>
<stop offset="1"/>
</linearGradient>
</defs>
</svg>
