<svg width="100" height="140" viewBox="0 0 100 140" fill="none" xmlns="http://www.w3.org/2000/svg">
<path fill-rule="evenodd" clip-rule="evenodd" d="M0 140L0 2.25306e-05C33.3333 -0.000186086 66.6667 -0.000185124 100 2.25306e-05V140C66.6667 140 33.3333 140 0 140Z" fill="url(#paint0_linear_2026_40802)"/>
<path fill-rule="evenodd" clip-rule="evenodd" d="M16.4871 30C14.2281 30 12.2481 29.329 10.5838 27.9819C8.86161 26.6061 8 24.8762 8 22.8277C8 20.437 9.15817 18.4937 11.4223 17.053C9.78595 15.8207 8.97778 14.2806 8.97778 12.352C8.97778 10.5375 9.76256 8.97134 11.305 7.75974C12.738 6.60012 14.512 6 16.4871 6C18.4633 6 20.2369 6.6007 21.6948 7.75953L21.6969 7.76127C23.2087 8.99325 24.0222 10.5339 24.0222 12.352C24.0222 14.159 23.1931 15.7862 21.5942 17.0397C23.8745 18.4566 25 20.351 25 22.8043C25 24.8523 24.1387 26.5828 22.4412 27.9356C20.7497 29.2836 18.6074 30 16.4871 30ZM12.9104 19.8815C11.8046 20.6648 11.2597 21.6748 11.2597 22.8512C11.2597 24.0229 11.8005 24.9885 12.912 25.822C13.954 26.5441 15.1438 26.9281 16.4871 26.9281C17.836 26.9281 19.0494 26.5645 20.0608 25.823L20.0633 25.8212C21.1977 25.0126 21.7403 24.025 21.7403 22.8512C21.7403 21.6774 21.1977 20.6897 20.0633 19.8811C19.0218 19.1358 17.8318 18.7509 16.4871 18.7509C15.141 18.7509 13.927 19.1363 12.9134 19.8793L12.9104 19.8815ZM13.5778 9.99281C12.6461 10.6404 12.186 11.4414 12.186 12.352C12.186 13.2673 12.6248 14.0892 13.5755 14.7331L13.584 14.7388C14.3882 15.3381 15.3687 15.6321 16.4871 15.6321C17.6005 15.6321 18.5596 15.3175 19.3963 14.7348C20.3279 14.0872 20.7883 13.286 20.7883 12.3754C20.7883 11.4602 20.3495 10.6382 19.3988 9.99436L19.3903 9.98861C18.5861 9.38933 17.6056 9.09538 16.4871 9.09538C15.3738 9.09538 14.4145 9.41004 13.5778 9.99281Z" fill="url(#paint1_linear_2026_40802)"/>
<path fill-rule="evenodd" clip-rule="evenodd" d="M72.4996 75.3054C77.8786 81.586 82.6854 87.6251 86.485 92.7638C87.1717 93.6861 87.1717 94.8939 86.485 95.8162C82.754 100.999 78.0388 107.104 72.7514 113.45C67.7844 119.401 63.0006 124.76 58.8347 129.108C57.7131 130.294 55.7675 130.294 54.6231 129.13C50.4114 124.848 45.536 119.555 40.5004 113.648C35.1214 107.367 30.3146 101.328 26.515 96.1895C25.8283 95.2672 25.8283 94.0594 26.515 93.1371C30.246 87.9545 34.9612 81.8496 40.2486 75.5031C45.1927 69.5738 49.9765 64.2155 54.1195 59.8894C55.264 58.7035 57.2325 58.7035 58.3769 59.8894C61.7188 63.3811 68.2422 70.3205 72.5225 75.2835L72.4996 75.3054Z" fill="url(#paint2_linear_2026_40802)"/>
<path fill-rule="evenodd" clip-rule="evenodd" d="M22.0081 40.5117C23.8598 42.6347 25.5146 44.6761 26.8227 46.4131C27.0591 46.7249 27.0591 47.1332 26.8227 47.4449C25.5383 49.1968 23.915 51.2604 22.0947 53.4057C20.3848 55.4174 18.7379 57.2286 17.3037 58.6984C16.9176 59.0993 16.2478 59.0993 15.8538 58.7059C14.4039 57.2583 12.7255 55.4694 10.9919 53.4725C9.14015 51.3495 7.48537 49.3081 6.1773 47.5711C5.9409 47.2593 5.9409 46.8511 6.1773 46.5393C7.46173 44.7874 9.08499 42.7238 10.9053 40.5785C12.6073 38.5743 14.2542 36.763 15.6805 35.3006C16.0745 34.8998 16.7522 34.8998 17.1462 35.3006C18.2966 36.4809 20.5424 38.8266 22.016 40.5043L22.0081 40.5117Z" fill="url(#paint3_linear_2026_40802)"/>
<defs>
<linearGradient id="paint0_linear_2026_40802" x1="50" y1="140" x2="50" y2="0" gradientUnits="userSpaceOnUse">
<stop stop-color="#E9E9E9"/>
<stop offset="0.99" stop-color="white"/>
</linearGradient>
<linearGradient id="paint1_linear_2026_40802" x1="10.7206" y1="6.50106" x2="25.3527" y2="27.9795" gradientUnits="userSpaceOnUse">
<stop stop-color="#DD1D24"/>
<stop offset="0.99" stop-color="#B90000"/>
</linearGradient>
<linearGradient id="paint2_linear_2026_40802" x1="35.7623" y1="60.4823" x2="75.4826" y2="131.202" gradientUnits="userSpaceOnUse">
<stop stop-color="#DD1D24"/>
<stop offset="0.99" stop-color="#B90000"/>
</linearGradient>
<linearGradient id="paint3_linear_2026_40802" x1="9.36079" y1="35.5011" x2="22.6587" y2="59.614" gradientUnits="userSpaceOnUse">
<stop stop-color="#DD1D24"/>
<stop offset="0.99" stop-color="#B90000"/>
</linearGradient>
</defs>
</svg>
