<svg width="100" height="140" viewBox="0 0 100 140" fill="none" xmlns="http://www.w3.org/2000/svg">
<path fill-rule="evenodd" clip-rule="evenodd" d="M0 140L0 2.25306e-05C33.3333 -0.000186086 66.6667 -0.000185124 100 2.25306e-05V140C66.6667 140 33.3333 140 0 140Z" fill="url(#paint0_linear_2026_40516)"/>
<path fill-rule="evenodd" clip-rule="evenodd" d="M16.4871 30C14.2281 30 12.2481 29.329 10.5838 27.9819C8.86161 26.6061 8 24.8762 8 22.8277C8 20.437 9.15817 18.4937 11.4223 17.053C9.78595 15.8207 8.97778 14.2806 8.97778 12.352C8.97778 10.5375 9.76256 8.97134 11.305 7.75974C12.738 6.60012 14.512 6 16.4871 6C18.4633 6 20.2369 6.6007 21.6948 7.75953L21.6969 7.76127C23.2087 8.99325 24.0222 10.5339 24.0222 12.352C24.0222 14.159 23.1931 15.7862 21.5942 17.0397C23.8745 18.4566 25 20.351 25 22.8043C25 24.8523 24.1387 26.5828 22.4412 27.9356C20.7497 29.2836 18.6074 30 16.4871 30ZM12.9104 19.8815C11.8046 20.6648 11.2597 21.6748 11.2597 22.8512C11.2597 24.0229 11.8005 24.9885 12.912 25.822C13.954 26.5441 15.1438 26.9281 16.4871 26.9281C17.836 26.9281 19.0494 26.5645 20.0608 25.823L20.0633 25.8212C21.1977 25.0126 21.7403 24.025 21.7403 22.8512C21.7403 21.6774 21.1977 20.6897 20.0633 19.8811C19.0218 19.1358 17.8318 18.7509 16.4871 18.7509C15.141 18.7509 13.927 19.1363 12.9134 19.8793L12.9104 19.8815ZM13.5778 9.99281C12.6461 10.6404 12.186 11.4414 12.186 12.352C12.186 13.2673 12.6248 14.0892 13.5755 14.7331L13.584 14.7388C14.3882 15.3381 15.3687 15.6321 16.4871 15.6321C17.6005 15.6321 18.5596 15.3175 19.3963 14.7348C20.3279 14.0872 20.7883 13.286 20.7883 12.3754C20.7883 11.4602 20.3495 10.6382 19.3988 9.99436L19.3903 9.98861C18.5861 9.38933 17.6056 9.09538 16.4871 9.09538C15.3738 9.09538 14.4145 9.41004 13.5778 9.99281Z" fill="url(#paint1_linear_2026_40516)"/>
<path fill-rule="evenodd" clip-rule="evenodd" d="M24.3393 87.9515C22.8431 78.7364 26.2888 68.2565 34.8125 65.1848C43.6536 62.0002 51.7693 67.3079 55.4417 72.4801C59.0462 67.2627 67.0938 61.8195 75.9802 64.8912C84.5266 67.8274 88.1084 78.2621 86.7029 87.4998C84.5039 102.181 69.3154 113.519 57.822 126.099C56.7339 127.274 54.7163 127.319 53.6508 126.122C42.8148 113.948 26.7422 102.587 24.3619 87.9515H24.3393Z" fill="url(#paint2_linear_2026_40516)"/>
<path fill-rule="evenodd" clip-rule="evenodd" d="M6.11309 42.9838C5.61436 39.9121 6.76294 36.4188 9.60418 35.3949C12.5512 34.3334 15.2564 36.1026 16.4806 37.8267C17.6821 36.0876 20.3646 34.2732 23.3267 35.2971C26.1755 36.2758 27.3695 39.754 26.901 42.8332C26.168 47.7269 21.1051 51.5063 17.274 55.6997C16.9113 56.0912 16.2388 56.1063 15.8836 55.7073C12.2716 51.6493 6.91407 47.8624 6.12064 42.9838H6.11309Z" fill="url(#paint3_linear_2026_40516)"/>
<defs>
<linearGradient id="paint0_linear_2026_40516" x1="50" y1="140" x2="50" y2="0" gradientUnits="userSpaceOnUse">
<stop stop-color="#E9E9E9"/>
<stop offset="0.99" stop-color="white"/>
</linearGradient>
<linearGradient id="paint1_linear_2026_40516" x1="10.7206" y1="6.50106" x2="25.3527" y2="27.9795" gradientUnits="userSpaceOnUse">
<stop stop-color="#DD1D24"/>
<stop offset="0.99" stop-color="#B90000"/>
</linearGradient>
<linearGradient id="paint2_linear_2026_40516" x1="34.0824" y1="65.3153" x2="66.392" y2="132.271" gradientUnits="userSpaceOnUse">
<stop stop-color="#DD1D24"/>
<stop offset="0.99" stop-color="#B90000"/>
</linearGradient>
<linearGradient id="paint3_linear_2026_40516" x1="9.36079" y1="35.4384" x2="20.1307" y2="57.7571" gradientUnits="userSpaceOnUse">
<stop stop-color="#DD1D24"/>
<stop offset="0.99" stop-color="#B90000"/>
</linearGradient>
</defs>
</svg>
