<svg width="100" height="140" viewBox="0 0 100 140" fill="none" xmlns="http://www.w3.org/2000/svg">
<path fill-rule="evenodd" clip-rule="evenodd" d="M0 140L0 2.25306e-05C33.3333 -0.000186086 66.6667 -0.000185124 100 2.25306e-05V140C66.6667 140 33.3333 140 0 140Z" fill="url(#paint0_linear_2026_40690)"/>
<path fill-rule="evenodd" clip-rule="evenodd" d="M16.4871 30C14.2281 30 12.2481 29.329 10.5838 27.9819C8.86161 26.6061 8 24.8762 8 22.8277C8 20.437 9.15817 18.4937 11.4223 17.053C9.78595 15.8207 8.97778 14.2806 8.97778 12.352C8.97778 10.5375 9.76256 8.97134 11.305 7.75974C12.738 6.60012 14.512 6 16.4871 6C18.4633 6 20.2369 6.6007 21.6948 7.75953L21.6969 7.76127C23.2087 8.99325 24.0222 10.5339 24.0222 12.352C24.0222 14.159 23.1931 15.7862 21.5942 17.0397C23.8745 18.4566 25 20.351 25 22.8043C25 24.8523 24.1387 26.5828 22.4412 27.9356C20.7497 29.2836 18.6074 30 16.4871 30ZM12.9104 19.8815C11.8046 20.6648 11.2597 21.6748 11.2597 22.8512C11.2597 24.0229 11.8005 24.9885 12.912 25.822C13.954 26.5441 15.1438 26.9281 16.4871 26.9281C17.836 26.9281 19.0494 26.5645 20.0608 25.823L20.0633 25.8212C21.1977 25.0126 21.7403 24.025 21.7403 22.8512C21.7403 21.6774 21.1977 20.6897 20.0633 19.8811C19.0218 19.1358 17.8318 18.7509 16.4871 18.7509C15.141 18.7509 13.927 19.1363 12.9134 19.8793L12.9104 19.8815ZM13.5778 9.99281C12.6461 10.6404 12.186 11.4414 12.186 12.352C12.186 13.2673 12.6248 14.0892 13.5755 14.7331L13.584 14.7388C14.3882 15.3381 15.3687 15.6321 16.4871 15.6321C17.6005 15.6321 18.5596 15.3175 19.3963 14.7348C20.3279 14.0872 20.7883 13.286 20.7883 12.3754C20.7883 11.4602 20.3495 10.6382 19.3988 9.99436L19.3903 9.98861C18.5861 9.38933 17.6056 9.09538 16.4871 9.09538C15.3738 9.09538 14.4145 9.41004 13.5778 9.99281Z" fill="url(#paint1_linear_2026_40690)"/>
<path fill-rule="evenodd" clip-rule="evenodd" d="M28.2751 96.4259C26.9667 104.364 30.3278 113.34 38.313 115.855C45.1479 118.024 51.4639 115.255 55.3663 111.702C54.4866 118.047 50.1105 125.108 45.1704 128.085V130C48.3059 129.538 52.7497 129.239 57.6897 129.215C62.6298 129.192 67.051 129.423 70.209 129.838V127.923C65.2238 125.016 60.7575 118.024 59.7875 111.678C63.7351 115.163 70.0962 117.863 76.8859 115.601C84.8486 112.971 88.0969 103.948 86.6758 96.0336C84.4426 83.4577 68.9007 76.466 59.2462 61.9057C58.4567 60.7058 56.0656 60.6827 55.3212 61.9288C47.4262 75.4276 30.3503 83.8039 28.2751 96.4259Z" fill="url(#paint2_linear_2026_40690)"/>
<path fill-rule="evenodd" clip-rule="evenodd" d="M6.0979 47.322C5.63223 50.083 6.82853 53.2052 9.67074 54.08C12.1035 54.8345 14.3516 53.8713 15.7406 52.6353C15.4274 54.8425 13.8698 57.2985 12.1115 58.3338V59C13.2275 58.8395 14.8092 58.7351 16.5675 58.7271C18.3258 58.7191 19.8995 58.7993 21.0235 58.9438V58.2777C19.2492 57.2664 17.6595 54.8345 17.3142 52.6273C18.7193 53.8392 20.9834 54.7783 23.4001 53.9917C26.2343 53.0768 27.3904 49.9386 26.8846 47.1856C26.0897 42.8114 20.5579 40.3795 17.1215 35.315C16.8405 34.8977 15.9894 34.8896 15.7245 35.3231C12.9144 40.0183 6.83656 42.9318 6.0979 47.322Z" fill="url(#paint3_linear_2026_40690)"/>
<defs>
<linearGradient id="paint0_linear_2026_40690" x1="50" y1="140" x2="50" y2="0" gradientUnits="userSpaceOnUse">
<stop stop-color="#E9E9E9"/>
<stop offset="0.99" stop-color="white"/>
</linearGradient>
<linearGradient id="paint1_linear_2026_40690" x1="16.5067" y1="5.52991" x2="16.5067" y2="30.1398" gradientUnits="userSpaceOnUse">
<stop stop-color="#505050"/>
<stop offset="1"/>
</linearGradient>
<linearGradient id="paint2_linear_2026_40690" x1="57.5234" y1="59.6485" x2="57.5234" y2="130.402" gradientUnits="userSpaceOnUse">
<stop stop-color="#505050"/>
<stop offset="1"/>
</linearGradient>
<linearGradient id="paint3_linear_2026_40690" x1="16.5083" y1="34.5299" x2="16.5083" y2="59.1398" gradientUnits="userSpaceOnUse">
<stop stop-color="#505050"/>
<stop offset="1"/>
</linearGradient>
</defs>
</svg>
