<svg width="100" height="140" viewBox="0 0 100 140" fill="none" xmlns="http://www.w3.org/2000/svg">
<path fill-rule="evenodd" clip-rule="evenodd" d="M0 140L0 2.25306e-05C33.3333 -0.000186086 66.6667 -0.000185124 100 2.25306e-05V140C66.6667 140 33.3333 140 0 140Z" fill="url(#paint0_linear_2026_40718)"/>
<path fill-rule="evenodd" clip-rule="evenodd" d="M6.00009 47.3456C5.98523 45.2084 7.78352 43.4655 10.0202 43.4497C11.4098 43.4418 12.8143 44.3645 13.6762 45.4134C14.1593 46.0049 14.3696 45.784 15.1127 45.784C15.1201 44.4828 15.1327 43.9387 14.2856 43.0475C13.3642 42.0775 12.5988 40.6579 12.5913 39.2384C12.5765 36.7069 14.4342 35.0159 16.5669 35.0001C18.6921 34.9843 20.2823 36.6596 20.3046 39.1911C20.3121 40.6106 19.569 42.0381 18.6624 43.0238C17.8301 43.9229 17.8475 44.5222 17.8549 45.784C18.6203 45.8235 18.8259 45.9891 19.3015 45.3897C20.1486 44.3251 21.5456 43.3866 22.9352 43.3787C25.1645 43.363 26.985 45.0822 26.9999 47.2194C27.0148 49.3566 25.2165 51.0995 22.9798 51.1152C21.5902 51.1231 20.1857 50.2004 19.3238 49.1515C18.8407 48.5601 18.598 48.6595 17.8549 48.6595C17.4899 51.8434 18.1786 55.7455 21.0593 57.3849V58C20.0784 57.8659 18.1125 57.7871 16.5669 57.8028C15.0212 57.8107 12.9444 57.858 11.9561 58V57.3849C14.8133 55.7003 15.537 51.8668 15.1127 48.6595C14.3399 48.6595 14.1741 48.5837 13.6985 49.1831C12.8514 50.2477 11.4544 51.1862 10.0648 51.1941C7.83553 51.2099 6.01495 49.4906 6.00009 47.3534V47.3456Z" fill="url(#paint1_linear_2026_40718)"/>
<path fill-rule="evenodd" clip-rule="evenodd" d="M8.77709 25.7326L11.3613 24.2054L11.4775 24.3999C12.4965 26.1055 13.7761 26.9433 15.2941 26.9433C16.4796 26.9433 17.4343 26.4781 18.1769 25.5432C18.925 24.6013 19.4668 23.1701 19.7832 21.2257C18.5144 22.2476 17.0537 22.7726 15.4764 22.7726C13.3345 22.7726 11.5167 21.9105 10.0838 20.197C8.70385 18.5383 8 16.5902 8 14.4094C8 12.2306 8.70224 10.2598 10.0825 8.62329C11.4933 6.86178 13.3124 6 15.4536 6C16.5719 6 17.7865 6.11607 18.9265 6.68451C20.0726 7.256 21.1221 8.27387 21.9281 10.0372C23.0875 12.5577 22.9984 15.2581 22.9984 17.9654C22.9984 21.1062 22.4935 23.7767 21.4937 25.8733C20.8416 27.2535 20.0076 28.2888 18.9739 28.978C17.9394 29.6677 16.7206 30 15.3169 30H15.2941C12.624 30 10.4826 28.6039 8.89965 25.9389L8.77709 25.7326ZM12.1678 10.7695C11.3571 11.8128 10.9415 13.0308 10.9415 14.3863C10.9415 15.7418 11.3571 16.9599 12.1678 18.0031L12.1694 18.0052C13.0402 19.152 14.1603 19.7159 15.4536 19.7159C16.5731 19.7159 17.5409 19.2827 18.3667 18.4247C19.0854 17.652 19.59 16.7015 19.8779 15.5441C20.1442 13.1832 19.7547 11.4684 18.8168 10.3878C18.0489 9.52394 16.9083 9.05675 15.4764 9.05675H15.4536C14.1381 9.05675 13.0406 9.62004 12.1694 10.7674L12.1678 10.7695Z" fill="url(#paint2_linear_2026_40718)"/>
<path fill-rule="evenodd" clip-rule="evenodd" d="M30.0002 97.8161C29.9599 91.962 34.841 87.1881 40.912 87.1449C44.6838 87.1233 48.4958 89.6507 50.8355 92.5237C52.1465 94.1438 52.7175 93.5388 54.7345 93.5388C54.7547 89.9746 54.7888 88.4842 52.4894 86.0432C49.9884 83.3862 47.9109 79.4979 47.8908 75.6095C47.8504 68.6754 52.8928 64.0435 58.6815 64.0003C64.45 63.9571 68.7664 68.5458 68.8269 75.4799C68.847 79.3682 66.8301 83.2782 64.3694 85.9784C62.1104 88.441 62.1574 90.0826 62.1776 93.5388C64.255 93.6469 64.8131 94.1006 66.104 92.4589C68.4033 89.5426 72.1952 86.972 75.9669 86.9504C82.0178 86.9072 86.9594 91.6164 86.9998 97.4705C87.0401 103.325 82.159 108.099 76.088 108.142C72.3162 108.163 68.5042 105.636 66.1645 102.763C64.8535 101.143 64.1945 101.415 62.1776 101.415C61.187 110.136 63.0561 120.825 70.8752 125.315V127C68.2128 126.633 62.8768 126.417 58.6815 126.46C54.4862 126.482 48.849 126.611 46.1664 127V125.315C53.9217 120.701 55.8861 110.2 54.7345 101.415C52.6368 101.415 52.1869 101.208 50.896 102.849C48.5967 105.766 44.8048 108.336 41.0331 108.358C34.9822 108.401 30.0406 103.692 30.0002 97.8377V97.8161Z" fill="url(#paint3_linear_2026_40718)"/>
<defs>
<linearGradient id="paint0_linear_2026_40718" x1="50" y1="140" x2="50" y2="0" gradientUnits="userSpaceOnUse">
<stop stop-color="#E9E9E9"/>
<stop offset="0.99" stop-color="white"/>
</linearGradient>
<linearGradient id="paint1_linear_2026_40718" x1="16.5083" y1="34.5495" x2="16.5083" y2="58.1339" gradientUnits="userSpaceOnUse">
<stop stop-color="#505050"/>
<stop offset="1"/>
</linearGradient>
<linearGradient id="paint2_linear_2026_40718" x1="15.5059" y1="5.52991" x2="15.5059" y2="30.1398" gradientUnits="userSpaceOnUse">
<stop stop-color="#505050"/>
<stop offset="1"/>
</linearGradient>
<linearGradient id="paint3_linear_2026_40718" x1="58.5226" y1="62.766" x2="58.5226" y2="127.367" gradientUnits="userSpaceOnUse">
<stop stop-color="#505050"/>
<stop offset="1"/>
</linearGradient>
</defs>
</svg>
