<svg width="100" height="140" viewBox="0 0 100 140" fill="none" xmlns="http://www.w3.org/2000/svg">
<path fill-rule="evenodd" clip-rule="evenodd" d="M0 140L0 2.25306e-05C33.3333 -0.000186086 66.6667 -0.000185124 100 2.25306e-05V140C66.6667 140 33.3333 140 0 140Z" fill="url(#paint0_linear_2026_40795)"/>
<path fill-rule="evenodd" clip-rule="evenodd" d="M8.77709 25.7326L11.3613 24.2054L11.4775 24.3999C12.4965 26.1055 13.7761 26.9433 15.2941 26.9433C16.4796 26.9433 17.4343 26.4781 18.1769 25.5432C18.925 24.6013 19.4668 23.1701 19.7832 21.2257C18.5144 22.2476 17.0537 22.7726 15.4764 22.7726C13.3345 22.7726 11.5167 21.9105 10.0838 20.197C8.70385 18.5383 8 16.5902 8 14.4094C8 12.2306 8.70224 10.2598 10.0825 8.62329C11.4933 6.86178 13.3124 6 15.4536 6C16.5719 6 17.7865 6.11607 18.9265 6.68451C20.0726 7.256 21.1221 8.27387 21.9281 10.0372C23.0875 12.5577 22.9984 15.2581 22.9984 17.9654C22.9984 21.1062 22.4935 23.7767 21.4937 25.8733C20.8416 27.2535 20.0076 28.2888 18.9739 28.978C17.9394 29.6677 16.7206 30 15.3169 30H15.2941C12.624 30 10.4826 28.6039 8.89965 25.9389L8.77709 25.7326ZM12.1678 10.7695C11.3571 11.8128 10.9415 13.0308 10.9415 14.3863C10.9415 15.7418 11.3571 16.9599 12.1678 18.0031L12.1694 18.0052C13.0402 19.152 14.1603 19.7159 15.4536 19.7159C16.5731 19.7159 17.5409 19.2827 18.3667 18.4247C19.0854 17.652 19.59 16.7015 19.8779 15.5441C20.1442 13.1832 19.7547 11.4684 18.8168 10.3878C18.0489 9.52394 16.9083 9.05675 15.4764 9.05675H15.4536C14.1381 9.05675 13.0406 9.62004 12.1694 10.7674L12.1678 10.7695Z" fill="url(#paint1_linear_2026_40795)"/>
<path fill-rule="evenodd" clip-rule="evenodd" d="M72.4996 75.3054C77.8786 81.586 82.6854 87.6251 86.485 92.7638C87.1717 93.6861 87.1717 94.8939 86.485 95.8162C82.754 100.999 78.0388 107.104 72.7514 113.45C67.7844 119.401 63.0006 124.76 58.8347 129.108C57.7131 130.294 55.7675 130.294 54.6231 129.13C50.4114 124.848 45.536 119.555 40.5004 113.648C35.1214 107.367 30.3146 101.328 26.515 96.1895C25.8283 95.2672 25.8283 94.0594 26.515 93.1371C30.246 87.9545 34.9612 81.8496 40.2486 75.5031C45.1927 69.5738 49.9765 64.2155 54.1195 59.8894C55.264 58.7035 57.2325 58.7035 58.3769 59.8894C61.7188 63.3811 68.2422 70.3205 72.5225 75.2835L72.4996 75.3054Z" fill="url(#paint2_linear_2026_40795)"/>
<path fill-rule="evenodd" clip-rule="evenodd" d="M22.0081 40.5117C23.8598 42.6347 25.5146 44.6761 26.8227 46.4131C27.0591 46.7249 27.0591 47.1332 26.8227 47.4449C25.5383 49.1968 23.915 51.2604 22.0947 53.4057C20.3848 55.4174 18.7379 57.2286 17.3037 58.6984C16.9176 59.0993 16.2478 59.0993 15.8538 58.7059C14.4039 57.2583 12.7255 55.4694 10.9919 53.4725C9.14015 51.3495 7.48537 49.3081 6.1773 47.5711C5.9409 47.2593 5.9409 46.8511 6.1773 46.5393C7.46173 44.7874 9.08499 42.7238 10.9053 40.5785C12.6073 38.5743 14.2542 36.763 15.6805 35.3006C16.0745 34.8998 16.7522 34.8998 17.1462 35.3006C18.2966 36.4809 20.5424 38.8266 22.016 40.5043L22.0081 40.5117Z" fill="url(#paint3_linear_2026_40795)"/>
<defs>
<linearGradient id="paint0_linear_2026_40795" x1="50" y1="140" x2="50" y2="0" gradientUnits="userSpaceOnUse">
<stop stop-color="#E9E9E9"/>
<stop offset="0.99" stop-color="white"/>
</linearGradient>
<linearGradient id="paint1_linear_2026_40795" x1="10.4006" y1="6.50106" x2="25.6121" y2="26.2031" gradientUnits="userSpaceOnUse">
<stop stop-color="#DD1D24"/>
<stop offset="0.99" stop-color="#B90000"/>
</linearGradient>
<linearGradient id="paint2_linear_2026_40795" x1="35.7623" y1="60.4823" x2="75.4826" y2="131.202" gradientUnits="userSpaceOnUse">
<stop stop-color="#DD1D24"/>
<stop offset="0.99" stop-color="#B90000"/>
</linearGradient>
<linearGradient id="paint3_linear_2026_40795" x1="9.36079" y1="35.5011" x2="22.6587" y2="59.614" gradientUnits="userSpaceOnUse">
<stop stop-color="#DD1D24"/>
<stop offset="0.99" stop-color="#B90000"/>
</linearGradient>
</defs>
</svg>
