<svg width="100" height="140" viewBox="0 0 100 140" fill="none" xmlns="http://www.w3.org/2000/svg">
<path fill-rule="evenodd" clip-rule="evenodd" d="M0 140L0 2.25306e-05C33.3333 -0.000186086 66.6667 -0.000185124 100 2.25306e-05V140C66.6667 140 33.3333 140 0 140Z" fill="url(#paint0_linear_2026_40634)"/>
<path fill-rule="evenodd" clip-rule="evenodd" d="M9.77709 25.7326L12.3613 24.2054L12.4775 24.3999C13.4965 26.1055 14.7761 26.9433 16.2941 26.9433C17.4796 26.9433 18.4343 26.4781 19.1769 25.5432C19.925 24.6013 20.4668 23.1701 20.7832 21.2257C19.5144 22.2476 18.0537 22.7726 16.4764 22.7726C14.3345 22.7726 12.5167 21.9105 11.0838 20.197C9.70385 18.5383 9 16.5902 9 14.4094C9 12.2306 9.70224 10.2598 11.0825 8.62329C12.4933 6.86178 14.3124 6 16.4536 6C17.5719 6 18.7865 6.11607 19.9265 6.68451C21.0726 7.256 22.1221 8.27387 22.9281 10.0372C24.0875 12.5577 23.9984 15.2581 23.9984 17.9654C23.9984 21.1062 23.4935 23.7767 22.4937 25.8733C21.8416 27.2535 21.0076 28.2888 19.9739 28.978C18.9394 29.6677 17.7206 30 16.3169 30H16.2941C13.624 30 11.4826 28.6039 9.89965 25.9389L9.77709 25.7326ZM13.1678 10.7695C12.3571 11.8128 11.9415 13.0308 11.9415 14.3863C11.9415 15.7418 12.3571 16.9599 13.1678 18.0031L13.1694 18.0052C14.0402 19.152 15.1603 19.7159 16.4536 19.7159C17.5731 19.7159 18.5409 19.2827 19.3667 18.4247C20.0854 17.652 20.59 16.7015 20.8779 15.5441C21.1442 13.1832 20.7547 11.4684 19.8168 10.3878C19.0489 9.52394 17.9083 9.05675 16.4764 9.05675H16.4536C15.1381 9.05675 14.0406 9.62004 13.1694 10.7674L13.1678 10.7695Z" fill="url(#paint1_linear_2026_40634)"/>
<path fill-rule="evenodd" clip-rule="evenodd" d="M24.3393 87.9515C22.8431 78.7364 26.2888 68.2565 34.8125 65.1848C43.6536 62.0002 51.7693 67.3079 55.4417 72.4801C59.0462 67.2627 67.0938 61.8195 75.9802 64.8912C84.5266 67.8274 88.1084 78.2621 86.7029 87.4998C84.5039 102.181 69.3154 113.519 57.822 126.099C56.7339 127.274 54.7163 127.319 53.6508 126.122C42.8148 113.948 26.7422 102.587 24.3619 87.9515H24.3393Z" fill="url(#paint2_linear_2026_40634)"/>
<path fill-rule="evenodd" clip-rule="evenodd" d="M6.11309 42.9838C5.61436 39.9121 6.76294 36.4188 9.60418 35.3949C12.5512 34.3334 15.2564 36.1026 16.4806 37.8267C17.6821 36.0876 20.3646 34.2732 23.3267 35.2971C26.1755 36.2758 27.3695 39.754 26.901 42.8332C26.168 47.7269 21.1051 51.5063 17.274 55.6997C16.9113 56.0912 16.2388 56.1063 15.8836 55.7073C12.2716 51.6493 6.91407 47.8624 6.12064 42.9838H6.11309Z" fill="url(#paint3_linear_2026_40634)"/>
<defs>
<linearGradient id="paint0_linear_2026_40634" x1="50" y1="140" x2="50" y2="0" gradientUnits="userSpaceOnUse">
<stop stop-color="#E9E9E9"/>
<stop offset="0.99" stop-color="white"/>
</linearGradient>
<linearGradient id="paint1_linear_2026_40634" x1="11.4006" y1="6.50106" x2="26.6121" y2="26.2031" gradientUnits="userSpaceOnUse">
<stop stop-color="#DD1D24"/>
<stop offset="0.99" stop-color="#B90000"/>
</linearGradient>
<linearGradient id="paint2_linear_2026_40634" x1="34.0824" y1="65.3153" x2="66.392" y2="132.271" gradientUnits="userSpaceOnUse">
<stop stop-color="#DD1D24"/>
<stop offset="0.99" stop-color="#B90000"/>
</linearGradient>
<linearGradient id="paint3_linear_2026_40634" x1="9.36079" y1="35.4384" x2="20.1307" y2="57.7571" gradientUnits="userSpaceOnUse">
<stop stop-color="#DD1D24"/>
<stop offset="0.99" stop-color="#B90000"/>
</linearGradient>
</defs>
</svg>
