<svg width="100" height="140" viewBox="0 0 100 140" fill="none" xmlns="http://www.w3.org/2000/svg">
<path fill-rule="evenodd" clip-rule="evenodd" d="M0 140L0 2.25306e-05C33.3333 -0.000186086 66.6667 -0.000185124 100 2.25306e-05V140C66.6667 140 33.3333 140 0 140Z" fill="url(#paint0_linear_2026_40683)"/>
<path fill-rule="evenodd" clip-rule="evenodd" d="M8.77709 25.7326L11.3613 24.2054L11.4775 24.3999C12.4965 26.1055 13.7761 26.9433 15.2941 26.9433C16.4796 26.9433 17.4343 26.4781 18.1769 25.5432C18.925 24.6013 19.4668 23.1701 19.7832 21.2257C18.5144 22.2476 17.0537 22.7726 15.4764 22.7726C13.3345 22.7726 11.5167 21.9105 10.0838 20.197C8.70385 18.5383 8 16.5902 8 14.4094C8 12.2306 8.70224 10.2598 10.0825 8.62329C11.4933 6.86178 13.3124 6 15.4536 6C16.5719 6 17.7865 6.11607 18.9265 6.68451C20.0726 7.256 21.1221 8.27387 21.9281 10.0372C23.0875 12.5577 22.9984 15.2581 22.9984 17.9654C22.9984 21.1062 22.4935 23.7767 21.4937 25.8733C20.8416 27.2535 20.0076 28.2888 18.9739 28.978C17.9394 29.6677 16.7206 30 15.3169 30H15.2941C12.624 30 10.4826 28.6039 8.89965 25.9389L8.77709 25.7326ZM12.1678 10.7695C11.3571 11.8128 10.9415 13.0308 10.9415 14.3863C10.9415 15.7418 11.3571 16.9599 12.1678 18.0031L12.1694 18.0052C13.0402 19.152 14.1603 19.7159 15.4536 19.7159C16.5731 19.7159 17.5409 19.2827 18.3667 18.4247C19.0854 17.652 19.59 16.7015 19.8779 15.5441C20.1442 13.1832 19.7547 11.4684 18.8168 10.3878C18.0489 9.52394 16.9083 9.05675 15.4764 9.05675H15.4536C14.1381 9.05675 13.0406 9.62004 12.1694 10.7674L12.1678 10.7695Z" fill="url(#paint1_linear_2026_40683)"/>
<path fill-rule="evenodd" clip-rule="evenodd" d="M28.2751 96.4259C26.9667 104.364 30.3278 113.34 38.313 115.855C45.1479 118.024 51.4639 115.255 55.3663 111.702C54.4866 118.047 50.1105 125.108 45.1704 128.085V130C48.3059 129.538 52.7497 129.239 57.6897 129.215C62.6298 129.192 67.051 129.423 70.209 129.838V127.923C65.2238 125.016 60.7575 118.024 59.7875 111.678C63.7351 115.163 70.0962 117.863 76.8859 115.601C84.8486 112.971 88.0969 103.948 86.6758 96.0336C84.4426 83.4577 68.9007 76.466 59.2462 61.9057C58.4567 60.7058 56.0656 60.6827 55.3212 61.9288C47.4262 75.4276 30.3503 83.8039 28.2751 96.4259Z" fill="url(#paint2_linear_2026_40683)"/>
<path fill-rule="evenodd" clip-rule="evenodd" d="M6.0979 47.322C5.63223 50.083 6.82853 53.2052 9.67074 54.08C12.1035 54.8345 14.3516 53.8713 15.7406 52.6353C15.4274 54.8425 13.8698 57.2985 12.1115 58.3338V59C13.2275 58.8395 14.8092 58.7351 16.5675 58.7271C18.3258 58.7191 19.8995 58.7993 21.0235 58.9438V58.2777C19.2492 57.2664 17.6595 54.8345 17.3142 52.6273C18.7193 53.8392 20.9834 54.7783 23.4001 53.9917C26.2343 53.0768 27.3904 49.9386 26.8846 47.1856C26.0897 42.8114 20.5579 40.3795 17.1215 35.315C16.8405 34.8977 15.9894 34.8896 15.7245 35.3231C12.9144 40.0183 6.83656 42.9318 6.0979 47.322Z" fill="url(#paint3_linear_2026_40683)"/>
<defs>
<linearGradient id="paint0_linear_2026_40683" x1="50" y1="140" x2="50" y2="0" gradientUnits="userSpaceOnUse">
<stop stop-color="#E9E9E9"/>
<stop offset="0.99" stop-color="white"/>
</linearGradient>
<linearGradient id="paint1_linear_2026_40683" x1="15.5059" y1="5.52991" x2="15.5059" y2="30.1398" gradientUnits="userSpaceOnUse">
<stop stop-color="#505050"/>
<stop offset="1"/>
</linearGradient>
<linearGradient id="paint2_linear_2026_40683" x1="57.5234" y1="59.6485" x2="57.5234" y2="130.402" gradientUnits="userSpaceOnUse">
<stop stop-color="#505050"/>
<stop offset="1"/>
</linearGradient>
<linearGradient id="paint3_linear_2026_40683" x1="16.5083" y1="34.5299" x2="16.5083" y2="59.1398" gradientUnits="userSpaceOnUse">
<stop stop-color="#505050"/>
<stop offset="1"/>
</linearGradient>
</defs>
</svg>
