<svg width="100" height="140" viewBox="0 0 100 140" fill="none" xmlns="http://www.w3.org/2000/svg">
<path fill-rule="evenodd" clip-rule="evenodd" d="M0 140L0 2.25306e-05C33.3333 -0.000186086 66.6667 -0.000185124 100 2.25306e-05V140C66.6667 140 33.3333 140 0 140Z" fill="url(#paint0_linear_2026_40530)"/>
<path fill-rule="evenodd" clip-rule="evenodd" d="M13.5607 27.1688L15.4626 27.1562V29.9874H8V27.1577H10.1328V8.79902H8.01352V6H15.4761V8.79902H13.3991V17.0974L19.2825 8.79902H17.4035V6H25V8.79902H22.9802L17.6391 16.2161L23.0057 27.1703H25V30H17.4035V27.1703H19.3626L15.5602 19.3406L13.5607 22.2054V27.1688Z" fill="url(#paint1_linear_2026_40530)"/>
<path fill-rule="evenodd" clip-rule="evenodd" d="M24.3393 87.9515C22.8431 78.7364 26.2888 68.2565 34.8125 65.1848C43.6536 62.0002 51.7693 67.3079 55.4417 72.4801C59.0462 67.2627 67.0938 61.8195 75.9802 64.8912C84.5266 67.8274 88.1084 78.2621 86.7029 87.4998C84.5039 102.181 69.3154 113.519 57.822 126.099C56.7339 127.274 54.7163 127.319 53.6508 126.122C42.8148 113.948 26.7422 102.587 24.3619 87.9515H24.3393Z" fill="url(#paint2_linear_2026_40530)"/>
<path fill-rule="evenodd" clip-rule="evenodd" d="M6.11309 42.9838C5.61436 39.9121 6.76294 36.4188 9.60418 35.3949C12.5512 34.3334 15.2564 36.1026 16.4806 37.8267C17.6821 36.0876 20.3646 34.2732 23.3267 35.2971C26.1755 36.2758 27.3695 39.754 26.901 42.8332C26.168 47.7269 21.1051 51.5063 17.274 55.6997C16.9113 56.0912 16.2388 56.1063 15.8836 55.7073C12.2716 51.6493 6.91407 47.8624 6.12064 42.9838H6.11309Z" fill="url(#paint3_linear_2026_40530)"/>
<defs>
<linearGradient id="paint0_linear_2026_40530" x1="50" y1="140" x2="50" y2="0" gradientUnits="userSpaceOnUse">
<stop stop-color="#E9E9E9"/>
<stop offset="0.99" stop-color="white"/>
</linearGradient>
<linearGradient id="paint1_linear_2026_40530" x1="10.7206" y1="6.50106" x2="25.3527" y2="27.9795" gradientUnits="userSpaceOnUse">
<stop stop-color="#DD1D24"/>
<stop offset="0.99" stop-color="#B90000"/>
</linearGradient>
<linearGradient id="paint2_linear_2026_40530" x1="34.0824" y1="65.3153" x2="66.392" y2="132.271" gradientUnits="userSpaceOnUse">
<stop stop-color="#DD1D24"/>
<stop offset="0.99" stop-color="#B90000"/>
</linearGradient>
<linearGradient id="paint3_linear_2026_40530" x1="9.36079" y1="35.4384" x2="20.1307" y2="57.7571" gradientUnits="userSpaceOnUse">
<stop stop-color="#DD1D24"/>
<stop offset="0.99" stop-color="#B90000"/>
</linearGradient>
</defs>
</svg>
