<svg width="100" height="140" viewBox="0 0 100 140" fill="none" xmlns="http://www.w3.org/2000/svg">
<path fill-rule="evenodd" clip-rule="evenodd" d="M0 140L0 2.25306e-05C33.3333 -0.000186086 66.6667 -0.000185124 100 2.25306e-05V140C66.6667 140 33.3333 140 0 140Z" fill="url(#paint0_linear_2026_40767)"/>
<path fill-rule="evenodd" clip-rule="evenodd" d="M11.8025 28.4068C10.4371 27.3141 9.71424 26.0065 9.71424 24.5103V22.4641H8V19.7812C8.56627 19.7812 9.13179 19.7386 9.69689 19.7038L9.71424 19.7027V11.5127C9.71424 9.99441 10.4363 8.68689 11.8017 7.59388C13.1152 6.5238 14.6194 6 16.2792 6C17.9411 6 19.4702 6.54808 20.8077 7.61614C22.151 8.68881 22.8442 9.99752 22.8442 11.5127V24.5334C22.8442 25.1645 22.7081 25.7722 22.4116 26.376L22.421 26.3819C22.7047 26.5494 22.9615 26.6539 23.2149 26.7179H25V29.516C24.1345 29.516 23.2493 29.5337 22.3945 29.374L22.3914 29.3734C21.7865 29.2514 21.1892 28.9847 20.6002 28.6047L20.5881 28.5968L20.5648 28.579L20.5391 28.5981C19.2552 29.5236 17.8074 30 16.2792 30C14.617 30 13.1136 29.4514 11.8025 28.4068ZM13.9152 26.2527L13.9181 26.2547C14.6638 26.8061 15.4495 27.0866 16.2792 27.0866C16.9361 27.0866 17.5664 26.9155 18.1497 26.5518L14.1322 23.0306C13.8047 22.74 13.3532 22.5265 12.8243 22.4625L12.8185 22.4618L12.7666 22.4541V24.3091C12.7666 25.182 13.1522 25.7067 13.9152 26.2527ZM13.9211 9.69693L13.9181 9.69919C13.1728 10.2502 12.8185 10.8559 12.8185 11.4897V19.666H12.8497C14.1151 19.8093 15.3709 20.3354 16.6162 21.2286C17.4097 21.7919 18.4326 22.6772 19.6323 23.8805L19.6356 23.8838L19.688 23.9386V11.5127C19.688 10.8746 19.355 10.2698 18.6144 9.72221L18.6114 9.72C17.8982 9.17447 17.0059 8.91341 16.1705 8.91341C15.356 8.91341 14.5779 9.19449 13.9211 9.69693Z" fill="url(#paint1_linear_2026_40767)"/>
<path fill-rule="evenodd" clip-rule="evenodd" d="M72.4996 75.3054C77.8786 81.586 82.6854 87.6251 86.485 92.7638C87.1717 93.6861 87.1717 94.8939 86.485 95.8162C82.754 100.999 78.0388 107.104 72.7514 113.45C67.7844 119.401 63.0006 124.76 58.8347 129.108C57.7131 130.294 55.7675 130.294 54.6231 129.13C50.4114 124.848 45.536 119.555 40.5004 113.648C35.1214 107.367 30.3146 101.328 26.515 96.1895C25.8283 95.2672 25.8283 94.0594 26.515 93.1371C30.246 87.9545 34.9612 81.8496 40.2486 75.5031C45.1927 69.5738 49.9765 64.2155 54.1195 59.8894C55.264 58.7035 57.2325 58.7035 58.3769 59.8894C61.7188 63.3811 68.2422 70.3205 72.5225 75.2835L72.4996 75.3054Z" fill="url(#paint2_linear_2026_40767)"/>
<path fill-rule="evenodd" clip-rule="evenodd" d="M22.0081 40.5117C23.8598 42.6347 25.5146 44.6761 26.8227 46.4131C27.0591 46.7249 27.0591 47.1332 26.8227 47.4449C25.5383 49.1968 23.915 51.2604 22.0947 53.4057C20.3848 55.4174 18.7379 57.2286 17.3037 58.6984C16.9176 59.0993 16.2478 59.0993 15.8538 58.7059C14.4039 57.2583 12.7255 55.4694 10.9919 53.4725C9.14015 51.3495 7.48537 49.3081 6.1773 47.5711C5.9409 47.2593 5.9409 46.8511 6.1773 46.5393C7.46173 44.7874 9.08499 42.7238 10.9053 40.5785C12.6073 38.5743 14.2542 36.763 15.6805 35.3006C16.0745 34.8998 16.7522 34.8998 17.1462 35.3006C18.2966 36.4809 20.5424 38.8266 22.016 40.5043L22.0081 40.5117Z" fill="url(#paint3_linear_2026_40767)"/>
<defs>
<linearGradient id="paint0_linear_2026_40767" x1="50" y1="140" x2="50" y2="0" gradientUnits="userSpaceOnUse">
<stop stop-color="#E9E9E9"/>
<stop offset="0.99" stop-color="white"/>
</linearGradient>
<linearGradient id="paint1_linear_2026_40767" x1="10.7206" y1="6.50106" x2="25.3527" y2="27.9795" gradientUnits="userSpaceOnUse">
<stop stop-color="#DD1D24"/>
<stop offset="0.99" stop-color="#B90000"/>
</linearGradient>
<linearGradient id="paint2_linear_2026_40767" x1="35.7623" y1="60.4823" x2="75.4826" y2="131.202" gradientUnits="userSpaceOnUse">
<stop stop-color="#DD1D24"/>
<stop offset="0.99" stop-color="#B90000"/>
</linearGradient>
<linearGradient id="paint3_linear_2026_40767" x1="9.36079" y1="35.5011" x2="22.6587" y2="59.614" gradientUnits="userSpaceOnUse">
<stop stop-color="#DD1D24"/>
<stop offset="0.99" stop-color="#B90000"/>
</linearGradient>
</defs>
</svg>
