<svg width="100" height="140" viewBox="0 0 100 140" fill="none" xmlns="http://www.w3.org/2000/svg">
<path fill-rule="evenodd" clip-rule="evenodd" d="M0 140L0 2.25306e-05C33.3333 -0.000186086 66.6667 -0.000185124 100 2.25306e-05V140C66.6667 140 33.3333 140 0 140Z" fill="url(#paint0_linear_2026_40481)"/>
<path fill-rule="evenodd" clip-rule="evenodd" d="M11.8025 28.4068C10.4371 27.3141 9.71424 26.0065 9.71424 24.5103V22.4641H8V19.7812C8.56627 19.7812 9.13179 19.7386 9.69689 19.7038L9.71424 19.7027V11.5127C9.71424 9.99441 10.4363 8.68689 11.8017 7.59388C13.1152 6.5238 14.6194 6 16.2792 6C17.9411 6 19.4702 6.54808 20.8077 7.61614C22.151 8.68881 22.8442 9.99752 22.8442 11.5127V24.5334C22.8442 25.1645 22.7081 25.7722 22.4116 26.376L22.421 26.3819C22.7047 26.5494 22.9615 26.6539 23.2149 26.7179H25V29.516C24.1345 29.516 23.2493 29.5337 22.3945 29.374L22.3914 29.3734C21.7865 29.2514 21.1892 28.9847 20.6002 28.6047L20.5881 28.5968L20.5648 28.579L20.5391 28.5981C19.2552 29.5236 17.8074 30 16.2792 30C14.617 30 13.1136 29.4514 11.8025 28.4068ZM13.9152 26.2527L13.9181 26.2547C14.6638 26.8061 15.4495 27.0866 16.2792 27.0866C16.9361 27.0866 17.5664 26.9155 18.1497 26.5518L14.1322 23.0306C13.8047 22.74 13.3532 22.5265 12.8243 22.4625L12.8185 22.4618L12.7666 22.4541V24.3091C12.7666 25.182 13.1522 25.7067 13.9152 26.2527ZM13.9211 9.69693L13.9181 9.69919C13.1728 10.2502 12.8185 10.8559 12.8185 11.4897V19.666H12.8497C14.1151 19.8093 15.3709 20.3354 16.6162 21.2286C17.4097 21.7919 18.4326 22.6772 19.6323 23.8805L19.6356 23.8838L19.688 23.9386V11.5127C19.688 10.8746 19.355 10.2698 18.6144 9.72221L18.6114 9.72C17.8982 9.17447 17.0059 8.91341 16.1705 8.91341C15.356 8.91341 14.5779 9.19449 13.9211 9.69693Z" fill="url(#paint1_linear_2026_40481)"/>
<path fill-rule="evenodd" clip-rule="evenodd" d="M24.3393 87.9515C22.8431 78.7364 26.2888 68.2565 34.8125 65.1848C43.6536 62.0002 51.7693 67.3079 55.4417 72.4801C59.0462 67.2627 67.0938 61.8195 75.9802 64.8912C84.5266 67.8274 88.1084 78.2621 86.7029 87.4998C84.5039 102.181 69.3154 113.519 57.822 126.099C56.7339 127.274 54.7163 127.319 53.6508 126.122C42.8148 113.948 26.7422 102.587 24.3619 87.9515H24.3393Z" fill="url(#paint2_linear_2026_40481)"/>
<path fill-rule="evenodd" clip-rule="evenodd" d="M6.11309 42.9838C5.61436 39.9121 6.76294 36.4188 9.60418 35.3949C12.5512 34.3334 15.2564 36.1026 16.4806 37.8267C17.6821 36.0876 20.3646 34.2732 23.3267 35.2971C26.1755 36.2758 27.3695 39.754 26.901 42.8332C26.168 47.7269 21.1051 51.5063 17.274 55.6997C16.9113 56.0912 16.2388 56.1063 15.8836 55.7073C12.2716 51.6493 6.91407 47.8624 6.12064 42.9838H6.11309Z" fill="url(#paint3_linear_2026_40481)"/>
<defs>
<linearGradient id="paint0_linear_2026_40481" x1="50" y1="140" x2="50" y2="0" gradientUnits="userSpaceOnUse">
<stop stop-color="#E9E9E9"/>
<stop offset="0.99" stop-color="white"/>
</linearGradient>
<linearGradient id="paint1_linear_2026_40481" x1="10.7206" y1="6.50106" x2="25.3527" y2="27.9795" gradientUnits="userSpaceOnUse">
<stop stop-color="#DD1D24"/>
<stop offset="0.99" stop-color="#B90000"/>
</linearGradient>
<linearGradient id="paint2_linear_2026_40481" x1="34.0824" y1="65.3153" x2="66.392" y2="132.271" gradientUnits="userSpaceOnUse">
<stop stop-color="#DD1D24"/>
<stop offset="0.99" stop-color="#B90000"/>
</linearGradient>
<linearGradient id="paint3_linear_2026_40481" x1="9.36079" y1="35.4384" x2="20.1307" y2="57.7571" gradientUnits="userSpaceOnUse">
<stop stop-color="#DD1D24"/>
<stop offset="0.99" stop-color="#B90000"/>
</linearGradient>
</defs>
</svg>
