<svg width="100" height="140" viewBox="0 0 100 140" fill="none" xmlns="http://www.w3.org/2000/svg">
<path fill-rule="evenodd" clip-rule="evenodd" d="M0 140L0 2.25306e-05C33.3333 -0.000186086 66.6667 -0.000185124 100 2.25306e-05V140C66.6667 140 33.3333 140 0 140Z" fill="url(#paint0_linear_2026_40648)"/>
<path fill-rule="evenodd" clip-rule="evenodd" d="M11.8025 28.4068C10.4371 27.3141 9.71424 26.0065 9.71424 24.5103V22.4641H8V19.7812C8.56627 19.7812 9.13179 19.7386 9.69689 19.7038L9.71424 19.7027V11.5127C9.71424 9.99441 10.4363 8.68689 11.8017 7.59388C13.1152 6.5238 14.6194 6 16.2792 6C17.9411 6 19.4702 6.54808 20.8077 7.61614C22.151 8.68881 22.8442 9.99752 22.8442 11.5127V24.5334C22.8442 25.1645 22.7081 25.7722 22.4116 26.376L22.421 26.3819C22.7047 26.5494 22.9615 26.6539 23.2149 26.7179H25V29.516C24.1345 29.516 23.2493 29.5337 22.3945 29.374L22.3914 29.3734C21.7865 29.2514 21.1892 28.9847 20.6002 28.6047L20.5881 28.5968L20.5648 28.579L20.5391 28.5981C19.2552 29.5236 17.8074 30 16.2792 30C14.617 30 13.1136 29.4514 11.8025 28.4068ZM13.9152 26.2527L13.9181 26.2547C14.6638 26.8061 15.4495 27.0866 16.2792 27.0866C16.9361 27.0866 17.5664 26.9155 18.1497 26.5518L14.1322 23.0306C13.8047 22.74 13.3532 22.5265 12.8243 22.4625L12.8185 22.4618L12.7666 22.4541V24.3091C12.7666 25.182 13.1522 25.7067 13.9152 26.2527ZM13.9211 9.69693L13.9181 9.69919C13.1728 10.2502 12.8185 10.8559 12.8185 11.4897V19.666H12.8497C14.1151 19.8093 15.3709 20.3354 16.6162 21.2286C17.4097 21.7919 18.4326 22.6772 19.6323 23.8805L19.6356 23.8838L19.688 23.9386V11.5127C19.688 10.8746 19.355 10.2698 18.6144 9.72221L18.6114 9.72C17.8982 9.17447 17.0059 8.91341 16.1705 8.91341C15.356 8.91341 14.5779 9.19449 13.9211 9.69693Z" fill="url(#paint1_linear_2026_40648)"/>
<path fill-rule="evenodd" clip-rule="evenodd" d="M28.2751 96.4259C26.9667 104.364 30.3278 113.34 38.313 115.855C45.1479 118.024 51.4639 115.255 55.3663 111.702C54.4866 118.047 50.1105 125.108 45.1704 128.085V130C48.3059 129.538 52.7497 129.239 57.6897 129.215C62.6298 129.192 67.051 129.423 70.209 129.838V127.923C65.2238 125.016 60.7575 118.024 59.7875 111.678C63.7351 115.163 70.0962 117.863 76.8859 115.601C84.8486 112.971 88.0969 103.948 86.6758 96.0336C84.4426 83.4577 68.9007 76.466 59.2462 61.9057C58.4567 60.7058 56.0656 60.6827 55.3212 61.9288C47.4262 75.4276 30.3503 83.8039 28.2751 96.4259Z" fill="url(#paint2_linear_2026_40648)"/>
<path fill-rule="evenodd" clip-rule="evenodd" d="M6.0979 47.322C5.63223 50.083 6.82853 53.2052 9.67074 54.08C12.1035 54.8345 14.3516 53.8713 15.7406 52.6353C15.4274 54.8425 13.8698 57.2985 12.1115 58.3338V59C13.2275 58.8395 14.8092 58.7351 16.5675 58.7271C18.3258 58.7191 19.8995 58.7993 21.0235 58.9438V58.2777C19.2492 57.2664 17.6595 54.8345 17.3142 52.6273C18.7193 53.8392 20.9834 54.7783 23.4001 53.9917C26.2343 53.0768 27.3904 49.9386 26.8846 47.1856C26.0897 42.8114 20.5579 40.3795 17.1215 35.315C16.8405 34.8977 15.9894 34.8896 15.7245 35.3231C12.9144 40.0183 6.83656 42.9318 6.0979 47.322Z" fill="url(#paint3_linear_2026_40648)"/>
<defs>
<linearGradient id="paint0_linear_2026_40648" x1="50" y1="140" x2="50" y2="0" gradientUnits="userSpaceOnUse">
<stop stop-color="#E9E9E9"/>
<stop offset="0.99" stop-color="white"/>
</linearGradient>
<linearGradient id="paint1_linear_2026_40648" x1="16.5067" y1="5.52991" x2="16.5067" y2="30.1398" gradientUnits="userSpaceOnUse">
<stop stop-color="#505050"/>
<stop offset="1"/>
</linearGradient>
<linearGradient id="paint2_linear_2026_40648" x1="57.5234" y1="59.6485" x2="57.5234" y2="130.402" gradientUnits="userSpaceOnUse">
<stop stop-color="#505050"/>
<stop offset="1"/>
</linearGradient>
<linearGradient id="paint3_linear_2026_40648" x1="16.5083" y1="34.5299" x2="16.5083" y2="59.1398" gradientUnits="userSpaceOnUse">
<stop stop-color="#505050"/>
<stop offset="1"/>
</linearGradient>
</defs>
</svg>
