<svg width="16" height="16" viewBox="0 0 16 16" fill="none" xmlns="http://www.w3.org/2000/svg">
<path d="M5.06742 9.05648C3.80907 9.93808 3 11.2906 3 12.8V13C3 13.5523 3.44772 14 4 14H13C13.5523 14 14 13.5523 14 13V12.8C14 11.2906 13.1909 9.93807 11.9326 9.05647C11.853 9.17118 11.7694 9.28215 11.6819 9.38905C11.0526 10.1582 10.2507 10.6821 9.37777 10.8943C8.50486 11.1065 7.60032 10.9977 6.77806 10.5814C6.11452 10.2455 5.5287 9.72154 5.06742 9.05648Z" fill="#fff"/>
<path fill-rule="evenodd" clip-rule="evenodd" d="M8.49998 2C8.99443 2 9.47781 2.2053 9.88893 2.58988C10.3 2.97446 10.6205 3.52117 10.8097 4.16071C10.999 4.80025 11.0484 5.50378 10.9519 6.18271C10.8555 6.86164 10.6174 7.48537 10.2677 7.97485C9.91812 8.46433 9.4726 8.79768 8.98765 8.93273C8.5027 9.06778 8.00018 8.99854 7.54336 8.73363C7.08655 8.46873 6.69604 8.02007 6.42134 7.4445C6.14664 6.86893 6 6.1922 6 5.49997C6 4.57172 6.26338 3.68147 6.73221 3.0251C7.20105 2.36873 7.83695 2 8.49998 2Z" fill="#fff"/>
</svg>
