<svg width="16" height="16" viewBox="0 0 16 16" fill="none" xmlns="http://www.w3.org/2000/svg">
<path fill-rule="evenodd" clip-rule="evenodd" d="M10.5 3H5.5C4.04131 3 2.64229 3.57939 1.61084 4.61084C0.57939 5.64229 0 7.04131 0 8.5C0 9.95869 0.57939 11.3577 1.61084 12.3892C2.64229 13.4206 4.04131 14 5.5 14H10.5C11.9587 14 13.3577 13.4206 14.3892 12.3892C15.4206 11.3577 16 9.95869 16 8.5C16 7.04131 15.4206 5.64229 14.3892 4.61084C13.3577 3.57939 11.9587 3 10.5 3ZM10.5 13H5.5C4.30653 13 3.16203 12.5258 2.31812 11.6819C1.4742 10.838 1 9.69347 1 8.5C1 7.30653 1.4742 6.16203 2.31812 5.31812C3.16203 4.4742 4.30653 4 5.5 4H10.5C11.6935 4 12.838 4.4742 13.6819 5.31812C14.5258 6.16203 15 7.30653 15 8.5C15 9.69347 14.5258 10.838 13.6819 11.6819C12.838 12.5258 11.6935 13 10.5 13Z" fill="#fff"/>
<path fill-rule="evenodd" clip-rule="evenodd" d="M5.5 11C4.83696 11 4.20102 10.7367 3.73218 10.2678C3.26334 9.79898 3 9.16304 3 8.5C3 7.83696 3.26334 7.20102 3.73218 6.73218C4.20102 6.26334 4.83696 6 5.5 6H10.5C11.163 6 11.799 6.26334 12.2678 6.73218C12.7367 7.20102 13 7.83696 13 8.5C13 9.16304 12.7367 9.79898 12.2678 10.2678C11.799 10.7367 11.163 11 10.5 11H5.5Z" fill="#fff"/>
</svg>
