<svg width="16" height="16" viewBox="0 0 16 16" fill="none" xmlns="http://www.w3.org/2000/svg">
    <path fill-rule="evenodd" clip-rule="evenodd" d="M10.8462 3.00282C11.1139 3.15562 11.4552 3.12917 11.6731 2.91121C11.9465 2.63785 11.9148 2.18357 11.5829 1.98539C10.5347 1.35958 9.30924 1 7.99976 1C6.69038 1 5.46498 1.35952 4.41687 1.98522C4.08493 2.18339 4.05325 2.6377 4.32662 2.91107C4.54457 3.12902 4.88582 3.15547 5.15352 3.00268C5.99274 2.52369 6.96429 2.25 7.99976 2.25C9.03532 2.25 10.0069 2.52374 10.8462 3.00282ZM14.0141 11.583C13.816 11.9147 13.3619 11.9464 13.0887 11.6732C12.8709 11.4553 12.8445 11.1143 12.9972 10.8467C13.4763 10.0075 13.75 9.03582 13.75 8.00024C13.75 6.96428 13.476 5.99231 12.9966 5.15282C12.8438 4.88515 12.8702 4.54387 13.0882 4.32591C13.3615 4.05261 13.8157 4.08425 14.0138 4.4161C14.6398 5.46438 14.9995 6.69006 14.9995 7.99976C14.9995 9.30927 14.6399 10.5348 14.0141 11.583ZM11.6737 13.0886C11.9468 13.3617 11.9152 13.8157 11.5835 14.0138C10.5352 14.6398 9.3095 14.9995 7.99976 14.9995C6.68992 14.9995 5.46411 14.6397 4.41576 14.0136C4.0841 13.8155 4.05247 13.3616 4.32563 13.0884C4.54347 12.8706 4.88456 12.8442 5.15207 12.997C5.99163 13.4765 6.96369 13.7505 7.99976 13.7505C9.03574 13.7505 10.0077 13.4765 10.8472 12.9971C11.1148 12.8443 11.4558 12.8707 11.6737 13.0886ZM2.91093 11.6734C2.63772 11.9466 2.18368 11.915 1.98559 11.5833C1.35966 10.535 1 9.30939 1 7.99976C1 6.69016 1.35964 5.46456 1.98555 4.41633C2.18371 4.08447 2.63792 4.05282 2.91123 4.32613C3.12918 4.54408 3.15561 4.88534 3.00276 5.15301C2.52342 5.99246 2.24951 6.96437 2.24951 8.00024C2.24951 9.03591 2.52331 10.0076 3.00247 10.847C3.15521 11.1145 3.12877 11.4556 2.91093 11.6734ZM7.99927 12.0308C10.2253 12.0308 12.0298 10.2262 12.0298 8.00024C12.0298 5.77425 10.2253 3.96973 7.99927 3.96973C5.77327 3.96973 3.96875 5.77425 3.96875 8.00024C3.96875 10.2262 5.77327 12.0308 7.99927 12.0308ZM9 5.99597C9 5.67947 8.80157 5 8 5C7.19843 5 7 5.67947 7 5.99597V7H5.99024C5.67375 7 5 7.13511 5 8C5 8.86489 5.67375 9 5.99024 9H7V9.99372C7 10.3102 7.14135 11 8 11C8.85865 11 9 10.3102 9 9.99372V9H10.0182C10.3347 9 11 8.87546 11 8C11 7.12454 10.3347 7 10.0182 7H9V5.99597Z" fill="url(#paint0_linear_37413_427692)"/>
    <defs>
        <linearGradient id="paint0_linear_37413_427692" x1="9.15151" y1="1.66649" x2="9.15151" y2="12.031" gradientUnits="userSpaceOnUse">
            <stop stop-color="white"/>
            <stop offset="1" stop-color="#999999"/>
        </linearGradient>
    </defs>
</svg>
