<?xml version="1.0" encoding="utf-8"?>
<!-- Generator: Adobe Illustrator 24.0.1, SVG Export Plug-In . SVG Version: 6.00 Build 0)  -->
<svg version="1.1" id="Layer_1" xmlns="http://www.w3.org/2000/svg" xmlns:xlink="http://www.w3.org/1999/xlink" x="0px" y="0px"
	 width="26px" height="24px" viewBox="0 0 26 24" style="enable-background:new 0 0 26 24;" xml:space="preserve">
<style type="text/css">
	.st0{fill:#FFFFFF;}
</style>
<path class="st0" d="M6.84,7.528h11.861c-0.244-1.781-1.285-3.308-2.759-4.223l1.163-1.983c0.119-0.203,0.049-0.463-0.158-0.58
	c-0.207-0.117-0.471-0.048-0.59,0.156l-1.184,2.018c-0.736-0.321-1.543-0.515-2.403-0.515c-0.839,0-1.628,0.184-2.351,0.49
	L9.252,0.897c-0.12-0.204-0.384-0.273-0.59-0.156c-0.207,0.117-0.278,0.377-0.158,0.58L9.647,3.27
	C8.146,4.181,7.087,5.727,6.84,7.528z M15.483,4.044c0.339,0,0.614,0.271,0.614,0.604c0,0.333-0.275,0.604-0.614,0.604
	c-0.339,0-0.614-0.271-0.614-0.604C14.869,4.315,15.144,4.044,15.483,4.044z M10.112,4.044c0.339,0,0.614,0.271,0.614,0.604
	c0,0.333-0.275,0.604-0.614,0.604S9.498,4.981,9.498,4.648C9.498,4.315,9.773,4.044,10.112,4.044z M6.746,8.378h12.091v9.353
	c0,0.939-0.773,1.701-1.728,1.701h-0.098v2.976c0,0.704-0.58,1.275-1.295,1.275c-0.715,0-1.295-0.571-1.295-1.275v-2.976h-3.358
	v2.976c0,0.704-0.58,1.275-1.295,1.275s-1.295-0.571-1.295-1.275v-2.976c-0.954,0-1.727-0.762-1.727-1.701V8.378z M5.882,9.654
	v5.102c0,0.704-0.58,1.275-1.295,1.275c-0.716,0-1.296-0.571-1.296-1.276V9.654c0-0.704,0.58-1.275,1.295-1.275
	C5.302,8.378,5.882,8.95,5.882,9.654z M22.291,9.654v5.102c0,0.704-0.58,1.275-1.295,1.275s-1.295-0.571-1.295-1.275V9.654
	c0-0.704,0.58-1.275,1.295-1.275C21.711,8.378,22.291,8.95,22.291,9.654z"/>
</svg>
