<svg width="16" height="16" viewBox="0 0 16 16" fill="none" xmlns="http://www.w3.org/2000/svg">
<rect x="0.5" y="0.5" width="15" height="15" rx="1.5" stroke="#fff"/>
<path d="M8.20001 5H9.10001V9.8C9.10001 10.5 8.90001 11 8.60001 11.4C8.40001 11.8 7.90001 12 7.40001 12C6.90001 12 6.40001 11.8 6.10001 11.5C5.80001 11.2 5.70001 10.6 5.70001 10H6.60001C6.60001 10.4 6.70001 10.6 6.80001 10.8C7.00001 10.9 7.20001 11 7.40001 11C7.60001 11 7.80001 10.9 8.00001 10.7C8.10001 10.5 8.20001 10.2 8.20001 9.8V5Z" fill="#fff"/>
<path d="M11.1 9.4V12H10.2V5H12.2C12.8 5 13.2 5.2 13.6 5.6C14 6 14 6.6 14 7.2C14 7.9 13.8 8.4 13.5 8.8C13.2 9.2 12.7 9.4 12.1 9.4H11.1ZM11.1 8.4H12.2C12.5 8.4 12.8 8.3 12.9 8.1C13.1 7.9 13.2 7.6 13.2 7.2C13.2 6.8 13.1 6.5 12.9 6.3C12.7 6.1 12.4 6 12.1 6H11V8.4H11.1Z" fill="#fff"/>
<path d="M3 8V3H4.4C4.9 3 5.2 3.1 5.5 3.3C5.8 3.5 5.9 3.9 5.9 4.3C5.9 4.5 5.8 4.7 5.7 4.9C5.6 5.2 5.5 5.3 5.3 5.4C5.5 5.5 5.7 5.6 5.8 5.8C5.9 6 6 6.3 6 6.5C6 7 5.9 7.4 5.6 7.6C5.3 7.8 5 8 4.5 8H3ZM3.7 5.1H4.4C4.7 5.1 4.9 5 5 4.9C5.1 4.8 5.2 4.6 5.2 4.4C5.2 4.2 5.1 4 5 3.9C4.9 3.8 4.7 3.7 4.4 3.7H3.7V5.1ZM3.7 5.7V7.3H4.5C4.7 7.3 4.9 7.2 5 7.1C5.2 7 5.3 6.8 5.3 6.5C5.3 6 5 5.8 4.6 5.7H3.7Z" fill="#fff"/>
</svg>
