<svg width="24" height="24" viewBox="0 0 24 24" fill="none" xmlns="http://www.w3.org/2000/svg">
<g opacity="0.3">
<path d="M15.3808 4.30371L8.10439 6.20325C7.75732 6.29385 7.40252 6.08591 7.31192 5.7388C7.22133 5.39168 7.42925 5.03684 7.77632 4.94624L15.0555 3.04596C15.2197 3.00072 15.3913 2.98871 15.5602 3.01067C15.7315 3.03295 15.8965 3.08971 16.0453 3.17754C16.1941 3.26536 16.3236 3.38243 16.4259 3.52168C16.5271 3.65939 16.5997 3.81596 16.6393 3.98215L16.998 5.4172C17.085 5.76523 16.8735 6.11791 16.5255 6.20491C16.1775 6.29192 15.8249 6.08032 15.7379 5.73229L15.3808 4.30371Z" fill="white"/>
<path fill-rule="evenodd" clip-rule="evenodd" d="M3.56651 8.70376C3.92924 8.34099 4.4212 8.13718 4.93418 8.13718H17.1388C17.6518 8.13718 18.1437 8.34099 18.5065 8.70376C18.8692 9.06654 19.073 9.55856 19.073 10.0716V11.992H19.7082C20.4216 11.992 21 12.5705 21 13.284V15.2113C21 15.9248 20.4216 16.5033 19.7082 16.5033H19.073V19.0656C19.073 19.5786 18.8692 20.0706 18.5065 20.4334C18.1437 20.7962 17.6518 21 17.1388 21H4.93418C4.4212 21 3.92924 20.7962 3.56651 20.4334C3.20378 20.0706 3 19.5786 3 19.0656V10.0716C3 9.55856 3.20378 9.06654 3.56651 8.70376ZM18.4427 15.2042C18.4363 15.204 18.4299 15.2039 18.4235 15.2039C18.4171 15.2039 18.4107 15.204 18.4043 15.2042H16.5036V13.2912H19.701V15.2042H18.4427ZM17.774 16.5033V19.0656C17.774 19.2341 17.7071 19.3957 17.5879 19.5148C17.4688 19.6339 17.3073 19.7009 17.1388 19.7009H4.93418C4.76571 19.7009 4.60414 19.6339 4.48502 19.5148C4.36589 19.3957 4.29897 19.2341 4.29897 19.0656V10.0716C4.29897 9.90311 4.36589 9.74153 4.48502 9.62239C4.60414 9.50325 4.76571 9.43632 4.93418 9.43632H17.1388C17.3073 9.43632 17.4688 9.50325 17.5879 9.62239C17.7071 9.74153 17.774 9.90311 17.774 10.0716V11.992H16.4964C15.783 11.992 15.2046 12.5705 15.2046 13.284V15.2113C15.2046 15.9248 15.783 16.5033 16.4964 16.5033H17.774Z" fill="white"/>
</g>
</svg>
