<svg width="29" height="29" viewBox="0 0 29 29" fill="none" xmlns="http://www.w3.org/2000/svg">
	<g clip-path="url(#clip0_25401_407992)">
		<path d="M15 28.8843C22.732 28.8843 29 27.4306 29 25.6375C29 23.8443 22.732 22.3906 15 22.3906C7.26801 22.3906 1 23.8443 1 25.6375C1 27.4306 7.26801 28.8843 15 28.8843Z" fill="url(#paint0_radial_25401_407992)" fill-opacity="0.5"/>
		<path d="M14.5 27C21.6797 27 27.5 21.1797 27.5 14C27.5 6.8203 21.6797 1 14.5 1C7.3203 1 1.5 6.8203 1.5 14C1.5 21.1797 7.3203 27 14.5 27Z" fill="url(#paint1_linear_25401_407992)"/>
		<path d="M14.5 6.20078C10.1922 6.20078 6.69999 9.69296 6.69999 14.0008C6.69999 18.3086 10.1922 21.8008 14.5 21.8008C18.8078 21.8008 22.3 18.3086 22.3 14.0008C22.3 9.69296 18.8078 6.20078 14.5 6.20078Z" fill="url(#paint2_linear_25401_407992)"/>
		<path opacity="0.2" d="M14.5 7.17804C18.6429 7.17804 22.0221 10.4237 22.2756 14.5192C22.2854 14.3569 22.3 14.1954 22.3 14.0298C22.3 9.70504 18.8079 6.19922 14.5 6.19922C10.1921 6.19922 6.70001 9.70504 6.70001 14.0298C6.70001 14.1954 6.71464 14.3569 6.72439 14.5192C6.97789 10.4237 10.3571 7.17804 14.5 7.17804Z" fill="black"/>
		<path fill-rule="evenodd" clip-rule="evenodd" d="M7.88807 6.32572L7.89765 6.31673L7.90103 6.32028C8.7373 5.535 9.69458 4.90603 10.7311 4.45988C10.9991 4.34479 11.2724 4.24187 11.5503 4.15153L11.5501 4.15107L11.5946 4.13681L10.9515 1.46289C9.03942 1.99719 7.31041 2.95396 5.86972 4.228L7.8871 6.3309L7.88807 6.32572ZM1.50206 13.744C1.51978 12.7297 1.65153 11.7451 1.88516 10.8024L4.85919 11.6858L4.86867 11.6834C4.86021 11.7217 4.85197 11.7601 4.84395 11.7985L4.84538 11.8L4.84639 11.799C4.57209 13.12 4.54908 14.4832 4.77771 15.8117C4.78858 15.8739 4.79956 15.9362 4.81154 15.9983L4.81457 16.014L4.81726 16.0164L4.81517 16.017L4.82581 16.0718L4.82522 16.0719L4.83332 16.1123L4.82338 16.1227L1.83706 16.9567C1.61688 16.0035 1.50041 15.009 1.5 13.9854C1.50002 13.9485 1.50018 13.9115 1.50048 13.8746C1.5008 13.8311 1.50133 13.7875 1.50206 13.744ZM10.7609 26.4423C8.85786 25.8789 7.14206 24.8952 5.71926 23.5968L7.76414 21.5322L7.77777 21.5286L7.77743 21.5272L7.80983 21.5584L7.81006 21.5578C7.83754 21.5842 7.86516 21.6105 7.89292 21.6365C7.91852 21.6606 7.94435 21.6845 7.97018 21.7083C8.00552 21.7408 8.04107 21.773 8.07682 21.805C9.02328 22.6479 10.1146 23.2983 11.2942 23.7209L11.2932 23.7234L11.3362 23.7387L11.3367 23.7407L11.4009 23.763L11.3991 23.7649L11.4511 23.7827L11.4452 23.7889L10.7609 26.4423ZM23.1264 23.7354C21.6853 25.0088 19.9559 25.9649 18.0435 26.4985L17.4001 23.8232C18.7262 23.3994 19.9504 22.6893 20.9954 21.7385L21.0155 21.7203C21.0282 21.7086 21.0409 21.697 21.0535 21.6853C21.0601 21.6791 21.0667 21.6729 21.0734 21.6668L21.0742 21.6623L21.0761 21.6642C21.0967 21.645 21.1172 21.6258 21.1376 21.6064L21.1465 21.6157L21.1197 21.6436L23.1264 23.7354ZM27.4971 14.2609C27.4763 15.2589 27.3451 16.2279 27.1152 17.1563L24.1444 16.2809L24.1314 16.2752L24.1463 16.2071L24.1542 16.1699L24.1518 16.1702C24.1894 15.9909 24.2224 15.8108 24.2507 15.6301C24.4324 14.4602 24.4198 13.2659 24.213 12.0994C24.2066 12.0639 24.2002 12.0284 24.1935 11.9929L24.1929 11.9923L24.1934 11.9922C24.1885 11.9657 24.1834 11.9393 24.1782 11.9129L24.1636 11.8394L24.1774 11.8374L27.1629 11.003C27.3825 11.9538 27.499 12.9458 27.5 13.9668C27.5001 14.0648 27.4991 14.1629 27.4971 14.2609ZM18.2416 1.51847C20.1421 2.08144 21.8557 3.06372 23.2772 4.35996L21.2346 6.42068L21.2282 6.43594L21.1875 6.39667L21.1841 6.39758L21.1844 6.39901C20.1667 5.42553 18.9651 4.68441 17.6566 4.2231L17.6582 4.21892C17.6221 4.20624 17.586 4.19377 17.5497 4.18151L17.5606 4.17014L18.2416 1.51847Z" fill="url(#paint3_linear_25401_407992)"/>
		<path d="M14.5 5C9.80558 5 6 8.80558 6 13.5C6 18.1944 9.80558 22 14.5 22C19.1944 22 23 18.1944 23 13.5C23 8.80558 19.1944 5 14.5 5Z" fill="url(#paint4_linear_25401_407992)"/>
		<path d="M14.5 6C10.3579 6 7 9.35786 7 13.5C7 17.6421 10.3579 21 14.5 21C18.6421 21 22 17.6421 22 13.5C22 9.35786 18.6421 6 14.5 6Z" fill="url(#paint5_linear_25401_407992)"/>
		<path opacity="0.2" d="M14.5 6.94118C18.4836 6.94118 21.7328 10.062 21.9766 14C21.9859 13.8439 22 13.6886 22 13.5294C22 9.37098 18.6422 6 14.5 6C10.3578 6 7 9.37098 7 13.5294C7 13.6886 7.01406 13.8439 7.02344 14C7.26719 10.062 10.5164 6.94118 14.5 6.94118Z" fill="black"/>
		<path d="M6.85322 6.85359C3.76972 9.93825 1.15172 12.3206 1.00589 12.1759C0.861219 12.0313 3.24472 9.41325 6.32822 6.32859C9.41289 3.24509 12.0297 0.861585 12.1756 1.00625C12.3214 1.15209 9.93789 3.77009 6.85322 6.85359Z" fill="url(#paint6_radial_25401_407992)"/>
		<path d="M6.32937 6.85359C3.24587 3.77009 0.862372 1.15209 1.00587 1.00625C1.15171 0.861585 3.76971 3.24509 6.85321 6.32975C9.93671 9.41442 12.3202 12.0324 12.1755 12.1771C12.0309 12.3206 9.41287 9.93825 6.32937 6.85359Z" fill="url(#paint7_radial_25401_407992)"/>
		<path d="M9.05582 8.98349C7.69549 10.345 5.48699 10.345 4.12665 8.98349C2.76515 7.62316 2.76515 5.41466 4.12665 4.05433C5.48699 2.69283 7.69549 2.69283 9.05582 4.05433C10.4173 5.41466 10.4173 7.62199 9.05582 8.98349Z" fill="url(#paint8_radial_25401_407992)"/>
		<path d="M23.6718 22.1505C20.5872 25.2351 17.9692 27.6186 17.8245 27.4728C17.6798 27.3281 20.0633 24.7101 23.1468 21.6255C26.2315 18.542 28.8483 16.1585 28.9942 16.3031C29.1388 16.449 26.7553 19.067 23.6718 22.1505Z" fill="url(#paint9_radial_25401_407992)"/>
		<path d="M23.1468 22.1505C20.0633 19.067 17.6798 16.449 17.8245 16.3031C17.9692 16.1585 20.5872 18.542 23.6718 21.6255C26.7553 24.7101 29.1388 27.3281 28.9942 27.4728C28.8483 27.6175 26.2315 25.2351 23.1468 22.1505Z" fill="url(#paint10_radial_25401_407992)"/>
		<path d="M25.8733 24.2804C24.513 25.6419 22.3045 25.6419 20.9442 24.2804C19.5827 22.92 19.5827 20.7115 20.9442 19.3512C22.3045 17.9897 24.513 17.9897 25.8733 19.3512C27.2348 20.7115 27.2348 22.9189 25.8733 24.2804Z" fill="url(#paint11_radial_25401_407992)"/>
	</g>
	<defs>
		<radialGradient id="paint0_radial_25401_407992" cx="0" cy="0" r="1" gradientUnits="userSpaceOnUse" gradientTransform="translate(15.0728 25.6196) scale(14 3.24672)">
			<stop offset="0.1873"/>
			<stop offset="1" stop-opacity="0"/>
		</radialGradient>
		<linearGradient id="paint1_linear_25401_407992" x1="14.5" y1="27" x2="14.5" y2="1" gradientUnits="userSpaceOnUse">
			<stop stop-color="#BA7C0F"/>
			<stop offset="0.2" stop-color="#B78113"/>
			<stop offset="0.4" stop-color="#D4AF2B"/>
			<stop offset="0.6" stop-color="#ECCA39"/>
			<stop offset="0.8" stop-color="#FADB42"/>
			<stop offset="1" stop-color="#FFE145"/>
		</linearGradient>
		<linearGradient id="paint2_linear_25401_407992" x1="14.5" y1="21.5344" x2="14.5" y2="6.14041" gradientUnits="userSpaceOnUse">
			<stop stop-color="#AE8315"/>
			<stop offset="0.5413" stop-color="#D8B42E"/>
			<stop offset="1" stop-color="#FFE145"/>
		</linearGradient>
		<linearGradient id="paint3_linear_25401_407992" x1="14.5" y1="1.46289" x2="14.5" y2="26.4985" gradientUnits="userSpaceOnUse">
			<stop stop-color="#D4780A"/>
			<stop offset="0.345" stop-color="#C6740B"/>
			<stop offset="0.69" stop-color="#8D5A0F"/>
			<stop offset="1" stop-color="#753A04"/>
		</linearGradient>
		<linearGradient id="paint4_linear_25401_407992" x1="14.5" y1="22" x2="14.5" y2="5" gradientUnits="userSpaceOnUse">
			<stop stop-color="#FFE245"/>
			<stop offset="0.375" stop-color="#E0B12B"/>
			<stop offset="0.64" stop-color="#956110"/>
			<stop offset="0.9" stop-color="#884507"/>
		</linearGradient>
		<linearGradient id="paint5_linear_25401_407992" x1="14.5" y1="20.7439" x2="14.5" y2="5.94195" gradientUnits="userSpaceOnUse">
			<stop stop-color="#B97E11"/>
			<stop offset="0.367123" stop-color="#D8B42E"/>
			<stop offset="0.836405" stop-color="#FFE145"/>
		</linearGradient>
		<radialGradient id="paint6_radial_25401_407992" cx="0" cy="0" r="1" gradientUnits="userSpaceOnUse" gradientTransform="translate(6.59117 6.59214) rotate(45.0027) scale(0.370751 7.90108)">
			<stop stop-color="white"/>
			<stop offset="0.7823" stop-color="white" stop-opacity="0"/>
		</radialGradient>
		<radialGradient id="paint7_radial_25401_407992" cx="0" cy="0" r="1" gradientUnits="userSpaceOnUse" gradientTransform="translate(6.59117 6.59124) rotate(135) scale(0.370734 7.9007)">
			<stop stop-color="white"/>
			<stop offset="0.7823" stop-color="white" stop-opacity="0"/>
		</radialGradient>
		<radialGradient id="paint8_radial_25401_407992" cx="0" cy="0" r="1" gradientUnits="userSpaceOnUse" gradientTransform="translate(6.59085 6.51849) rotate(45) scale(3.48562)">
			<stop stop-color="white"/>
			<stop offset="0.7823" stop-color="white" stop-opacity="0"/>
		</radialGradient>
		<radialGradient id="paint9_radial_25401_407992" cx="0" cy="0" r="1" gradientUnits="userSpaceOnUse" gradientTransform="translate(23.4091 21.8884) rotate(45) scale(0.370734 7.9007)">
			<stop stop-color="white"/>
			<stop offset="0.7823" stop-color="white" stop-opacity="0"/>
		</radialGradient>
		<radialGradient id="paint10_radial_25401_407992" cx="0" cy="0" r="1" gradientUnits="userSpaceOnUse" gradientTransform="translate(23.409 21.8881) rotate(135) scale(0.370734 7.9007)">
			<stop stop-color="white"/>
			<stop offset="0.7823" stop-color="white" stop-opacity="0"/>
		</radialGradient>
		<radialGradient id="paint11_radial_25401_407992" cx="0" cy="0" r="1" gradientUnits="userSpaceOnUse" gradientTransform="translate(23.4087 21.8153) rotate(45) scale(3.48562)">
			<stop stop-color="white"/>
			<stop offset="0.7823" stop-color="white" stop-opacity="0"/>
		</radialGradient>
		<clipPath id="clip0_25401_407992">
			<rect width="29" height="29" fill="white"/>
		</clipPath>
	</defs>
</svg>
