<svg width="24" height="24" viewBox="0 0 24 24" fill="none" xmlns="http://www.w3.org/2000/svg">
<path opacity="1" fill-rule="evenodd" clip-rule="evenodd" d="M17.968 5H5.03101C4.49235 5 3.97586 5.21408 3.59497 5.59497C3.21408 5.97586 3 6.49235 3 7.03101V13.969C3 14.5076 3.21408 15.0241 3.59497 15.405C3.97586 15.7859 4.49235 16 5.03101 16H4.99609V19L8.99609 16H17.9641C18.2309 16.0001 18.4952 15.9477 18.7417 15.8457C18.9882 15.7437 19.2122 15.5941 19.4009 15.4055C19.5896 15.2169 19.7392 14.9931 19.8413 14.7466C19.9434 14.5001 19.9961 14.2358 19.9961 13.969V7.03101C19.9961 6.49287 19.7826 5.97675 19.4023 5.59595C19.0221 5.21515 18.5062 5.00079 17.968 5ZM6 8.75C6 8.33579 6.33579 8 6.75 8H16.25C16.6642 8 17 8.33579 17 8.75C17 9.16421 16.6642 9.5 16.25 9.5H6.75C6.33579 9.5 6 9.16421 6 8.75ZM6.75 11.5C6.33579 11.5 6 11.8358 6 12.25C6 12.6642 6.33579 13 6.75 13H16.25C16.6642 13 17 12.6642 17 12.25C17 11.8358 16.6642 11.5 16.25 11.5H6.75Z" fill="white"/>
</svg>
