<?xml version="1.0" encoding="utf-8"?>
<!-- Generator: Adobe Illustrator 24.0.2, SVG Export Plug-In . SVG Version: 6.00 Build 0)  -->
<svg version="1.1" id="Слой_1" xmlns="http://www.w3.org/2000/svg" xmlns:xlink="http://www.w3.org/1999/xlink" x="0px" y="0px"
	 width="32px" height="32px" viewBox="0 0 32 32" style="enable-background:new 0 0 32 32;" xml:space="preserve">
<style type="text/css">
	.st0{opacity: 1;fill-rule:evenodd;clip-rule:evenodd;fill:#fff;}
	.st1{opacity: 1;fill:#fff;}
</style>
<path class="st0" d="M28,15.2c0-0.4-0.4-0.8-0.8-0.9l-1.6-0.2c-0.4-0.1-0.8-0.4-1-0.8L24,11.8c-0.2-0.4-0.1-0.9,0.1-1.3l1-1.3
	c0.2-0.3,0.2-0.9,0-1.2l-1.2-1c-0.3-0.3-0.8-0.3-1.2,0l-1.3,1c-0.3,0.2-0.9,0.3-1.3,0.1l-1.5-0.6c-0.4-0.1-0.8-0.6-0.8-1l-0.2-1.6
	c-0.1-0.4-0.4-0.8-0.9-0.8c0,0-0.3,0-0.8,0c-0.5,0-0.8,0-0.8,0c-0.4,0-0.8,0.4-0.9,0.8L14,6.5c-0.1,0.4-0.4,0.8-0.8,1L11.8,8
	c-0.4,0.2-0.9,0.1-1.3-0.1l-1.3-1C8.9,6.7,8.4,6.7,8.1,7L7,8.1C6.7,8.4,6.7,8.9,7,9.2l1,1.3c0.2,0.3,0.3,0.9,0.1,1.3l-0.6,1.5
	c-0.1,0.4-0.6,0.8-1,0.8l-1.6,0.2c-0.4,0.1-0.8,0.4-0.8,0.9c0,0,0,0.3,0,0.8s0,0.8,0,0.8c0,0.4,0.4,0.8,0.8,0.9l1.6,0.2
	c0.4,0.1,0.8,0.4,1,0.8l0.6,1.5c0.2,0.4,0.1,0.9-0.1,1.3l-1,1.3c-0.2,0.3-0.3,0.8-0.1,1c0.2,0.2,0.7,0.8,0.7,0.8s0.2,0.2,0.4,0.3
	c0.2,0.1,1,0.4,1.4,0.2l1.3-1c0.3-0.2,0.9-0.3,1.3-0.1l1.5,0.6c0.4,0.1,0.8,0.6,0.8,1l0.2,1.6c0.1,0.4,0.4,0.8,0.9,0.8
	c0,0,0.3,0,0.8,0c0.5,0,0.8,0,0.8,0c0.4,0,0.8-0.4,0.8-0.8l0.2-1.6c0.1-0.4,0.4-0.8,0.8-1l1.5-0.6c0.4-0.2,0.9-0.1,1.3,0.1l1.3,1
	c0.3,0.2,0.9,0.2,1.2,0l1.1-1.1c0.3-0.3,0.3-0.8,0-1.2l-1-1.3c-0.2-0.3-0.3-0.9-0.1-1.3l0.6-1.5c0.1-0.4,0.6-0.8,1-0.8l1.6-0.2
	c0.4-0.1,0.8-0.4,0.8-0.9c0,0,0-0.3,0-0.8C28,15.5,28,15.2,28,15.2z M16,22c-3.3,0-6-2.7-6-6s2.7-6,6-6s6,2.7,6,6S19.3,22,16,22z"/>
<path class="st1" d="M16,12c-2.2,0-4,1.8-4,4s1.8,4,4,4s4-1.8,4-4S18.2,12,16,12z M16,19c-1.7,0-3-1.3-3-3s1.3-3,3-3s3,1.3,3,3
	C19,17.6,17.7,19,16,19z"/>
</svg>
