<svg width="16" height="16" viewBox="0 0 16 16" fill="none" xmlns="http://www.w3.org/2000/svg">
    <path fill-rule="evenodd" clip-rule="evenodd" d="M8.83333 14.1329C8.83333 14.771 8.19192 15.1899 7.63867 14.9133L3.472 13.6631C3.18347 13.5188 3 13.2155 3 12.8827V2.86603C3 2.38774 3.3731 2 3.83333 2H12.1667C12.6269 2 13 2.38774 13 2.86603V12.828C13 13.3063 12.6269 13.694 12.1667 13.694H9.66667V12.828H12.1667V2.86603H4.64654L8.36133 3.89024C8.64987 4.03453 8.83333 4.33786 8.83333 4.67063V14.1329ZM7.16667 8.60961C7.16667 8.37046 7.35321 8.17659 7.58333 8.17659C7.81345 8.17659 8 8.37046 8 8.60961V10.2105C8 10.4496 7.81345 10.6435 7.58333 10.6435C7.35321 10.6435 7.16667 10.4496 7.16667 10.2105V8.60961Z" fill="url(#paint0_linear_37413_400390)"/>
    <defs>
        <linearGradient id="paint0_linear_37413_400390" x1="8.83333" y1="-1.25" x2="8.83333" y2="16.0833" gradientUnits="userSpaceOnUse">
            <stop stop-color="white"/>
            <stop offset="1" stop-color="#999999"/>
        </linearGradient>
    </defs>
</svg>
