<svg width="24" height="24" viewBox="0 0 24 24" fill="none" xmlns="http://www.w3.org/2000/svg">
<path fill-rule="evenodd" clip-rule="evenodd" d="M8.25446 5H6.74571V12.6402C6.01144 12.9383 5.49365 13.6587 5.49365 14.5C5.49365 15.3413 6.01144 16.0617 6.74571 16.3598V18H8.25446V16.3598C8.98874 16.0617 9.50652 15.3413 9.50652 14.5C9.50652 13.6587 8.98874 12.9383 8.25446 12.6402V5Z" fill="white"/>
<path fill-rule="evenodd" clip-rule="evenodd" d="M13.2511 5H11.7487V9.64122C11.014 9.93844 10.4956 10.6587 10.4956 11.5C10.4956 12.3413 11.014 13.0616 11.7487 13.3588V18H13.2511V13.3588C13.9858 13.0616 14.5042 12.3413 14.5042 11.5C14.5042 10.6587 13.9858 9.93844 13.2511 9.64121V5Z" fill="white"/>
<path fill-rule="evenodd" clip-rule="evenodd" d="M18.2399 5H16.7604V6.58709C15.9935 6.88384 15.4497 7.62841 15.4497 8.5C15.4497 9.37159 15.9935 10.1162 16.7604 10.4129V18H18.2399V10.4129C19.0067 10.1162 19.5506 9.37159 19.5506 8.5C19.5506 7.62841 19.0067 6.88384 18.2399 6.58709V5Z" fill="white"/>
</svg>
