<?xml version="1.0" encoding="utf-8"?>
<!-- Generator: Adobe Illustrator 26.5.0, SVG Export Plug-In . SVG Version: 6.00 Build 0)  -->
<svg version="1.1" id="Слой_1" xmlns="http://www.w3.org/2000/svg" xmlns:xlink="http://www.w3.org/1999/xlink" x="0px" y="0px"
     width="40px" height="40px" viewBox="0 0 40 40" style="enable-background:new 0 0 40 40;" xml:space="preserve">
<style type="text/css">
	.st0{fill:url(#SVGID_1_);}
	.st1{fill:url(#SVGID_00000052090571696328208940000010408252787471623082_);}
	.st2{fill:url(#SVGID_00000163760984845036032870000014829138982540268936_);}
</style>
    <g>

		<linearGradient id="SVGID_1_" gradientUnits="userSpaceOnUse" x1="20" y1="2390" x2="20" y2="2430" gradientTransform="matrix(1 0 0 1 0 -2390)">
		<stop  offset="0" style="stop-color:#3E3F43"/>
            <stop  offset="0.7188" style="stop-color:#28282C"/>
	</linearGradient>
        <path shape-rendering="crispEdges" class="st0" d="M20,0L20,0c11,0,20,9,20,20l0,0c0,11-9,20-20,20l0,0C9,40,0,31,0,20l0,0
		C0,9,9,0,20,0z"/>

        <linearGradient id="SVGID_00000007414097705825403150000003708783522496098472_" gradientUnits="userSpaceOnUse" x1="19.7966" y1="2403.1069" x2="20.4684" y2="2422.9023" gradientTransform="matrix(1 0 0 1 0 -2390)">
		<stop  offset="0" style="stop-color:#FFFFFF"/>
            <stop  offset="1" style="stop-color:#6C6C6C"/>
	</linearGradient>
        <path style="fill:url(#SVGID_00000007414097705825403150000003708783522496098472_);" d="M20,12c0.4,0,0.7,0.3,0.7,0.8v7.9l2.7-3
		c0.3-0.3,0.8-0.2,1,0.1c0.3,0.3,0.2,0.8-0.1,1.1l-3.9,4l0,0c-0.1,0-0.2,0.1-0.4,0.1h-0.1c-0.2,0-0.3-0.1-0.4-0.2l-3.9-4
		c-0.3-0.3-0.3-0.7-0.1-1.1c0.3-0.3,0.7-0.4,1-0.1l2.7,3v-7.9C19.3,12.3,19.6,12,20,12z"/>

        <linearGradient id="SVGID_00000091707772233680625760000011390455285693084318_" gradientUnits="userSpaceOnUse" x1="19.5186" y1="2403.1165" x2="20.1904" y2="2422.9119" gradientTransform="matrix(1 0 0 1 0 -2390)">
		<stop  offset="0" style="stop-color:#FFFFFF"/>
            <stop  offset="1" style="stop-color:#6C6C6C"/>
	</linearGradient>
        <path style="fill:url(#SVGID_00000091707772233680625760000011390455285693084318_);" d="M15.7,26.5c-0.4,0-0.7,0.3-0.7,0.8
		s0.3,0.8,0.7,0.8h8.6c0.4,0,0.7-0.3,0.7-0.8s-0.3-0.8-0.7-0.8H15.7z"/>
</g>
</svg>
