<svg width="20" height="20" viewBox="0 0 20 20" fill="none" xmlns="http://www.w3.org/2000/svg">
<path d="M2.5 2.5V5.75C2.5 6.44035 1.94036 7 1.25 7C0.559644 7 0 6.44035 0 5.75V2C0 0.9 0.9 0 2 0H5.75C6.44036 0 7 0.559644 7 1.25C7 1.94036 6.44036 2.5 5.75 2.5H2.5Z" fill="white"/>
<path d="M7 18.75C7 18.0596 6.44036 17.5 5.75 17.5H2.5V14.25C2.5 13.5596 1.94036 13 1.25 13C0.559644 13 0 13.5596 0 14.25V18C0 19.1 0.9 20 2 20H5.75C6.44036 20 7 19.4404 7 18.75Z" fill="white"/>
<path d="M13 18.75C13 19.4404 13.5596 20 14.25 20H18C19.1 20 20 19.1 20 18V14.25C20 13.5596 19.4404 13 18.75 13C18.0596 13 17.5 13.5596 17.5 14.25V17.5H14.25C13.5596 17.5 13 18.0596 13 18.75Z" fill="white"/>
<path d="M14.25 2.5C13.5596 2.5 13 1.94036 13 1.25C13 0.559644 13.5596 0 14.25 0H18C19.1 0 20 0.9 20 2V5.75C20 6.44036 19.4404 7 18.75 7C18.0596 7 17.5 6.44036 17.5 5.75V2.5H14.25Z" fill="white"/>
</svg>
