<svg width="16" height="16" viewBox="0 0 16 16" fill="none" xmlns="http://www.w3.org/2000/svg">
    <path d="M11.8708 11.6017L14.2354 4.75488C14.2371 4.74983 14.2384 4.74516 14.2394 4.74088L9.23169 2.81715C9.22982 2.82108 9.22797 2.82554 9.22622 2.83059L9.20966 2.87856L8.95206 2.13212C8.94457 2.11042 8.93675 2.08889 8.92861 2.06753C9.08344 1.99154 9.25787 1.9763 9.42149 2.03915L14.5685 4.0164C14.9238 4.1529 15.0936 4.60603 14.9477 5.02851L12.0416 13.443C11.8957 13.8655 11.4894 14.0973 11.1341 13.9608L9.70832 13.4131L10.6621 13.047C10.7118 13.0279 10.7602 13.007 10.8072 12.9844L11.3239 13.1829C11.3258 13.1789 11.3276 13.1745 11.3293 13.1694L11.7083 12.0721C11.7802 11.9228 11.8346 11.7646 11.8708 11.6017Z" fill="url(#paint0_linear_37413_400400)"/>
    <path fill-rule="evenodd" clip-rule="evenodd" d="M1.04819 5.16607C0.904991 4.75113 1.09174 4.29851 1.46531 4.15511L6.87648 2.07793C7.25005 1.93454 7.66896 2.15466 7.81216 2.56959L10.6642 10.8339C10.8074 11.2489 10.6207 11.7015 10.2471 11.8449L4.83591 13.9221C4.46235 14.0655 4.04343 13.8453 3.90024 13.4304L1.04819 5.16607ZM8.09796 8.15222C8.04408 8.28756 7.96531 8.4083 7.86646 8.50709C7.76761 8.60588 7.65076 8.68065 7.52302 8.72681C7.29903 8.81664 7.05127 8.81973 6.81945 8.73561C6.69568 8.6951 6.52071 8.72277 6.53974 8.77675C6.9744 10.0158 7.58808 9.8186 8.00155 9.68573C8.02368 9.67862 8.04555 9.67159 8.06648 9.66508L8.44094 10.0044L5.27707 11.2454L5.35304 10.7258C5.89131 10.5147 6.42573 10.3051 5.96013 9.00276C5.92648 8.90732 5.83758 9.0357 5.76443 9.15567C5.62347 9.38126 5.4206 9.55014 5.18396 9.63892C5.05885 9.68999 4.92471 9.71235 4.78956 9.70462C4.6544 9.69689 4.521 9.65923 4.39732 9.59393C4.27193 9.53319 4.15842 9.44478 4.06401 9.33431C3.9696 9.22384 3.89637 9.09376 3.849 8.95235C3.67142 8.44879 4.07945 7.75891 4.30489 7.37775C4.34965 7.30208 4.38721 7.23856 4.41157 7.1911C4.65339 6.68742 4.83492 6.14941 4.95179 5.59C4.95381 5.35412 5.06944 5.2767 5.22612 5.48506C5.68726 5.85865 6.19384 6.15625 6.72907 6.36802C6.80968 6.40345 6.89288 6.43826 6.97669 6.47334C7.46122 6.67609 7.96643 6.8875 8.10979 7.27577C8.16478 7.41671 8.19217 7.56787 8.19013 7.71905C8.18809 7.87023 8.15666 8.01794 8.09796 8.15222Z" fill="url(#paint1_linear_37413_400400)"/>
    <defs>
        <linearGradient id="paint0_linear_37413_400400" x1="9.16667" y1="-1" x2="9.16667" y2="15" gradientUnits="userSpaceOnUse">
            <stop stop-color="white"/>
            <stop offset="1" stop-color="#999999"/>
        </linearGradient>
        <linearGradient id="paint1_linear_37413_400400" x1="9.16667" y1="-1" x2="9.16667" y2="15" gradientUnits="userSpaceOnUse">
            <stop stop-color="white"/>
            <stop offset="1" stop-color="#999999"/>
        </linearGradient>
    </defs>
</svg>
