<svg width="24" height="24" viewBox="0 0 24 24" fill="none" xmlns="http://www.w3.org/2000/svg">
<g opacity="0.3">
<path fill-rule="evenodd" clip-rule="evenodd" d="M11.3054 5.23729C11.4022 5.09942 11.4972 4.96024 11.5905 4.81978C11.844 4.176 12.2693 4.08818 12.5168 4.82708C13.4969 6.34541 14.6918 7.7045 16.0621 8.8593C16.2648 9.04291 16.4758 9.22763 16.6884 9.41373C17.9173 10.4894 19.1985 11.6109 19.2177 12.8281C19.2334 13.2732 19.1564 13.7165 18.9917 14.1283C18.827 14.5401 18.5785 14.9108 18.263 15.2155C17.9607 15.5283 17.5997 15.7743 17.2019 15.9386C16.8042 16.103 16.3781 16.1822 15.9496 16.1714C15.3683 16.1756 14.7988 16.0261 14.2942 15.7414C14.2561 15.7199 14.2184 15.6976 14.181 15.6746C14.0657 15.6035 13.9542 15.5252 13.8471 15.4398C13.7436 15.3623 13.6175 15.2982 13.4936 15.252C13.2276 15.153 12.9717 15.1372 12.9717 15.252C12.9717 15.6311 13.0235 16.0131 13.1186 16.3854C13.1225 16.4004 13.1264 16.4154 13.1303 16.4303C13.1344 16.4455 13.1385 16.4607 13.1426 16.4759C13.1494 16.5005 13.1564 16.5251 13.1636 16.5497C13.3614 17.228 13.7011 17.8676 14.1298 18.3906C14.7713 19.1733 15.6119 19.695 16.4745 19.695H7.55387C8.48438 19.695 9.32732 19.1805 9.94776 18.3906C10.3341 17.8988 10.6341 17.3002 10.8154 16.6527C10.837 16.5753 10.857 16.4972 10.8752 16.4186C10.8796 16.3993 10.884 16.3799 10.8883 16.3605C10.8894 16.3552 10.8906 16.3499 10.8917 16.3446C10.9689 15.9878 11.0101 15.6194 11.0101 15.2484C11.0101 15.0387 10.8118 15.104 10.5744 15.2484C10.475 15.3088 10.3688 15.3831 10.2674 15.4569C10.1285 15.5557 9.98401 15.6444 9.83496 15.723C9.78635 15.7486 9.73726 15.7731 9.68772 15.7965C9.17164 16.0404 8.60676 16.1647 8.03339 16.1568C7.60756 16.1622 7.18503 16.0794 6.79102 15.913C6.39701 15.7467 6.0396 15.5003 5.74014 15.1886C5.43082 14.8876 5.18586 14.5236 5.02086 14.1197C4.85587 13.7158 4.77448 13.2809 4.78187 12.8428C4.78187 11.2731 6.71962 9.82217 7.79024 9.02054C8.00282 8.86137 8.18121 8.7278 8.30346 8.62398C9.42499 7.61783 10.4307 6.48342 11.3014 5.24308C11.3027 5.24115 11.3041 5.23922 11.3054 5.23729ZM7.46943 7.63295C8.60077 6.61587 9.60607 5.45868 10.4624 4.18755C10.559 3.97458 10.6892 3.75393 10.8664 3.5593C11.0801 3.32449 11.4529 3.03422 11.9809 3.00277C12.5437 2.96924 12.9763 3.24575 13.2403 3.53318C13.4375 3.74782 13.5715 3.99516 13.6655 4.22887C14.5611 5.59168 15.6441 6.81306 16.8803 7.85487C16.892 7.86479 16.9036 7.87493 16.9151 7.88527C17.0823 8.03679 17.2707 8.20175 17.4698 8.37604C17.9958 8.83655 18.5962 9.36218 19.0767 9.87698C19.7257 10.5723 20.4749 11.5626 20.4997 12.7935C20.5201 13.4183 20.4111 14.0408 20.1795 14.6198C19.9493 15.1956 19.6027 15.7159 19.1619 16.146C18.7406 16.5776 18.2383 16.9183 17.6846 17.1471C17.1303 17.3762 16.5363 17.4881 15.9383 17.4759C15.6133 17.4767 15.2913 17.4429 14.9771 17.3761C15.0026 17.4115 15.0286 17.4463 15.0552 17.4806C15.5645 18.1373 16.1067 18.3906 16.4745 18.3906C17.1827 18.3906 17.7568 18.9746 17.7568 19.695C17.7568 20.4154 17.1827 20.9994 16.4745 20.9994H7.55387C6.84563 20.9994 6.27149 20.4154 6.27149 19.695C6.27149 18.9746 6.84563 18.3906 7.55387 18.3906C8.00578 18.3906 8.52721 18.1319 8.98236 17.5291C9.02432 17.4735 9.0649 17.4159 9.10401 17.3565C8.75338 17.4295 8.39433 17.4651 8.0325 17.4612C7.4381 17.4665 6.84884 17.3497 6.29944 17.1178C5.75142 16.8864 5.2548 16.5455 4.83805 16.1159C4.40731 15.6925 4.06667 15.1833 3.83664 14.6202C3.60522 14.0536 3.49059 13.4445 3.49951 12.8311C3.50236 12.0355 3.79605 11.3367 4.14703 10.7768C4.50075 10.2125 4.95758 9.71681 5.39537 9.30511C5.8373 8.88951 6.29515 8.52696 6.67306 8.23902C6.83319 8.11701 6.96717 8.01682 7.08001 7.93244C7.25392 7.80238 7.37761 7.70988 7.46943 7.63295Z" fill="white"/>
</g>
</svg>
