<svg width="16" height="16" viewBox="0 0 16 16" fill="none" xmlns="http://www.w3.org/2000/svg">
    <path fill-rule="evenodd" clip-rule="evenodd" d="M14.9995 7.99976C14.9995 11.8656 11.8656 14.9995 7.99976 14.9995C4.1339 14.9995 1 11.8656 1 7.99976C1 4.1339 4.1339 1 7.99976 1C11.8656 1 14.9995 4.1339 14.9995 7.99976ZM13.7495 7.99976C13.7495 11.1753 11.1753 13.7495 7.99976 13.7495C4.82425 13.7495 2.25 11.1753 2.25 7.99976C2.25 4.82425 4.82425 2.25 7.99976 2.25C11.1753 2.25 13.7495 4.82425 13.7495 7.99976ZM8 7C8.55228 7 9 7.28512 9 7.63684V11.3632C9 11.7149 8.55228 12 8 12C7.44772 12 7 11.7149 7 11.3632V7.63684C7 7.28512 7.44772 7 8 7ZM8 6C8.55228 6 9 5.55228 9 5C9 4.44772 8.55228 4 8 4C7.44772 4 7 4.44772 7 5C7 5.55228 7.44772 6 8 6Z" fill="url(#paint0_linear_37413_452021)"/>
    <defs>
        <linearGradient id="paint0_linear_37413_452021" x1="10" y1="-3" x2="10" y2="15" gradientUnits="userSpaceOnUse">
            <stop stop-color="white"/>
            <stop offset="1" stop-color="#999999"/>
        </linearGradient>
    </defs>
</svg>
