<svg width="24" height="24" viewBox="0 0 24 24" fill="none" xmlns="http://www.w3.org/2000/svg">
<g opacity="0.5">
<path fill-rule="evenodd" clip-rule="evenodd" d="M14.1465 9.36337H9.85285C9.9913 8.42163 10.2001 7.58194 10.4592 6.89221C10.7016 6.24728 10.9785 5.75759 11.2619 5.43715C11.5462 5.1167 11.7967 5.00781 11.9998 5.00781C12.2027 5.00781 12.4534 5.11639 12.7375 5.43746C13.0209 5.75728 13.2978 6.24728 13.5401 6.89221C13.7993 7.58194 14.0084 8.42163 14.1465 9.36337ZM8.80582 10.2891C8.75723 10.8581 8.73305 11.429 8.73334 12.0002C8.73334 12.5869 8.75822 13.1597 8.80551 13.7113H5.21063C5.07033 13.1517 4.99959 12.577 5 12.0002C5 11.41 5.07311 10.8366 5.21063 10.2891H8.80582ZM9.66675 12.0002C9.66675 12.5913 9.6932 13.1644 9.74235 13.7113H14.2578C14.307 13.1644 14.3334 12.5913 14.3334 12.0002C14.3334 11.4091 14.307 10.836 14.2575 10.2891H9.74267C9.6917 10.858 9.66637 11.429 9.66675 12.0002ZM15.1941 10.2891C15.2417 10.8407 15.2666 11.4134 15.2666 12.0002C15.2666 12.5869 15.2417 13.1597 15.1944 13.7113H18.7893C18.9268 13.1637 18.9999 12.5904 18.9999 12.0002C18.9999 11.41 18.9268 10.8366 18.7893 10.2891H15.1941ZM15.0898 9.36154H18.4837C17.6556 7.33372 15.9034 5.78096 13.7505 5.22656C14.0028 5.60332 14.2243 6.0563 14.4141 6.56216C14.7121 7.35487 14.9436 8.30749 15.0898 9.36154ZM8.90989 9.36123H5.5166C6.34447 7.33341 8.09634 5.78065 10.2492 5.22656C9.99722 5.60301 9.7754 6.05598 9.58531 6.56185C9.28758 7.35456 9.05611 8.30718 8.90989 9.36123ZM5.5166 14.6484H8.90927C9.05487 15.7025 9.28571 16.6545 9.58282 17.4478C9.7726 17.9531 9.99349 18.406 10.2455 18.7825C8.09447 18.2275 6.34416 16.6753 5.5166 14.6484ZM13.5431 17.1199C13.8013 16.4302 14.0097 15.5905 14.1479 14.6484H9.85205C9.98987 15.5905 10.1983 16.4302 10.4572 17.1199C10.6989 17.7648 10.9755 18.2545 11.2592 18.5743C11.5433 18.8948 11.7946 19.004 12 19.004C12.2053 19.004 12.4567 18.8948 12.7404 18.5743C13.0245 18.2545 13.301 17.7648 13.5431 17.1199ZM15.0906 14.6484C14.945 15.7022 14.7142 16.6548 14.4168 17.4475C14.227 17.9527 14.0064 18.406 13.7544 18.7825C15.9054 18.2275 17.6557 16.6753 18.4833 14.6484H15.0906Z" fill="white"/>
</g>
</svg>
