<svg width="16" height="16" viewBox="0 0 16 16" fill="none" xmlns="http://www.w3.org/2000/svg">
    <path fill-rule="evenodd" clip-rule="evenodd" d="M14 8C14 11.3137 11.3137 14 8 14C4.68629 14 2 11.3137 2 8C2 4.68629 4.68629 2 8 2C11.3137 2 14 4.68629 14 8ZM11.8387 7.17474L13 6.85402C12.7608 5.84743 12.2134 4.95798 11.4614 4.28791L10.6773 5.07811L10.6722 5.08006C10.2755 4.70511 9.80716 4.41966 9.29716 4.24198L9.29781 4.24037L9.25552 4.22596L9.25977 4.22158L9.52278 3.20949C9.06166 3.07321 8.57292 3 8.06685 3C7.57994 3 7.10907 3.06778 6.6634 3.19429L6.91717 4.21441C6.40116 4.3802 5.92541 4.65608 5.51998 5.02431L5.50994 5.03342L5.4898 5.05183L5.48942 5.05383L4.71196 4.25296C3.9527 4.91544 3.3963 5.79916 3.14641 6.80183L4.30342 7.13249L4.30847 7.13466L4.29981 7.17526L4.30073 7.17514C4.19104 7.70499 4.18796 8.25223 4.29154 8.78311L4.29292 8.78438L4.29184 8.78466L4.29918 8.82131L4.29531 8.8253L3.13369 9.1459C3.37303 10.1532 3.92098 11.0431 4.67374 11.7134L5.45693 10.9246L5.45939 10.9187L5.49169 10.949L5.5218 10.9767C5.90425 11.3242 6.35016 11.5901 6.83374 11.7587L6.83418 11.7605L6.87853 11.7757L6.87621 11.7781L6.61193 12.7908C7.07276 12.9269 7.56116 13 8.06685 13C8.55449 13 9.02603 12.932 9.47229 12.8051L9.21866 11.7856L9.25896 11.7724C9.77632 11.5994 10.2516 11.3145 10.6539 10.9374L10.6574 10.941L10.647 10.9518L11.4202 11.7484C12.1801 11.0858 12.7371 10.2018 12.9872 9.19868L11.8289 8.86492L11.8253 8.8659L11.8347 8.82149L11.8337 8.82132C11.938 8.31199 11.9443 7.78688 11.8526 7.27566C11.8482 7.2517 11.8438 7.22772 11.839 7.20382L11.8333 7.17554L11.8387 7.17474ZM8.06685 11.3333C9.93242 11.3333 11.4448 9.84095 11.4448 8C11.4448 6.15905 9.93242 4.66667 8.06685 4.66667C6.20129 4.66667 4.68895 6.15905 4.68895 8C4.68895 9.84095 6.20129 11.3333 8.06685 11.3333ZM3 8C3 7.97996 3.00012 7.95995 3.00036 7.93997C2.99984 7.98651 2.99993 8.03305 3.00063 8.07959C3.00021 8.05311 3 8.02658 3 8Z" fill="#fff" fill-opacity="0.7"/>
</svg>
