<svg width="16" height="16" viewBox="0 0 16 16" fill="none" xmlns="http://www.w3.org/2000/svg">
<rect x="0.5" y="0.5" width="15" height="15" rx="1.5" stroke="#fff"/>
<path d="M8 5H8.9V9.9C8.9 10.6 8.7 11.1 8.4 11.5C8.1 11.8 7.7 12 7.2 12C6.7 12 6.2 11.8 5.9 11.5C5.6 11.1 5.5 10.6 5.5 10H6.4C6.4 10.4 6.5 10.6 6.6 10.8C6.8 11 7 11 7.2 11C7.4 11 7.6 10.9 7.8 10.7C8 10.5 8 10.2 8 9.8V5Z" fill="#fff"/>
<path d="M10.9 9.4V12H10V5H12C12.6 5 13.1 5.2 13.4 5.6C13.8 6 14 6.6 14 7.2C14 7.9 13.8 8.4 13.5 8.8C13.2 9.2 12.7 9.4 12 9.4H10.9ZM10.9 8.4H12C12.3 8.4 12.6 8.3 12.8 8.1C13 7.9 13.1 7.6 13.1 7.2C13.1 6.8 13 6.5 12.8 6.3C12.6 6.1 12.4 6 12.1 6H10.9V8.4Z" fill="#fff"/>
<path d="M2.7 3L4 6L5.2 3H6V8H5.3V4.5L4.3 6H3.7L2.7 4.5V8H2V3H2.7Z" fill="#fff"/>
</svg>
