<?xml version="1.0" encoding="utf-8"?>
<!-- Generator: Adobe Illustrator 24.0.2, SVG Export Plug-In . SVG Version: 6.00 Build 0)  -->
<svg version="1.1" id="Слой_1" xmlns="http://www.w3.org/2000/svg" xmlns:xlink="http://www.w3.org/1999/xlink" x="0px" y="0px"
	 width="26px" height="26px" viewBox="0 0 26 26" style="enable-background:new 0 0 26 26;" xml:space="preserve">
<style type="text/css">
	.st0{fill-rule:evenodd;clip-rule:evenodd;fill:#fff;}
</style>
<path class="st0" d="M9.9,6.5H16c3.8,0,6.9,3.1,6.9,7c0,0.3,0,0.6-0.1,0.9c-0.3-0.5-0.7-1-1.2-1.3c-0.2-3-2.7-5.4-5.7-5.4h-6
	c-3.2,0-5.7,2.6-5.7,5.8s2.6,5.8,5.7,5.8h1.2c0.1,0.4,0.2,0.8,0.4,1.2H9.9c-3.9,0-6.9-3.1-6.9-7S6.1,6.5,9.9,6.5z"/>
<path class="st0" d="M6,13.5c0,2.1,1.8,4,3.9,4H11c0.3-3.4,3.1-6,6.5-6c0.8,0,1.5,0.1,2.2,0.4c-0.6-1.4-2-2.4-3.6-2.4H9.9
	C7.8,9.5,6,11.4,6,13.5z"/>
<path class="st0" d="M22.5,18c0,2.8-2.2,5-5,5s-5-2.2-5-5s2.2-5,5-5S22.5,15.2,22.5,18z M17.5,18.5c-1.3,0-2.4,1.3-3,3h6
	C19.9,19.8,18.8,18.5,17.5,18.5z M19,16c0,0.8-0.7,1.5-1.5,1.5S16,16.8,16,16s0.7-1.5,1.5-1.5S19,15.2,19,16z"/>
</svg>
