<?xml version="1.0" encoding="utf-8"?>
<!-- Generator: Adobe Illustrator 24.0.2, SVG Export Plug-In . SVG Version: 6.00 Build 0)  -->
<svg version="1.1" id="Слой_1" xmlns="http://www.w3.org/2000/svg" xmlns:xlink="http://www.w3.org/1999/xlink" x="0px" y="0px"
	 width="26px" height="26px" viewBox="0 0 26 26" style="enable-background:new 0 0 26 26;" xml:space="preserve">
<style type="text/css">
	.st0{fill-rule:evenodd;clip-rule:evenodd;fill:#fff;}
</style>
<path class="st0" d="M13,4h4.4H21v1c0,2.4-1.1,4.6-2.8,6.1c-2.4,0.1-4.4,1.5-5.5,3.5c-1.3-0.6-1.6-3.4-1.6-9.1H8.5
	c0.2,5.4,1.7,9.4,3.5,9.4c0.2,0,0.4-0.1,0.6-0.1c0,0,0.1,0,0.1-0.1c-0.5,0.9-0.7,1.9-0.7,3c0,1.7,0.7,3.3,1.8,4.5h-0.4h-2.7H8.4
	c0-1,0.8-1.8,1.8-1.8v-0.5c0-0.2,0.2-0.5,0.5-0.5H11v-2.9c-1.2-0.5-2.3-2-3.1-4.1C5,11.2,3,8.3,3,5V4h3.6h4.6H13z M6.6,5.3H4.3
	c0.2,2.1,1.3,4.1,3,5.1C7,8.9,6.7,7.2,6.6,5.3z M17.3,5.3c0,1.9-0.4,3.6-0.7,5.1c1.8-1.1,2.9-3,3-5.1C19.6,5.3,17.3,5.3,17.3,5.3z"
	/>
<path class="st0" d="M23.5,17.5c0,2.8-2.2,5-5,5s-5-2.2-5-5s2.2-5,5-5S23.5,14.7,23.5,17.5z M18.5,18c-1.3,0-2.4,1.3-3,3h6
	C20.9,19.3,19.8,18,18.5,18z M20,15.5c0,0.8-0.7,1.5-1.5,1.5S17,16.3,17,15.5c0-0.8,0.7-1.5,1.5-1.5S20,14.7,20,15.5z"/>
</svg>
