<svg width="4" height="16" viewBox="0 0 4 16" fill="none" xmlns="http://www.w3.org/2000/svg">
    <path fill-rule="evenodd" clip-rule="evenodd" d="M-4.37114e-08 0.5C-1.95703e-08 0.776142 0.179086 1 0.4 1L3.6 1C3.82091 1 4 0.776142 4 0.5C4 0.223858 3.82091 8.31971e-08 3.6 1.0251e-07L0.4 3.82263e-07C0.179086 4.01576e-07 -6.78526e-08 0.223858 -4.37114e-08 0.5Z" fill="#5F5F5F"/>
    <path fill-rule="evenodd" clip-rule="evenodd" d="M-4.37114e-08 3.5C-1.95703e-08 3.77614 0.179086 4 0.4 4L3.6 4C3.82091 4 4 3.77614 4 3.5C4 3.22386 3.82091 3 3.6 3L0.4 3C0.179086 3 -6.78526e-08 3.22386 -4.37114e-08 3.5Z" fill="#5F5F5F"/>
    <path fill-rule="evenodd" clip-rule="evenodd" d="M-4.37114e-08 6.5C-1.95703e-08 6.77614 0.179086 7 0.4 7L3.6 7C3.82091 7 4 6.77614 4 6.5C4 6.22386 3.82091 6 3.6 6L0.4 6C0.179086 6 -6.78526e-08 6.22386 -4.37114e-08 6.5Z" fill="#ECBD17"/>
    <path fill-rule="evenodd" clip-rule="evenodd" d="M-4.37114e-08 9.5C-1.95703e-08 9.77614 0.179086 10 0.4 10L3.6 10C3.82091 10 4 9.77614 4 9.5C4 9.22386 3.82091 9 3.6 9L0.4 9C0.179086 9 -6.78526e-08 9.22386 -4.37114e-08 9.5Z" fill="#ECBD17"/>
    <path fill-rule="evenodd" clip-rule="evenodd" d="M-4.37114e-08 12.5C-1.95703e-08 12.7761 0.179086 13 0.4 13L3.6 13C3.82091 13 4 12.7761 4 12.5C4 12.2239 3.82091 12 3.6 12L0.4 12C0.179086 12 -6.78526e-08 12.2239 -4.37114e-08 12.5Z" fill="#ECBD17"/>
    <path fill-rule="evenodd" clip-rule="evenodd" d="M-4.37114e-08 15.5C-1.95703e-08 15.7761 0.179086 16 0.4 16L3.6 16C3.82091 16 4 15.7761 4 15.5C4 15.2239 3.82091 15 3.6 15L0.4 15C0.179086 15 -6.78526e-08 15.2239 -4.37114e-08 15.5Z" fill="#ECBD17"/>
    <path d="M3.86314 12.1369C4.04562 12.3193 4.04562 12.6152 3.86314 12.7977L2.66095 13.9999L3.8623 15.2012C4.04477 15.3837 4.04477 15.6795 3.8623 15.862C3.67982 16.0445 3.38397 16.0445 3.2015 15.862L2.00015 14.6607L0.797655 15.8631C0.61518 16.0456 0.31933 16.0456 0.136856 15.8631C-0.0456187 15.6807 -0.0456186 15.3848 0.136856 15.2023L1.33935 13.9999L0.13821 12.7987C-0.0442644 12.6162 -0.0442647 12.3204 0.13821 12.1379C0.320684 11.9554 0.616534 11.9554 0.799009 12.1379L2.00015 13.3391L3.20235 12.1369C3.38482 11.9544 3.68067 11.9544 3.86314 12.1369Z" fill="transparent"/>
</svg>


