<svg xmlns="http://www.w3.org/2000/svg" width="14" height="10" viewBox="0 0 14 10" fill="none">
    <path d="M12.2648 7.10526C12.4015 7.24194 12.4015 7.46355 12.2648 7.60023L11.3643 8.50075L12.2642 9.40063C12.4009 9.53731 12.4009 9.75892 12.2642 9.8956C12.1275 10.0323 11.9059 10.0323 11.7692 9.8956L10.8693 8.99572L9.96858 9.89645C9.8319 10.0331 9.61029 10.0331 9.47361 9.89645C9.33692 9.75977 9.33692 9.53816 9.47361 9.40148L10.3743 8.50075L9.47462 7.60103C9.33794 7.46434 9.33794 7.24274 9.47462 7.10605C9.6113 6.96937 9.83291 6.96937 9.9696 7.10605L10.8693 8.00577L11.7698 7.10526C11.9065 6.96858 12.1281 6.96858 12.2648 7.10526Z" fill="transparent"/>
    <path fill-rule="evenodd" clip-rule="evenodd" d="M7 8.5C7.4125 8.5 7.75 8.8375 7.75 9.25C7.75 9.6625 7.4125 10 7 10C6.5875 10 6.25 9.6625 6.25 9.25C6.25 8.8375 6.5875 8.5 7 8.5Z" fill="#ECBD17"/>
    <path d="M8.87354 7.8534C9.01022 7.71674 9.01135 7.4933 8.85979 7.37337C8.34851 6.96877 7.70232 6.72729 6.99972 6.72729C6.29711 6.72729 5.65092 6.96877 5.13964 7.37337C4.98808 7.49331 4.98922 7.71674 5.12589 7.8534C5.26257 7.99005 5.48284 7.98749 5.63855 7.873C6.01968 7.59275 6.49036 7.42725 6.99972 7.42725C7.50907 7.42725 7.97976 7.59275 8.36089 7.873C8.5166 7.98749 8.73687 7.99005 8.87354 7.8534Z" fill="#ECBD17"/>
    <path d="M10.288 6.43918C10.4247 6.30247 10.4254 6.07981 10.2795 5.95296C9.40161 5.18949 8.25474 4.72729 6.9999 4.72729C5.74506 4.72729 4.59819 5.18949 3.72028 5.95296C3.5744 6.07981 3.57515 6.30247 3.71182 6.43918C3.84852 6.57592 4.06932 6.57472 4.21664 6.4495C4.96671 5.81201 5.93839 5.42725 6.9999 5.42725C8.06141 5.42725 9.03309 5.81201 9.78316 6.4495C9.93048 6.57472 10.1513 6.57592 10.288 6.43918Z" fill="#ECBD17"/>
    <path d="M11.7018 5.02503C11.8385 4.88837 11.8391 4.66608 11.6958 4.53636C10.4539 3.41204 8.80669 2.72729 6.99955 2.72729C5.19241 2.72729 3.54522 3.41204 2.30331 4.53636C2.16002 4.66608 2.16061 4.88837 2.29728 5.02503C2.43396 5.16169 2.6549 5.16088 2.79889 5.03196C3.91356 4.034 5.38569 3.42725 6.99955 3.42725C8.61341 3.42725 10.0855 4.034 11.2002 5.03196C11.3442 5.16088 11.5651 5.16169 11.7018 5.02503Z" fill="#5F5F5F"/>
    <path d="M12.616 3.6161C12.7583 3.74697 12.9795 3.74754 13.1162 3.6108C13.2529 3.47409 13.2533 3.25195 13.1114 3.12065C11.5064 1.63517 9.35909 0.727295 6.99969 0.727295C4.64029 0.727295 2.49294 1.63517 0.88794 3.12065C0.746077 3.25195 0.746513 3.47409 0.883172 3.6108C1.01986 3.74754 1.24104 3.74697 1.38336 3.6161C2.86134 2.25715 4.83361 1.42725 6.99969 1.42725C9.16576 1.42725 11.138 2.25715 12.616 3.6161Z" fill="#5F5F5F"/>
</svg>