<svg width="26" height="26" viewBox="0 0 26 26" fill="none" xmlns="http://www.w3.org/2000/svg">
<g opacity="0.3">
<path fill-rule="evenodd" clip-rule="evenodd" d="M15.8906 4C15.5319 4 15.2411 4.29078 15.2411 4.64948V20.7008H10.7589V10.4375H12.5504C12.9091 10.4375 13.1998 10.1467 13.1998 9.78798C13.1998 9.42928 12.9091 9.1385 12.5504 9.1385H10.1095C9.75076 9.1385 9.45998 9.42928 9.45998 9.78798V20.701H5.29897V14.2918H6.70499C7.06369 14.2918 7.35447 14.001 7.35447 13.6423C7.35447 13.2836 7.06369 12.9929 6.70499 12.9929H4.64948C4.29078 12.9929 4 13.2836 4 13.6423V21.3505C4 21.7092 4.29078 22 4.64948 22H11.908L11.9273 21.9997H15.8713C15.8777 21.9999 15.8841 22 15.8906 22H21.3505C21.7092 22 22 21.7092 22 21.3505V4.64948C22 4.29078 21.7092 4 21.3505 4H15.8906ZM16.54 20.701V5.29897H20.701V20.701H16.54Z" fill="#fff"/>
</g>
</svg>
