<svg id="Layer_1" xmlns="http://www.w3.org/2000/svg" xmlns:xlink="http://www.w3.org/1999/xlink" viewBox="0 0 50 48.998"><defs><style>.cls-1{fill:url(#radial-gradient);}.cls-2{opacity:0.7;fill:url(#radial-gradient-2);}.cls-18,.cls-2,.cls-24,.cls-3{isolation:isolate;}.cls-3{opacity:0.5;fill:url(#radial-gradient-3);}.cls-4{fill:url(#linear-gradient);}.cls-5{fill:url(#linear-gradient-2);}.cls-6{fill:url(#radial-gradient-4);}.cls-7{fill:url(#linear-gradient-3);}.cls-8{fill:url(#linear-gradient-4);}.cls-9{fill:#eb3000;}.cls-10{fill:url(#radial-gradient-5);}.cls-11{fill:url(#linear-gradient-5);}.cls-12{fill:#d8d6d6;}.cls-13{fill:#890000;}.cls-14{fill:#ebebeb;}.cls-15{fill:#c60000;}.cls-16{fill:url(#linear-gradient-6);}.cls-17{fill:url(#linear-gradient-7);}.cls-18,.cls-24{opacity:0.43;}.cls-18{fill:url(#linear-gradient-8);}.cls-19{fill:url(#linear-gradient-9);}.cls-20{fill:#650089;}.cls-21{fill:#fff;}.cls-22{fill:url(#linear-gradient-10);}.cls-23{fill:#8700c6;}.cls-24{fill:url(#linear-gradient-11);}</style><radialGradient id="radial-gradient" cx="-19.119" cy="132.674" r="1" gradientTransform="matrix(-13.5, 0, 0, 4.842, -221.601, -597.755)" gradientUnits="userSpaceOnUse"><stop offset="0.371"/><stop offset="0.77" stop-opacity="0.199"/><stop offset="1" stop-opacity="0"/></radialGradient><radialGradient id="radial-gradient-2" cx="-23.693" cy="250.82" r="1" gradientTransform="matrix(-10.999, 0, 0, 1.979, -249.578, -452.889)" gradientUnits="userSpaceOnUse"><stop offset="0"/><stop offset="0.634" stop-opacity="0.199"/><stop offset="1" stop-opacity="0"/></radialGradient><radialGradient id="radial-gradient-3" cx="-11.634" cy="250.82" r="1.001" gradientTransform="matrix(-21.5, 0, 0, 1.979, -228.627, -452.889)" xlink:href="#radial-gradient-2"/><linearGradient id="linear-gradient" x1="286.839" y1="-388.314" x2="291.228" y2="-348.315" gradientTransform="matrix(1, 0, 0, -1, -272.6, -343.96)" gradientUnits="userSpaceOnUse"><stop offset="0" stop-color="#c1c1c2"/><stop offset="0.1" stop-color="#cacacb"/><stop offset="0.425" stop-color="#e0e0e1"/><stop offset="0.732" stop-color="#eeeeef"/><stop offset="1" stop-color="#f3f3f4"/></linearGradient><linearGradient id="linear-gradient-2" x1="296.229" y1="-369.77" x2="281.463" y2="-363.262" gradientTransform="matrix(1, 0, 0, -1, -272.6, -343.96)" gradientUnits="userSpaceOnUse"><stop offset="0" stop-color="#8b8b8b"/><stop offset="0.181" stop-color="#aaaaab"/><stop offset="0.404" stop-color="#cacaca"/><stop offset="0.62" stop-color="#e1e1e1"/><stop offset="0.823" stop-color="#eeeeef"/><stop offset="1" stop-color="#f3f3f4"/></linearGradient><radialGradient id="radial-gradient-4" cx="36.17" cy="-0.209" r="1" gradientTransform="matrix(7.723, 0, 0, -7.723, -267.51, 21.278)" gradientUnits="userSpaceOnUse"><stop offset="0" stop-color="#6f706d"/><stop offset="0.829" stop-color="#050505"/></radialGradient><linearGradient id="linear-gradient-3" x1="316.532" y1="-349.097" x2="297.032" y2="-379.708" gradientTransform="matrix(1, 0, 0, -1, -272.6, -343.96)" gradientUnits="userSpaceOnUse"><stop offset="0" stop-color="#fff"/><stop offset="0.406" stop-color="#fcfcfc"/><stop offset="0.711" stop-color="#f2f2f2"/><stop offset="0.982" stop-color="#e2e2e2"/><stop offset="1" stop-color="#e1e1e1"/></linearGradient><linearGradient id="linear-gradient-4" x1="297.731" y1="-358.091" x2="317.337" y2="-375.252" gradientTransform="matrix(1, 0, 0, -1, -272.6, -343.96)" gradientUnits="userSpaceOnUse"><stop offset="0" stop-color="#e1e1e1"/><stop offset="0.116" stop-color="#ececec"/><stop offset="0.316" stop-color="#fafafa"/><stop offset="0.491" stop-color="#fff"/><stop offset="0.698" stop-color="#fcfcfc"/><stop offset="0.853" stop-color="#f2f2f2"/><stop offset="0.991" stop-color="#e2e2e2"/><stop offset="1" stop-color="#e1e1e1"/></linearGradient><radialGradient id="radial-gradient-5" cx="24.328" cy="17.034" r="1" gradientTransform="matrix(11.643, 0, 0, -11.643, -243.322, 217.831)" gradientUnits="userSpaceOnUse"><stop offset="0" stop-color="#ff7129"/><stop offset="0.108" stop-color="#f56021"/><stop offset="0.351" stop-color="#e14113"/><stop offset="0.586" stop-color="#d32a08"/><stop offset="0.807" stop-color="#cb1c02"/><stop offset="1" stop-color="#c81700"/></radialGradient><linearGradient id="linear-gradient-5" x1="312.134" y1="-388.482" x2="310.376" y2="-380.01" gradientTransform="matrix(1, 0, 0, -1, -272.6, -343.96)" gradientUnits="userSpaceOnUse"><stop offset="0" stop-color="#fff"/><stop offset="1" stop-color="#ded0b3"/></linearGradient><linearGradient id="linear-gradient-6" x1="299.645" y1="-387.487" x2="309.391" y2="-387.487" gradientTransform="matrix(1, 0, 0, -1, -272.6, -343.96)" gradientUnits="userSpaceOnUse"><stop offset="0" stop-opacity="0.1"/><stop offset="1" stop-opacity="0.2"/></linearGradient><linearGradient id="linear-gradient-7" x1="320.49" y1="-383.859" x2="320.456" y2="-383.844" gradientTransform="matrix(1, 0, 0, -1, -272.6, -343.96)" gradientUnits="userSpaceOnUse"><stop offset="0" stop-color="#ffdf9e"/><stop offset="1" stop-color="#a1a1a1"/></linearGradient><linearGradient id="linear-gradient-8" x1="312.567" y1="-388.886" x2="309.556" y2="-379.418" xlink:href="#linear-gradient-5"/><linearGradient id="linear-gradient-9" x1="303.083" y1="-381.435" x2="312.409" y2="-391.699" gradientTransform="matrix(1, 0, 0, -1, -272.6, -343.96)" gradientUnits="userSpaceOnUse"><stop offset="0" stop-opacity="0.5"/><stop offset="1" stop-opacity="0"/></linearGradient><linearGradient id="linear-gradient-10" x1="303.922" y1="-385.695" x2="297.113" y2="-377.034" gradientTransform="matrix(1, 0, 0, -1, -272.6, -343.96)" gradientUnits="userSpaceOnUse"><stop offset="0" stop-color="#fff"/><stop offset="1" stop-color="#bdad9d"/></linearGradient><linearGradient id="linear-gradient-11" x1="303.906" y1="-385.737" x2="298.099" y2="-378.352" xlink:href="#linear-gradient-5"/></defs><title>poker_global_tab_icon</title><path class="cls-1" d="M23,44.659c0,2.674,6.043,4.84,13.5,4.84S50,47.333,50,44.659s-6.042-4.845-13.5-4.845S23,41.985,23,44.659Z" transform="translate(0 -0.501)"/><path class="cls-2" d="M0,43.52C0,44.614,4.924,45.5,11,45.5s11-.885,11-1.979-4.924-1.98-11-1.98S0,42.427,0,43.52Z" transform="translate(0 -0.501)"/><path class="cls-3" d="M0,43.52C0,44.614,9.625,45.5,21.5,45.5S43,44.614,43,43.52s-9.625-1.98-21.5-1.98S0,42.427,0,43.52Z" transform="translate(0 -0.501)"/><path class="cls-4" d="M32.982,35.879a1.882,1.882,0,0,1-1.334,2.3L11.263,43.613a1.883,1.883,0,0,1-2.3-1.334L.244,9.556a1.882,1.882,0,0,1,1.334-2.3L21.963,1.824a1.883,1.883,0,0,1,2.3,1.334Z" transform="translate(0 -0.501)"/><path class="cls-5" d="M10.778,42.676a.883.883,0,0,1-.851-.655L1.21,9.3a.883.883,0,0,1,.625-1.079L22.22,2.789a.88.88,0,0,1,1.079.625l8.717,32.723a.882.882,0,0,1-.625,1.079L11.006,42.647A.932.932,0,0,1,10.778,42.676Z" transform="translate(0 -0.501)"/><path class="cls-6" d="M23.68,23.635c-.983-3.672-6.225-4.276-8.74-7.262l-.037-.041-.012.053c-.685,3.846-4.923,6.988-3.94,10.657.825,3.07,5.2,3.168,6.491.069a5.064,5.064,0,0,1,.226,1.387,13.526,13.526,0,0,1-1.786,5.391c.885-1.3,5.538-2.542,6.951-1.863a13.955,13.955,0,0,1-4.242-3.777,8.037,8.037,0,0,1-.584-1.327A3.432,3.432,0,0,0,23.68,23.635Z" transform="translate(0 -0.501)"/><path d="M5.847,14.162a.1.1,0,0,0-.122-.054l-.827.221a.079.079,0,0,0-.05.081l.1,1.035a.185.185,0,0,0,.1.147l.3.14c.057.033.134.052.141.078s-.008.06-.064.075l-1.285.345a.06.06,0,0,1-.081-.036c-.007-.027.028-.075.054-.111l.245-.336a.335.335,0,0,0,.029-.249L3.78,9.177a.091.091,0,0,1,.067-.1l.413-.111a.112.112,0,0,1,.127.072L7.069,14.79A.357.357,0,0,0,7.257,15l.387.147c.041.018.082.036.089.063s-.008.06-.064.075l-1.609.432c-.056.015-.085-.006-.092-.033s.03-.066.056-.1l.236-.324a.193.193,0,0,0,.007-.2Zm-.306-.517a.047.047,0,0,0,.028-.075l-.982-2.1-.023.006.225,2.313c0,.039.026.051.048.045Z" transform="translate(0 -0.501)"/><path class="cls-7" d="M41.113,41.061a1.882,1.882,0,0,1-2.307,1.327L18.438,36.893a1.881,1.881,0,0,1-1.326-2.307L25.934,1.893A1.881,1.881,0,0,1,28.241.567l20.367,5.5a1.882,1.882,0,0,1,1.326,2.307Z" transform="translate(0 -0.501)"/><path class="cls-8" d="M39.3,41.453a.868.868,0,0,1-.231-.031L18.7,35.926a.883.883,0,0,1-.622-1.081L26.9,2.152a.885.885,0,0,1,.85-.652.868.868,0,0,1,.231.031l20.366,5.5a.882.882,0,0,1,.622,1.081L40.148,40.8A.883.883,0,0,1,39.3,41.453Z" transform="translate(0 -0.501)"/><path class="cls-9" d="M29.046,8.835a.1.1,0,0,0-.079-.108l-.827-.222a.079.079,0,0,0-.084.045l-.433.945a.183.183,0,0,0,.013.177l.191.272c.032.057.09.112.083.138s-.037.048-.093.033l-1.285-.344c-.046-.011-.06-.044-.053-.071s.062-.051.1-.069l.38-.168a.338.338,0,0,0,.15-.2l2.637-5.777a.091.091,0,0,1,.111-.057l.413.111a.112.112,0,0,1,.074.125L29.79,9.989a.35.35,0,0,0,.058.276l.262.321c.026.036.052.072.045.1s-.037.048-.093.033l-1.609-.431c-.056-.015-.071-.048-.063-.075s.059-.042.1-.06l.367-.162a.194.194,0,0,0,.1-.165Zm-.007-.6a.047.047,0,0,0,.061-.051l.2-2.31-.023-.006-.962,2.116a.038.038,0,0,0,.019.063Z" transform="translate(0 -0.501)"/><path class="cls-10" d="M34.31,18.54c-.908-3.782-5.822-3.728-6.7-.454-.983,3.669,3.408,6.236,4.094,10.08l.012.055.037-.041c2.515-2.987,7.6-3.014,8.586-6.683C41.216,18.222,36.988,15.718,34.31,18.54Z" transform="translate(0 -0.501)"/><path class="cls-11" d="M47.866,39.866c-.511-1.717-2.81-2.5-4.339-2.913a18.886,18.886,0,0,0-6.037-.57,14.179,14.179,0,0,0-6.124,1.543,3.622,3.622,0,0,0-1.9,2.018A2.35,2.35,0,0,0,30.475,42.3a7.762,7.762,0,0,0,3.32,1.587,21.06,21.06,0,0,0,4.576.572,20.243,20.243,0,0,0,4.481-.41,12.979,12.979,0,0,0,1.839-.536,9.561,9.561,0,0,0,1.119-.5c.2-.107.614-.268.722-.464.1.012.393-.268.513-.379a3.334,3.334,0,0,0,.592-.706,1.943,1.943,0,0,0,.229-1.6C47.843,39.79,47.923,40.047,47.866,39.866Z" transform="translate(0 -0.501)"/><path class="cls-12" d="M30.476,42.312v2.18a2.622,2.622,0,0,1-1.065-1.747V40.539h0A2.568,2.568,0,0,0,30.476,42.312Z" transform="translate(0 -0.501)"/><path class="cls-13" d="M34.753,44.094V46.27a9.787,9.787,0,0,1-4.278-1.777v-2.18A9.78,9.78,0,0,0,34.753,44.094Z" transform="translate(0 -0.501)"/><path class="cls-13" d="M46.533,42.58v2.176a11.406,11.406,0,0,1-4.744,1.653V44.233A11.434,11.434,0,0,0,46.533,42.58Z" transform="translate(0 -0.501)"/><path class="cls-12" d="M47.945,42.505a2.717,2.717,0,0,1-1.412,2.252V42.581a2.786,2.786,0,0,0,1.416-2.162l0,2.082Z" transform="translate(0 -0.501)"/><path class="cls-12" d="M41.789,44.233v2.18a20.972,20.972,0,0,1-3.566.219,19.9,19.9,0,0,1-3.471-.362V44.094a20.054,20.054,0,0,0,3.471.361A20.459,20.459,0,0,0,41.789,44.233Z" transform="translate(0 -0.501)"/><path class="cls-14" d="M30.476,42.3v.015a2.575,2.575,0,0,1-1.062-1.773,1.828,1.828,0,0,1,.135-.836c.012-.026.023-.057.038-.083l2.824.456a1.464,1.464,0,0,0,.418.967Z" transform="translate(0 -0.501)"/><path class="cls-14" d="M36.387,36.477l-.177,1.107a9.556,9.556,0,0,0-1.728.475l-2.651-.372A14.635,14.635,0,0,1,36.387,36.477Z" transform="translate(0 -0.501)"/><path class="cls-15" d="M41.051,37.6c.026,0,.049.011.075.014l-.06.3a11.012,11.012,0,0,0-2.455-.267,11.425,11.425,0,0,0-2.341.226l-.06-.29.177-1.107v0c.358-.038.727-.072,1.1-.091.188-.011.376-.023.567-.027.173-.007.35-.011.527-.011h.2c.181,0,.361,0,.539.011s.38.015.572.027c.128,0,.256.015.384.027a.351.351,0,0,1,.056,0c.113.008.222.019.336.031.034,0,.071,0,.1.007.076.008.151.019.227.027Z" transform="translate(0 -0.501)"/><path class="cls-15" d="M33.424,40.728c.606.8,2.2,1.438,4.247,1.582.113.007.222.015.335.018l-.015.395c-.309-.008-.61-.03-.9-.064l-2.338,1.435a13.892,13.892,0,0,1-2.534-.7l-.189-.078A6.389,6.389,0,0,1,30.475,42.3l2.353-1.254a1.466,1.466,0,0,1-.418-.967l-2.824-.456c.019-.045.041-.087.064-.132a2.97,2.97,0,0,1,.211-.336l.079-.1a1.672,1.672,0,0,1,.109-.128,1.239,1.239,0,0,1,.094-.1c.056-.056.113-.109.17-.166a6.42,6.42,0,0,1,1.517-.975l2.651.372a9.579,9.579,0,0,1,1.728-.475l.06.29-.109.023a8.18,8.18,0,0,0-.956.264c-1.073.373-1.849.926-2.018,1.574a1.01,1.01,0,0,0-.015.463A1.313,1.313,0,0,0,33.424,40.728Z" transform="translate(0 -0.501)"/><path class="cls-15" d="M41.128,37.614a9.361,9.361,0,0,1,1.653.483l2.861-.365a6.12,6.12,0,0,1,1.344.874h0l.147.135.03.03c.056.056.109.117.162.173s.094.113.139.169l0,.008a1.673,1.673,0,0,1,.128.181,2.429,2.429,0,0,1,.181.339c.019.048.038.094.053.139l-3.106.418a1.64,1.64,0,0,1-.56.986l2.367,1.4a8.746,8.746,0,0,1-1.971.979,12.441,12.441,0,0,1-2.771.662L39.571,42.7c-.406.031-.821.046-1.246.038-.113,0-.222,0-.331-.015l.015-.395c.109,0,.222.012.339.012.23,0,.456,0,.678-.012,2.1-.079,3.821-.678,4.556-1.484a1.494,1.494,0,0,0,.328-.538,1,1,0,0,0,.037-.475c-.1-.67-.851-1.25-1.924-1.637a7.142,7.142,0,0,0-.952-.279Z" transform="translate(0 -0.501)"/><path class="cls-16" d="M46.534,42.581a11.421,11.421,0,0,1-4.744,1.652,20.656,20.656,0,0,1-3.566.222,20.054,20.054,0,0,1-3.471-.361,9.786,9.786,0,0,1-4.278-1.781,2.575,2.575,0,0,1-1.062-1.773h0v2.206a2.63,2.63,0,0,0,1.065,1.747,9.782,9.782,0,0,0,4.278,1.777,19.994,19.994,0,0,0,3.471.362,20.985,20.985,0,0,0,3.566-.219v0a11.406,11.406,0,0,0,4.744-1.653A2.715,2.715,0,0,0,47.945,42.5v0l0-2.082A2.787,2.787,0,0,1,46.534,42.581Z" transform="translate(0 -0.501)"/><path class="cls-17" d="M47.866,39.866c.057.181-.023-.076,0,0Z" transform="translate(0 -0.501)"/><path class="cls-18" d="M47.888,40.443a2.292,2.292,0,0,1-.135.36l-.043.081v0a2.99,2.99,0,0,1-.168.265c-.042.056-.085.113-.131.168a3.8,3.8,0,0,1-.3.323,6.466,6.466,0,0,1-1.767,1.114h-.005a15.414,15.414,0,0,1-4.314,1.112v0l-.255.032c-.244.027-.495.048-.742.062-.075.006-.149.012-.227.016-.1.008-.212.01-.321.015-.176.006-.353.012-.532.013l-.1,0q-.664,0-1.3-.03c-.267-.015-.532-.034-.791-.059v0a16.1,16.1,0,0,1-4.443-1.011H32.3A7.538,7.538,0,0,1,30.619,42a1.663,1.663,0,0,1-.167-.131c-.053-.041-.1-.085-.151-.129l-.006-.006a2.015,2.015,0,0,1-.157-.149,2.366,2.366,0,0,1-.187-.2.454.454,0,0,1-.061-.074.04.04,0,0,1-.013-.013c-.052-.066-.1-.132-.142-.2l-.006-.006v0a.892.892,0,0,1-.051-.079,2.444,2.444,0,0,1-.2-.4,1.851,1.851,0,0,1-.1-.774,1.857,1.857,0,0,0,.019,1.256,2.406,2.406,0,0,0,.2.4c.016.027.035.055.051.079v0l.006.006c.043.067.091.132.142.2a.04.04,0,0,0,.013.013.454.454,0,0,0,.061.074,2.524,2.524,0,0,0,.187.2,2.015,2.015,0,0,0,.157.149l.006.006c.047.044.1.088.151.129a1.784,1.784,0,0,0,.167.131,7.582,7.582,0,0,0,1.682.913h.007A16.062,16.062,0,0,0,36.671,44.4v0c.259.025.524.045.791.059.425.024.859.033,1.3.03l.095,0c.179,0,.355-.007.532-.013.108-.006.216-.008.321-.015.078,0,.153-.01.227-.016.247-.014.5-.035.742-.062l.255-.032v0a15.414,15.414,0,0,0,4.314-1.112h.005a6.451,6.451,0,0,0,1.767-1.114,3.964,3.964,0,0,0,.3-.323c.046-.055.089-.112.131-.168a2.99,2.99,0,0,0,.168-.265v0l.043-.081A1.965,1.965,0,0,0,47.888,40.443Z" transform="translate(0 -0.501)"/><path class="cls-19" d="M37.628,38.243c-2.069.1-4.431-1.338-6.261-.317a3.622,3.622,0,0,0-1.9,2.018,5.989,5.989,0,0,0-.059,1.468c0,.436-.026.88,0,1.316a2.979,2.979,0,0,0,1.5,2.095,14.187,14.187,0,0,0,6.713,1.79l-.985-2.241C38.776,39.636,37.628,38.243,37.628,38.243Z" transform="translate(0 -0.501)"/><path class="cls-12" d="M37.347,36.6a3.555,3.555,0,0,1,0,2.763h0l0,0-.859-2.5a4.021,4.021,0,0,0-.207-2.5l0,0A13.469,13.469,0,0,1,37.347,36.6Z" transform="translate(0 -0.501)"/><path class="cls-12" d="M34.565,42.327l0,.007A18.359,18.359,0,0,1,31.3,43.958a18.948,18.948,0,0,1-3.495.992v-.01l-1.156-2.2a18.853,18.853,0,0,0,3.376-.978,20.113,20.113,0,0,0,3.3-1.6Z" transform="translate(0 -0.501)"/><path class="cls-12" d="M21.962,42.616l.973,2.136v0a3.065,3.065,0,0,1-1.742-1.347l-.006-.017-.843-2.065A2.747,2.747,0,0,0,21.962,42.616Z" transform="translate(0 -0.501)"/><path class="cls-20" d="M37.343,39.363l0,0a8.671,8.671,0,0,1-2.779,2.968l0-.007-1.243-2.172a7.926,7.926,0,0,0,3.162-3.294Z" transform="translate(0 -0.501)"/><path class="cls-20" d="M27.8,44.94v.01a9.8,9.8,0,0,1-4.87-.194v0l-.973-2.136a9.5,9.5,0,0,0,4.686.121Z" transform="translate(0 -0.501)"/><path class="cls-21" d="M25.487,36.7a7.965,7.965,0,0,0-.723.531,2.721,2.721,0,0,0-1.242,2.01.961.961,0,0,0,.135.41,1.207,1.207,0,0,0,.407.384c.836.512,2.538.512,4.485-.117.105-.033.21-.068.316-.106s.207-.078.313-.121c.211-.078.414-.165.614-.255,1.86-.847,3.08-1.98,3.3-2.907a1.076,1.076,0,0,0,0-.546.949.949,0,0,0-.207-.384,3.016,3.016,0,0,0-2.387-.6,7.214,7.214,0,0,0-.908.105,11.193,11.193,0,0,0-4.105,1.6Z" transform="translate(0 -0.501)"/><path class="cls-14" d="M25.423,36.439l-.23-.888a14.558,14.558,0,0,0-3.453,2.425l2.376-.587A9.021,9.021,0,0,1,25.423,36.439Z" transform="translate(0 -0.501)"/><path class="cls-14" d="M29.546,34.852a9.54,9.54,0,0,1,1.54-.177L33.228,33.5a15.214,15.214,0,0,0-4.277.584l.5.783C29.482,34.863,29.512,34.859,29.546,34.852Z" transform="translate(0 -0.501)"/><path class="cls-21" d="M36.493,34.6a2.2,2.2,0,0,0-.309-.29c-.023-.019-.049-.037-.072-.053l-2.38,1.356a1.229,1.229,0,0,1,.045.979l2.85.3.026.034A2.037,2.037,0,0,0,36.493,34.6Z" transform="translate(0 -0.501)"/><path class="cls-21" d="M30.468,39.569a11.958,11.958,0,0,1-1.126.5c-.113.046-.226.087-.339.124-.279.1-.557.188-.832.268l-1.6,2.308.008.023a19.873,19.873,0,0,0,3.5-1.017,19.687,19.687,0,0,0,3.253-1.6l-.011-.023Z" transform="translate(0 -0.501)"/><path class="cls-22" d="M36.493,34.6a2.2,2.2,0,0,0-.309-.29c-.023-.019-.049-.037-.072-.053v0l-.007,0a2.287,2.287,0,0,0-.192-.128.026.026,0,0,0-.015-.007.42.42,0,0,0-.079-.045,2.2,2.2,0,0,0-.233-.117,1.965,1.965,0,0,0-.188-.08l-.008,0c-.057-.023-.117-.045-.177-.064a1.718,1.718,0,0,0-.192-.061,7.16,7.16,0,0,0-1.793-.248l-.006,0a15.226,15.226,0,0,0-4.269.583l0,0c-.237.064-.479.135-.719.211q-.576.182-1.163.407l-.083.034c-.158.061-.312.124-.466.188-.094.041-.189.079-.279.121-.068.03-.132.06-.2.09-.214.094-.429.2-.636.3l-.215.113v0a14.574,14.574,0,0,0-3.448,2.42l0,0a6.065,6.065,0,0,0-1.193,1.574,3.763,3.763,0,0,0-.162.387c-.023.064-.041.128-.06.192a2.936,2.936,0,0,0-.06.29v0l-.011.086a1.846,1.846,0,0,0,.09.821l.011.037a2.328,2.328,0,0,0,1.491,1.3l-.012-.034,0,0a6.539,6.539,0,0,0,1.892.35l.132,0a12.837,12.837,0,0,0,2.715-.215l.007-.01-.007.013.008.023a19.873,19.873,0,0,0,3.5-1.017,19.687,19.687,0,0,0,3.253-1.6l-.011-.023-.013-.006.013,0A12.209,12.209,0,0,0,35.433,38.5l.1-.1a5.8,5.8,0,0,0,1.1-1.51h0l.026.034A2.044,2.044,0,0,0,36.493,34.6Z" transform="translate(0 -0.501)"/><path class="cls-14" d="M22.938,39.813l-2.673.606-.011.086a1.846,1.846,0,0,0,.09.821l.011.037a2.328,2.328,0,0,0,1.491,1.3l-.012-.034,1.8-2.093A1.331,1.331,0,0,1,22.938,39.813Z" transform="translate(0 -0.501)"/><path class="cls-23" d="M33.778,36.59a1.23,1.23,0,0,0-.045-.978l2.38-1.356-.007,0a2.287,2.287,0,0,0-.192-.128.026.026,0,0,0-.015-.007.42.42,0,0,0-.079-.045,2.2,2.2,0,0,0-.233-.117,1.965,1.965,0,0,0-.188-.08l-.008,0c-.057-.023-.117-.045-.177-.064a1.718,1.718,0,0,0-.192-.061,7.16,7.16,0,0,0-1.793-.248l-2.142,1.172a9.423,9.423,0,0,0-1.54.176c-.034.008-.064.012-.1.019l-.5-.783c-.237.064-.479.135-.719.211q-.576.181-1.163.407l-.083.034c-.158.061-.312.124-.466.188-.094.041-.189.079-.279.121-.068.03-.132.06-.2.09-.214.094-.429.2-.636.3l-.215.113.23.888a9.026,9.026,0,0,0-1.306.949l-2.376.587a6.065,6.065,0,0,0-1.193,1.574,3.763,3.763,0,0,0-.162.387c-.023.064-.041.128-.06.192a2.936,2.936,0,0,0-.06.29l2.673-.607a1.324,1.324,0,0,0,.693.723l-1.8,2.093a6.525,6.525,0,0,0,1.894.351l.132,0a12.837,12.837,0,0,0,2.715-.215l1.6-2.308c.275-.079.553-.165.832-.268.113-.037.226-.079.339-.124a11.933,11.933,0,0,0,1.126-.5l2.854.587A12.209,12.209,0,0,0,35.435,38.5l.1-.1a5.781,5.781,0,0,0,1.1-1.514Zm-.689-.067c-.218.926-1.438,2.059-3.3,2.906-.2.091-.4.177-.614.257-.106.042-.207.083-.313.121s-.211.072-.316.106c-1.947.629-3.649.629-4.485.116a1.207,1.207,0,0,1-.407-.384.966.966,0,0,1-.135-.41,2.719,2.719,0,0,1,1.242-2.01,8.108,8.108,0,0,1,.723-.531,10.79,10.79,0,0,1,1.961-1,11.065,11.065,0,0,1,2.142-.6,7.4,7.4,0,0,1,.908-.105,3.02,3.02,0,0,1,2.387.6.962.962,0,0,1,.207.384A1.049,1.049,0,0,1,33.089,36.523Z" transform="translate(0 -0.501)"/><path class="cls-24" d="M36.835,35.181a2.1,2.1,0,0,1,0,.363c0,.03-.008.056-.011.086v0a2.682,2.682,0,0,1-.061.29c-.019.064-.038.128-.06.192a3.484,3.484,0,0,1-.163.387,6.1,6.1,0,0,1-1.2,1.572l-.005,0a14.586,14.586,0,0,1-3.451,2.415v0l-.215.113c-.207.105-.422.207-.637.3-.064.03-.128.06-.2.09-.09.041-.185.079-.279.12-.154.064-.308.127-.467.188l-.083.034q-.588.225-1.164.4c-.241.076-.482.146-.72.21l0,0a15.216,15.216,0,0,1-4.27.578l-.006,0a7.139,7.139,0,0,1-1.792-.251,1.718,1.718,0,0,1-.192-.061c-.06-.019-.12-.041-.177-.064l-.008,0a1.739,1.739,0,0,1-.188-.08,2.3,2.3,0,0,1-.233-.117.454.454,0,0,1-.079-.045.034.034,0,0,1-.015-.007c-.068-.042-.132-.084-.192-.129l-.007,0v0a.872.872,0,0,1-.071-.053,2.319,2.319,0,0,1-.308-.291,1.765,1.765,0,0,1-.345-.652,1.752,1.752,0,0,0,.433,1.106,2.319,2.319,0,0,0,.308.291c.023.019.049.037.071.053v0l.007,0c.06.045.124.087.192.129a.026.026,0,0,0,.015.007.371.371,0,0,0,.079.045,2.112,2.112,0,0,0,.233.117,1.739,1.739,0,0,0,.188.08l.008,0c.057.023.117.045.177.064a1.718,1.718,0,0,0,.192.061,7.192,7.192,0,0,0,1.792.251l.006,0a15.184,15.184,0,0,0,4.27-.578l0,0c.237-.064.479-.134.72-.21q.576-.18,1.164-.405l.083-.034c.158-.06.312-.124.467-.188.094-.041.189-.079.279-.12.068-.03.132-.06.2-.09.215-.094.429-.2.637-.3l.215-.113v0a14.586,14.586,0,0,0,3.451-2.415l.005,0a6.114,6.114,0,0,0,1.2-1.572,3.911,3.911,0,0,0,.163-.387c.023-.064.041-.128.06-.192.026-.1.045-.2.061-.29v0c0-.03.008-.056.011-.086A1.857,1.857,0,0,0,36.835,35.181Z" transform="translate(0 -0.501)"/></svg>