<svg id="Layer_1" xmlns="http://www.w3.org/2000/svg" xmlns:xlink="http://www.w3.org/1999/xlink" viewBox="0 0 50.084 47.306"><defs><style>.cls-1{fill:none;}.cls-2{clip-path:url(#clip-path);}.cls-3{opacity:0.94;fill:url(#radial-gradient);}.cls-13,.cls-16,.cls-22,.cls-23,.cls-29,.cls-3,.cls-4{isolation:isolate;}.cls-4{opacity:0.9;fill:url(#radial-gradient-2);}.cls-5{fill:url(#radial-gradient-3);}.cls-6{fill:url(#radial-gradient-4);}.cls-7{fill:url(#linear-gradient);}.cls-8{fill:url(#linear-gradient-2);}.cls-9{fill:url(#linear-gradient-3);}.cls-10{fill:url(#linear-gradient-4);}.cls-11{fill:url(#linear-gradient-5);}.cls-12{fill:url(#linear-gradient-6);}.cls-13,.cls-16{opacity:0.6;}.cls-13{fill:url(#linear-gradient-7);}.cls-14{fill:url(#linear-gradient-8);}.cls-15{fill:url(#linear-gradient-9);}.cls-16{fill:url(#linear-gradient-10);}.cls-17{fill:url(#linear-gradient-11);}.cls-18,.cls-22,.cls-23{fill:#fff;}.cls-19{fill:url(#linear-gradient-12);}.cls-20{fill:url(#linear-gradient-13);}.cls-21{fill:url(#linear-gradient-14);}.cls-22{opacity:0.5;}.cls-23{opacity:0.3;}.cls-24{fill:url(#radial-gradient-5);}.cls-25{fill:url(#radial-gradient-6);}.cls-26{fill:url(#radial-gradient-7);}.cls-27{fill:url(#radial-gradient-8);}.cls-28{fill:url(#radial-gradient-9);}.cls-29{opacity:0.51;fill:url(#radial-gradient-10);}.cls-30{fill:url(#linear-gradient-15);}.cls-31{fill:url(#linear-gradient-16);}.cls-32{fill:url(#linear-gradient-17);}.cls-33{fill:url(#linear-gradient-18);}.cls-34{fill:url(#radial-gradient-11);}.cls-35{fill:url(#linear-gradient-19);}.cls-36{fill:url(#linear-gradient-20);}.cls-37{fill:url(#linear-gradient-21);}.cls-38{fill:url(#linear-gradient-22);}.cls-39{fill:url(#radial-gradient-12);}.cls-40{fill:url(#radial-gradient-13);}.cls-41{fill:url(#radial-gradient-14);}</style><clipPath id="clip-path" transform="translate(0.042 -1.347)"><rect class="cls-1" x="-0.042" y="1.347" width="50.083" height="47.307"/></clipPath><radialGradient id="radial-gradient" cx="-17.725" cy="200.227" r="1" gradientTransform="matrix(-16.794, -2.01, -0.288, 2.403, -222.754, -472.578)" gradientUnits="userSpaceOnUse"><stop offset="0"/><stop offset="0.956" stop-opacity="0"/></radialGradient><radialGradient id="radial-gradient-2" cx="-10.848" cy="323.108" r="1" gradientTransform="matrix(-10.989, 3.544, 0.519, 1.611, -248.106, -437.993)" xlink:href="#radial-gradient"/><radialGradient id="radial-gradient-3" cx="16.626" cy="9.911" r="1" gradientTransform="matrix(17.379, 0, 0, -9.645, -257.979, 119.067)" gradientUnits="userSpaceOnUse"><stop offset="0" stop-color="#f8db57"/><stop offset="0.115" stop-color="#e1c850"/><stop offset="1" stop-color="#34371b"/></radialGradient><radialGradient id="radial-gradient-4" cx="25.729" cy="-14.024" r="1" gradientTransform="matrix(10.981, 0, 0, -6.095, -251.582, -62.003)" gradientUnits="userSpaceOnUse"><stop offset="0" stop-color="#f8feff"/><stop offset="0.881" stop-color="#fff" stop-opacity="0"/></radialGradient><linearGradient id="linear-gradient" x1="292.327" y1="-364.323" x2="290.093" y2="-388.108" gradientTransform="matrix(1, 0, 0, -1, -272.6, -343.96)" gradientUnits="userSpaceOnUse"><stop offset="0" stop-color="#f3ffff"/><stop offset="1" stop-color="#dcffff"/></linearGradient><linearGradient id="linear-gradient-2" x1="311.852" y1="-364.975" x2="314.085" y2="-388.759" gradientTransform="matrix(1, 0, 0, -1, -272.6, -343.96)" gradientUnits="userSpaceOnUse"><stop offset="0" stop-color="#dee9ec"/><stop offset="0.022" stop-color="#cbe8eb"/><stop offset="1" stop-color="#8eacb8"/></linearGradient><linearGradient id="linear-gradient-3" x1="289.503" y1="-365.282" x2="291.668" y2="-388.338" gradientTransform="matrix(1, 0, 0, -1, -272.6, -343.96)" gradientUnits="userSpaceOnUse"><stop offset="0" stop-color="#0072e7"/><stop offset="1" stop-color="#005c9a"/></linearGradient><linearGradient id="linear-gradient-4" x1="312.467" y1="-365.371" x2="314.551" y2="-387.569" gradientTransform="matrix(1, 0, 0, -1, -272.6, -343.96)" gradientUnits="userSpaceOnUse"><stop offset="0" stop-color="#0054a4"/><stop offset="1" stop-color="#00437f"/></linearGradient><linearGradient id="linear-gradient-5" x1="309.511" y1="-355.912" x2="310.927" y2="-345.348" gradientTransform="matrix(1, 0, 0, -1, -272.6, -343.96)" gradientUnits="userSpaceOnUse"><stop offset="0" stop-color="#004885"/><stop offset="1" stop-color="#002561"/></linearGradient><linearGradient id="linear-gradient-6" x1="306.304" y1="-346.066" x2="304.292" y2="-353.597" gradientTransform="matrix(1, 0, 0, -1, -272.6, -343.96)" gradientUnits="userSpaceOnUse"><stop offset="0" stop-color="#005c9a"/><stop offset="0.318" stop-color="#00a9e2"/><stop offset="1" stop-color="#004081"/></linearGradient><linearGradient id="linear-gradient-7" x1="315.592" y1="-367.756" x2="316.675" y2="-365.458" gradientTransform="matrix(1, 0, 0, -1, -272.6, -343.96)" gradientUnits="userSpaceOnUse"><stop offset="0" stop-opacity="0"/><stop offset="1"/></linearGradient><linearGradient id="linear-gradient-8" x1="321.534" y1="-364.021" x2="303.256" y2="-354.465" xlink:href="#linear-gradient-2"/><linearGradient id="linear-gradient-9" x1="311.879" y1="-355.398" x2="315.023" y2="-364.753" xlink:href="#linear-gradient-4"/><linearGradient id="linear-gradient-10" x1="286.079" y1="-369.371" x2="284.143" y2="-365.259" xlink:href="#linear-gradient-7"/><linearGradient id="linear-gradient-11" x1="288.615" y1="-357.521" x2="290.893" y2="-364.299" xlink:href="#linear-gradient"/><linearGradient id="linear-gradient-12" x1="286.6" y1="-358.667" x2="288.71" y2="-364.947" xlink:href="#linear-gradient-3"/><linearGradient id="linear-gradient-13" x1="288.265" y1="-347.303" x2="291.181" y2="-356.032" gradientTransform="matrix(1, 0, 0, -1, -272.6, -343.96)" gradientUnits="userSpaceOnUse"><stop offset="0" stop-color="#003475"/><stop offset="1" stop-color="#005c9a"/></linearGradient><linearGradient id="linear-gradient-14" x1="283.869" y1="-358.531" x2="282.309" y2="-346.894" gradientTransform="matrix(1, 0, 0, -1, -272.6, -343.96)" gradientUnits="userSpaceOnUse"><stop offset="0" stop-color="#004081"/><stop offset="0.682" stop-color="#00a9e2"/><stop offset="1" stop-color="#005c9a"/></linearGradient><radialGradient id="radial-gradient-5" cx="472.554" cy="46.867" r="1" gradientTransform="matrix(0.708, 0.708, 15.091, -15.091, -1006.987, 391.932)" gradientUnits="userSpaceOnUse"><stop offset="0" stop-color="#fff"/><stop offset="0.782" stop-color="#fff" stop-opacity="0"/></radialGradient><radialGradient id="radial-gradient-6" cx="89.08" cy="73.127" r="1" gradientTransform="matrix(-0.708, 0.708, 15.091, 15.091, -1005.57, -1147.387)" xlink:href="#radial-gradient-5"/><radialGradient id="radial-gradient-7" cx="51.156" cy="41.632" r="1" gradientTransform="matrix(6.658, 6.658, 6.658, -6.658, -582.832, -44.319)" xlink:href="#radial-gradient-5"/><radialGradient id="radial-gradient-8" cx="-27.174" cy="188.069" r="1" gradientTransform="matrix(-9.639, 0, 0, 2.891, -252.324, -498.007)" gradientUnits="userSpaceOnUse"><stop offset="0.403"/><stop offset="0.811" stop-opacity="0.199"/><stop offset="1" stop-opacity="0"/></radialGradient><radialGradient id="radial-gradient-9" cx="31.002" cy="122.263" r="1" gradientTransform="matrix(-0.144, 13.108, 3.871, 0.043, -455.152, -380.693)" gradientUnits="userSpaceOnUse"><stop offset="0"/><stop offset="1" stop-opacity="0"/></radialGradient><radialGradient id="radial-gradient-10" cx="67.15" cy="-45.538" r="1" gradientTransform="matrix(4.105, 0, 0, -4.105, -259.106, -143.807)" gradientUnits="userSpaceOnUse"><stop offset="0.289"/><stop offset="1" stop-opacity="0"/></radialGradient><linearGradient id="linear-gradient-15" x1="274.297" y1="-387.524" x2="290.573" y2="-388.988" gradientTransform="matrix(1, 0, 0, -1, -272.6, -343.96)" gradientUnits="userSpaceOnUse"><stop offset="0" stop-color="#e44a15"/><stop offset="0.036" stop-color="#ed7725"/><stop offset="0.072" stop-color="#f59d33"/><stop offset="0.105" stop-color="#fab83d"/><stop offset="0.134" stop-color="#fec943"/><stop offset="0.156" stop-color="#ffcf45"/><stop offset="0.202" stop-color="#fbc33e"/><stop offset="0.285" stop-color="#f0a42a"/><stop offset="0.357" stop-color="#e48315"/><stop offset="0.395" stop-color="#ed9d26"/><stop offset="0.444" stop-color="#f7b837"/><stop offset="0.487" stop-color="#fdc941"/><stop offset="0.52" stop-color="#ffcf45"/><stop offset="0.567" stop-color="#fbc33e"/><stop offset="0.651" stop-color="#f0a42a"/><stop offset="0.726" stop-color="#e48315"/><stop offset="0.767" stop-color="#ed9d26"/><stop offset="0.819" stop-color="#f7b837"/><stop offset="0.865" stop-color="#fdc941"/><stop offset="0.899" stop-color="#ffcf45"/><stop offset="0.918" stop-color="#f6cf51"/><stop offset="0.951" stop-color="#dfcf70"/><stop offset="0.995" stop-color="#bbcfa3"/><stop offset="1" stop-color="#b6cfa9"/></linearGradient><linearGradient id="linear-gradient-16" x1="275.411" y1="-388.77" x2="289.667" y2="-383.336" gradientTransform="matrix(1, 0, 0, -1, -272.6, -343.96)" gradientUnits="userSpaceOnUse"><stop offset="0" stop-color="#ffbd54"/><stop offset="0.032" stop-color="#ffcf7a"/><stop offset="0.069" stop-color="#ffe1a0"/><stop offset="0.103" stop-color="#ffedbb"/><stop offset="0.133" stop-color="#fff5cc"/><stop offset="0.156" stop-color="#fff8d2"/><stop offset="0.187" stop-color="#fff2c6"/><stop offset="0.242" stop-color="#ffe4a7"/><stop offset="0.316" stop-color="#ffcc74"/><stop offset="0.357" stop-color="#ffbd54"/><stop offset="0.39" stop-color="#ffcf7a"/><stop offset="0.429" stop-color="#ffe1a0"/><stop offset="0.464" stop-color="#ffedbb"/><stop offset="0.496" stop-color="#fff5cc"/><stop offset="0.52" stop-color="#fff8d2"/><stop offset="0.551" stop-color="#fff2c6"/><stop offset="0.608" stop-color="#ffe4a7"/><stop offset="0.683" stop-color="#ffcc74"/><stop offset="0.726" stop-color="#ffbd54"/><stop offset="0.761" stop-color="#ffcf7a"/><stop offset="0.802" stop-color="#ffe1a0"/><stop offset="0.841" stop-color="#ffedbb"/><stop offset="0.874" stop-color="#fff5cc"/><stop offset="0.899" stop-color="#fff8d2"/><stop offset="0.915" stop-color="#fff2c6"/><stop offset="0.943" stop-color="#ffe4a7"/><stop offset="0.979" stop-color="#ffcc74"/><stop offset="1" stop-color="#ffbd54"/></linearGradient><linearGradient id="linear-gradient-17" x1="276.233" y1="-388.294" x2="288.848" y2="-383.486" gradientTransform="matrix(1, 0, 0, -1, -272.6, -343.96)" gradientUnits="userSpaceOnUse"><stop offset="0" stop-color="#ff9715"/><stop offset="0.268" stop-color="#ffb535"/><stop offset="0.555" stop-color="#ffce50"/><stop offset="0.808" stop-color="#ffde61"/><stop offset="1" stop-color="#ffe367"/></linearGradient><linearGradient id="linear-gradient-18" x1="276.129" y1="-388.002" x2="288.737" y2="-383.197" gradientTransform="matrix(1, 0, 0, -1, -272.6, -343.96)" gradientUnits="userSpaceOnUse"><stop offset="0" stop-color="#cc7429"/><stop offset="0.062" stop-color="#df8f3d"/><stop offset="0.116" stop-color="#eaa04a"/><stop offset="0.156" stop-color="#eea64e"/><stop offset="0.229" stop-color="#ea9f42"/><stop offset="0.337" stop-color="#e09029"/><stop offset="0.405" stop-color="#eba83b"/><stop offset="0.47" stop-color="#f3b948"/><stop offset="0.52" stop-color="#f6bf4c"/><stop offset="0.589" stop-color="#f0b343"/><stop offset="0.712" stop-color="#e2942c"/><stop offset="0.726" stop-color="#e09029"/><stop offset="0.768" stop-color="#e49736"/><stop offset="0.843" stop-color="#eaa046"/><stop offset="0.899" stop-color="#eca34c"/><stop offset="0.933" stop-color="#e49743"/><stop offset="0.993" stop-color="#cf782c"/><stop offset="1" stop-color="#cc7429"/></linearGradient><radialGradient id="radial-gradient-11" cx="21.597" cy="-121.697" r="1" gradientTransform="matrix(10.197, -1.471, -0.356, -2.47, -255.985, -226.398)" xlink:href="#radial-gradient-9"/><linearGradient id="linear-gradient-19" x1="286.196" y1="-372.635" x2="280.365" y2="-387.901" gradientTransform="matrix(1, 0, 0, -1, -272.6, -343.96)" gradientUnits="userSpaceOnUse"><stop offset="0" stop-color="#7c9fe5"/><stop offset="0.014" stop-color="#8fa6ce"/><stop offset="0.049" stop-color="#b7b49d"/><stop offset="0.081" stop-color="#d6c077"/><stop offset="0.111" stop-color="#edc85c"/><stop offset="0.137" stop-color="#facd4b"/><stop offset="0.156" stop-color="#ffcf45"/><stop offset="0.202" stop-color="#fbc33e"/><stop offset="0.285" stop-color="#f0a42a"/><stop offset="0.357" stop-color="#e48315"/><stop offset="0.395" stop-color="#ed9d26"/><stop offset="0.444" stop-color="#f7b837"/><stop offset="0.487" stop-color="#fdc941"/><stop offset="0.52" stop-color="#ffcf45"/><stop offset="0.567" stop-color="#fbc33e"/><stop offset="0.651" stop-color="#f0a42a"/><stop offset="0.726" stop-color="#e48315"/><stop offset="0.767" stop-color="#ed9d26"/><stop offset="0.819" stop-color="#f7b837"/><stop offset="0.865" stop-color="#fdc941"/><stop offset="0.899" stop-color="#ffcf45"/><stop offset="0.922" stop-color="#fbc33e"/><stop offset="0.964" stop-color="#f0a42a"/><stop offset="1" stop-color="#e48315"/></linearGradient><linearGradient id="linear-gradient-20" x1="286.826" y1="-374.182" x2="275.685" y2="-384.606" xlink:href="#linear-gradient-16"/><linearGradient id="linear-gradient-21" x1="286.036" y1="-374.712" x2="276.178" y2="-383.936" xlink:href="#linear-gradient-17"/><linearGradient id="linear-gradient-22" x1="285.82" y1="-374.49" x2="275.966" y2="-383.709" xlink:href="#linear-gradient-18"/><radialGradient id="radial-gradient-12" cx="1251.796" cy="40.037" r="1.001" gradientTransform="matrix(0.267, 0.267, 5.69, -5.69, -550.06, -74.538)" xlink:href="#radial-gradient-5"/><radialGradient id="radial-gradient-13" cx="234.632" cy="109.693" r="1.001" gradientTransform="matrix(-0.267, 0.267, 5.69, 5.69, -549.526, -654.869)" xlink:href="#radial-gradient-5"/><radialGradient id="radial-gradient-14" cx="134.037" cy="26.15" r="1" gradientTransform="matrix(2.51, 2.51, 2.51, -2.51, -390.151, -239.007)" xlink:href="#radial-gradient-5"/></defs><title>promo_global_tab_icon</title><g class="cls-2"><path class="cls-3" d="M.269,42.267c-.175,1.465,7.318,3.564,16.739,4.691s17.2.855,17.374-.609-7.319-3.566-16.74-4.694S.444,40.8.269,42.267Z" transform="translate(0.042 -1.347)"/><path class="cls-4" d="M27.993,47.544c.323,1,5.68.168,11.967-1.86s10.2-4.272,9.873-5.273-4.754-.38-11.041,1.648S27.67,46.543,27.993,47.544Z" transform="translate(0.042 -1.347)"/><path class="cls-5" d="M12.5,20.41l19.208-7.666,15.375,8.124-.416,1.167L12.5,21.368V20.41Z" transform="translate(0.042 -1.347)"/><path class="cls-6" d="M12.5,20.41l19.208-7.666,15.375,8.124-.416,1.167L12.5,21.368V20.41Z" transform="translate(0.042 -1.347)"/><path class="cls-7" d="M32.958,46.368l-29-4v-21h29Z" transform="translate(0.042 -1.347)"/><path class="cls-8" d="M32.958,46.368l15-5v-20h-15Z" transform="translate(0.042 -1.347)"/><path class="cls-9" d="M21.958,44.852V21.368h-8V43.749Z" transform="translate(0.042 -1.347)"/><path class="cls-10" d="M43.958,42.7V21.368h-6V44.7Z" transform="translate(0.042 -1.347)"/><path class="cls-11" d="M36.478,5.953c.4-2.4.534-3.917-2.547-4.583.013,0,.027,0,.039,0l6.754.933c2.562.778,3.009,2.157,2.962,4.588-.106,5.509-5.7,5.685-5.7,5.685L31.035,9.94C33.589,10.314,36.152,7.929,36.478,5.953Z" transform="translate(0.042 -1.347)"/><path class="cls-12" d="M31.563,9.473c-2.748-1.042-6.417,1.148-7.209.848,4.021-3.41,4.47-9.389,9.617-8.951l6.754.933c.023.018.044.039.066.058C36.111,2.05,35.459,7.452,31.563,9.473Z" transform="translate(0.042 -1.347)"/><path class="cls-13" d="M47.958,23.592v2.776l-10-5h10Z" transform="translate(0.042 -1.347)"/><path class="cls-14" d="M48.958,22.368l-17-7-1-8,17,8Z" transform="translate(0.042 -1.347)"/><path class="cls-15" d="M38.508,18.065l5.18,2.133-.91-7.267-5.311-2.5Z" transform="translate(0.042 -1.347)"/><path class="cls-16" d="M3.958,25.368v4l19-8h-19Z" transform="translate(0.042 -1.347)"/><path class="cls-17" d="M2.958,25.368l29-10-1-8-29,11Z" transform="translate(0.042 -1.347)"/><path class="cls-18" d="M31.278,15.6l.68-.235-1-8-.812.309Z" transform="translate(0.042 -1.347)"/><path class="cls-19" d="M11.6,22.389l8.182-2.821-1.632-7.341-7.857,2.98Z" transform="translate(0.042 -1.347)"/><path class="cls-18" d="M31.958,21.368h1v25l-1-.138Z" transform="translate(0.042 -1.347)"/><path class="cls-20" d="M19.015,11.9l6.064-2.3c-2.12-3.189-4.62-7.231-9.766-6.793L8.558,3.74c-.022.018-.043.039-.065.057C13.172,3.488,16.821,8.61,19.015,11.9Z" transform="translate(0.042 -1.347)"/><path class="cls-21" d="M11.709,8.619c-.4-2.4.563-5.146,3.642-5.812-.012,0-.026,0-.038,0L8.558,3.74A6.011,6.011,0,0,0,4.5,9.557c.106,5.509,5.7,5.685,5.7,5.685l6.949-2.636C14.6,12.981,12.036,10.6,11.709,8.619Z" transform="translate(0.042 -1.347)"/><path class="cls-22" d="M1.958,18.368l29-11,.146.855L2.089,19.288Z" transform="translate(0.042 -1.347)"/><path class="cls-23" d="M47.958,15.369l.113.794L31.1,8.223l-.146-.855Z" transform="translate(0.042 -1.347)"/><path class="cls-24" d="M35.648,20c-8.332,8.331-15.4,14.77-15.8,14.378S25.9,26.91,34.23,18.579,49.632,3.81,50.025,4.2,43.979,11.664,35.648,20Z" transform="translate(0.042 -1.347)"/><path class="cls-25" d="M34.23,20C25.9,11.664,19.462,4.593,19.852,4.2s7.464,6.047,15.8,14.378,14.769,15.4,14.378,15.794S42.562,28.326,34.23,20Z" transform="translate(0.042 -1.347)"/><path class="cls-26" d="M41.6,25.75a9.416,9.416,0,1,1,0-13.317A9.415,9.415,0,0,1,41.6,25.75Z" transform="translate(0.042 -1.347)"/><path class="cls-27" d="M-.042,45.763c0,1.6,4.315,2.89,9.639,2.89s9.639-1.293,9.639-2.89S14.922,42.87,9.6,42.87-.042,44.166-.042,45.763Z" transform="translate(0.042 -1.347)"/><path class="cls-28" d="M13.611,43c1.757,0,3.181-3.146,3.181-7.028s-1.424-7.028-3.181-7.028-3.18,3.147-3.18,7.028S11.855,43,13.611,43Z" transform="translate(0.042 -1.347)"/><path class="cls-29" d="M12.684,39.556c-4.477-.034-8.115,1.257-8.128,2.883L6.979,43S19.8,44.683,20.75,44.823l.017-2.262C20.779,40.935,17.16,39.59,12.684,39.556Z" transform="translate(0.042 -1.347)"/><path class="cls-30" d="M9.945,41.359A15.141,15.141,0,0,0,3.189,42.62l-.053-.579-1.3-.01-.017,2.211c-.012,1.626,3.607,2.972,8.083,3.006s8.114-1.257,8.127-2.883l.017-2.211-1.03-.008-.186.661A14.741,14.741,0,0,0,9.945,41.359Z" transform="translate(0.042 -1.347)"/><path class="cls-31" d="M9.962,39.148c4.476.034,8.094,1.38,8.083,3.006s-3.651,2.917-8.128,2.883-8.095-1.38-8.083-3.006S5.485,39.114,9.962,39.148Z" transform="translate(0.042 -1.347)"/><path class="cls-32" d="M9.958,39.556c3.969.03,7.177,1.118,7.167,2.429s-3.234,2.35-7.2,2.32-7.175-1.118-7.165-2.429S5.99,39.526,9.958,39.556Z" transform="translate(0.042 -1.347)"/><path class="cls-33" d="M2.757,41.876a.815.815,0,0,0,.03.219c.344-1.206,3.425-2.13,7.169-2.1s6.811,1,7.135,2.21a.781.781,0,0,0,.034-.219c.01-1.311-3.2-2.4-7.167-2.429S2.766,40.564,2.757,41.876Z" transform="translate(0.042 -1.347)"/><path class="cls-34" d="M11.236,39.882c3.014-.463,5.6.069,5.77,1.189s-2.134,2.4-5.148,2.864-5.6-.07-5.77-1.189S8.221,40.344,11.236,39.882Z" transform="translate(0.042 -1.347)"/><path class="cls-35" d="M7.993,35.117a15.133,15.133,0,0,1,4.1-5.516l-.5-.3.564-1.173,1.993.956c1.467.7,1.087,4.545-.849,8.582S8.611,44.4,7.145,43.7l-1.994-.956.445-.929.676.123A14.717,14.717,0,0,1,7.993,35.117Z" transform="translate(0.042 -1.347)"/><path class="cls-36" d="M6,34.161C4.065,38.2,3.685,42.04,5.152,42.743s4.224-2,6.159-6.036,2.314-7.879.849-8.582S7.935,30.124,6,34.161Z" transform="translate(0.042 -1.347)"/><path class="cls-37" d="M6.365,34.337c-1.715,3.578-2.147,6.938-.964,7.5s3.532-1.874,5.247-5.452,2.147-6.938.965-7.5S8.081,30.759,6.365,34.337Z" transform="translate(0.042 -1.347)"/><path class="cls-38" d="M11.613,28.885a.857.857,0,0,1,.184.123c-1.236-.221-3.418,2.142-5.037,5.518s-2.094,6.558-1.148,7.382a.8.8,0,0,1-.211-.066c-1.183-.567-.751-3.927.964-7.5S10.431,28.318,11.613,28.885Z" transform="translate(0.042 -1.347)"/><path class="cls-39" d="M12.2,32.137c-3.14,3.141-5.807,5.568-5.954,5.421s2.28-2.814,5.421-5.954,5.807-5.568,5.954-5.421S15.339,29,12.2,32.137Z" transform="translate(0.042 -1.347)"/><path class="cls-40" d="M11.663,32.137C8.524,29,6.1,26.33,6.243,26.183S9.057,28.463,12.2,31.6s5.567,5.807,5.42,5.954S14.8,35.278,11.663,32.137Z" transform="translate(0.042 -1.347)"/><path class="cls-41" d="M14.441,34.306a3.55,3.55,0,1,1,0-5.02A3.55,3.55,0,0,1,14.441,34.306Z" transform="translate(0.042 -1.347)"/></g></svg>