<?xml version="1.0" encoding="utf-8"?>
<!-- Generator: Adobe Illustrator 24.0.1, SVG Export Plug-In . SVG Version: 6.00 Build 0)  -->
<svg version="1.1" id="Layer_1" xmlns="http://www.w3.org/2000/svg" xmlns:xlink="http://www.w3.org/1999/xlink" x="0px" y="0px"
	 width="20px" height="20px" viewBox="0 0 20 20" style="enable-background:new 0 0 20 20;" xml:space="preserve">
<style type="text/css">
	.st0{clip-path:url(#SVGID_2_);}
	.st1{fill:url(#SVGID_3_);fill-opacity:0.5;}
	.st2{fill-rule:evenodd;clip-rule:evenodd;fill:url(#SVGID_4_);}
	.st3{opacity:0.6;fill-rule:evenodd;clip-rule:evenodd;fill:url(#SVGID_5_);enable-background:new    ;}
	.st4{opacity:0.6;fill-rule:evenodd;clip-rule:evenodd;fill:url(#SVGID_6_);enable-background:new    ;}
	.st5{fill:url(#SVGID_7_);}
	.st6{opacity:0.6;fill:url(#SVGID_8_);enable-background:new    ;}
	.st7{opacity:0.6;fill-rule:evenodd;clip-rule:evenodd;fill:url(#SVGID_9_);enable-background:new    ;}
	.st8{opacity:0.2;enable-background:new    ;}
	.st9{fill-rule:evenodd;clip-rule:evenodd;fill:url(#SVGID_10_);}
	.st10{fill:url(#SVGID_11_);}
	.st11{fill:url(#SVGID_12_);}
	.st12{fill-rule:evenodd;clip-rule:evenodd;fill:url(#SVGID_13_);}
	.st13{fill-rule:evenodd;clip-rule:evenodd;fill:url(#SVGID_14_);}
	.st14{fill-rule:evenodd;clip-rule:evenodd;fill:url(#SVGID_15_);}
	.st15{fill-rule:evenodd;clip-rule:evenodd;fill:url(#SVGID_16_);}
	.st16{opacity:0.6;fill:url(#SVGID_17_);enable-background:new    ;}
	.st17{opacity:0.6;fill-rule:evenodd;clip-rule:evenodd;fill:url(#SVGID_18_);enable-background:new    ;}
	.st18{fill:url(#SVGID_19_);}
	.st19{fill:url(#SVGID_20_);}
	.st20{fill-rule:evenodd;clip-rule:evenodd;fill:#FFFFFF;}
</style>
<g>
	<defs>
		<rect id="SVGID_1_" x="0.5" y="0.078" width="19" height="19.845"/>
	</defs>
	<clipPath id="SVGID_2_">
		<use xlink:href="#SVGID_1_"  style="overflow:visible;"/>
	</clipPath>
	<g class="st0">
		
			<radialGradient id="SVGID_3_" cx="-14.1539" cy="-156.7698" r="0.8718" gradientTransform="matrix(10.8979 0 0 -1.7782 164.2275 -260.3614)" gradientUnits="userSpaceOnUse">
			<stop  offset="0.1873" style="stop-color:#000000"/>
			<stop  offset="1" style="stop-color:#000000;stop-opacity:0"/>
		</radialGradient>
		<path class="st1" d="M10.001,19.922c5.247,0,9.5-0.694,9.5-1.55c0-0.856-4.254-1.55-9.5-1.55c-5.247,0-9.501,0.694-9.501,1.55
			C0.5,19.228,4.754,19.922,10.001,19.922z"/>
		
			<linearGradient id="SVGID_4_" gradientUnits="userSpaceOnUse" x1="252.3167" y1="-357.477" x2="262.8773" y2="-357.477" gradientTransform="matrix(1 0 0 -1 -247.6 -348.96)">
			<stop  offset="0" style="stop-color:#AE8315"/>
			<stop  offset="0.0077" style="stop-color:#B38918"/>
			<stop  offset="0.0611" style="stop-color:#D4AF2B"/>
			<stop  offset="0.1106" style="stop-color:#ECCA39"/>
			<stop  offset="0.1541" style="stop-color:#FADB42"/>
			<stop  offset="0.187" style="stop-color:#FFE145"/>
			<stop  offset="0.3656" style="stop-color:#D59715"/>
			<stop  offset="0.4847" style="stop-color:#D58315"/>
			<stop  offset="0.5922" style="stop-color:#D59715"/>
			<stop  offset="0.6321" style="stop-color:#DDA61F"/>
			<stop  offset="0.7985" style="stop-color:#FFE145"/>
			<stop  offset="0.8373" style="stop-color:#F5D53F"/>
			<stop  offset="0.9072" style="stop-color:#DAB62F"/>
			<stop  offset="0.9997" style="stop-color:#AE8315"/>
			<stop  offset="1" style="stop-color:#AE8315"/>
		</linearGradient>
		<path class="st2" d="M7.561,12.235c0.671,1.161,1.194,1.952,1.243,2.399h2.384c0.05-0.447,0.573-1.238,1.244-2.399
			c0.117-0.227,0.251-0.465,0.449-0.808c1.552-2.757,2.376-5.864,2.394-9.026H4.717c0.018,3.163,0.842,6.269,2.393,9.026
			C7.236,11.634,7.402,11.996,7.561,12.235z"/>
		
			<linearGradient id="SVGID_5_" gradientUnits="userSpaceOnUse" x1="256.4801" y1="-360.9962" x2="256.4801" y2="-353.1414" gradientTransform="matrix(1 0 0 -1 -247.6 -348.96)">
			<stop  offset="0" style="stop-color:#FFFFFF;stop-opacity:0"/>
			<stop  offset="1" style="stop-color:#FFFFFF"/>
		</linearGradient>
		<path class="st3" d="M9.641,12.593c0.004-0.008,0.011-0.012,0.014-0.021l0.543-1.268c0.084-0.303,0.185-0.625,0.333-1.065
			c0.654-2.053,0.931-4.201,0.88-6.345H6.849c-0.3,0-0.538,0.264-0.501,0.561c0.278,2.184,0.973,4.3,2.04,6.196
			c0.065,0.108,0.14,0.248,0.219,0.398c0.063,0.122,0.129,0.254,0.249,0.438l0.733,1.061C9.603,12.568,9.625,12.576,9.641,12.593z"
			/>
		
			<linearGradient id="SVGID_6_" gradientUnits="userSpaceOnUse" x1="259.346" y1="-361.1461" x2="259.346" y2="-353.1465" gradientTransform="matrix(1 0 0 -1 -247.6 -348.96)">
			<stop  offset="0" style="stop-color:#FFFFFF;stop-opacity:0"/>
			<stop  offset="1" style="stop-color:#FFFFFF"/>
		</linearGradient>
		<path class="st4" d="M12.73,3.895h-0.269c-0.078,2.249-0.552,4.478-1.431,6.559c-0.177,0.406-0.302,0.701-0.408,0.98l-0.625,1.155
			c-0.036,0.067-0.101,0.095-0.154,0.137c0.199,0.067,0.431,0.015,0.565-0.176l0.695-0.997c0.127-0.246,0.272-0.505,0.477-0.86
			c1.085-1.928,1.786-4.052,2.065-6.237C13.683,4.159,13.445,3.895,12.73,3.895z"/>
		
			<linearGradient id="SVGID_7_" gradientUnits="userSpaceOnUse" x1="248.8692" y1="-350.9546" x2="266.3258" y2="-350.9546" gradientTransform="matrix(1 0 0 -1 -247.6 -348.96)">
			<stop  offset="0" style="stop-color:#AE8315"/>
			<stop  offset="0.0077" style="stop-color:#B38918"/>
			<stop  offset="0.0611" style="stop-color:#D4AF2B"/>
			<stop  offset="0.1106" style="stop-color:#ECCA39"/>
			<stop  offset="0.1541" style="stop-color:#FADB42"/>
			<stop  offset="0.187" style="stop-color:#FFE145"/>
			<stop  offset="0.2569" style="stop-color:#F8D53D"/>
			<stop  offset="0.3821" style="stop-color:#E7B629"/>
			<stop  offset="0.4868" style="stop-color:#D59715"/>
			<stop  offset="0.5552" style="stop-color:#E3AF25"/>
			<stop  offset="0.6505" style="stop-color:#F2CA36"/>
			<stop  offset="0.7347" style="stop-color:#FCDB41"/>
			<stop  offset="0.7985" style="stop-color:#FFE145"/>
			<stop  offset="0.8373" style="stop-color:#F5D53F"/>
			<stop  offset="0.9072" style="stop-color:#DAB62F"/>
			<stop  offset="0.9997" style="stop-color:#AE8315"/>
			<stop  offset="1" style="stop-color:#AE8315"/>
		</linearGradient>
		<path class="st5" d="M18.726,1.597H1.269v0.795h17.457V1.597z"/>
		
			<linearGradient id="SVGID_8_" gradientUnits="userSpaceOnUse" x1="253.608" y1="-350.9546" x2="259.3929" y2="-350.9546" gradientTransform="matrix(1 0 0 -1 -247.6 -348.96)">
			<stop  offset="0" style="stop-color:#FFFFFF;stop-opacity:0"/>
			<stop  offset="1" style="stop-color:#FFFFFF"/>
		</linearGradient>
		<path class="st6" d="M11.793,1.597H6.008v0.795h5.785V1.597z"/>
		
			<linearGradient id="SVGID_9_" gradientUnits="userSpaceOnUse" x1="262.6302" y1="-350.9546" x2="260.2299" y2="-350.9546" gradientTransform="matrix(1 0 0 -1 -247.6 -348.96)">
			<stop  offset="0" style="stop-color:#FFFFFF;stop-opacity:0"/>
			<stop  offset="1" style="stop-color:#FFFFFF"/>
		</linearGradient>
		<path class="st7" d="M12.63,2.392h2.4V1.597h-2.4V2.392z"/>
		<path class="st8" d="M15.277,2.392H4.717v0.795h10.561V2.392z"/>
		
			<linearGradient id="SVGID_10_" gradientUnits="userSpaceOnUse" x1="250.9028" y1="-349.7973" x2="264.2912" y2="-349.7973" gradientTransform="matrix(1 0 0 -1 -247.6 -348.96)">
			<stop  offset="0" style="stop-color:#AE8315"/>
			<stop  offset="0.0077" style="stop-color:#B38918"/>
			<stop  offset="0.0611" style="stop-color:#D4AF2B"/>
			<stop  offset="0.1106" style="stop-color:#ECCA39"/>
			<stop  offset="0.1541" style="stop-color:#FADB42"/>
			<stop  offset="0.187" style="stop-color:#FFE145"/>
			<stop  offset="0.2569" style="stop-color:#F8D53D"/>
			<stop  offset="0.3821" style="stop-color:#E7B629"/>
			<stop  offset="0.4868" style="stop-color:#D59715"/>
			<stop  offset="0.5552" style="stop-color:#E3AF25"/>
			<stop  offset="0.6505" style="stop-color:#F2CA36"/>
			<stop  offset="0.7347" style="stop-color:#FCDB41"/>
			<stop  offset="0.7985" style="stop-color:#FFE145"/>
			<stop  offset="0.8373" style="stop-color:#F5D53F"/>
			<stop  offset="0.9072" style="stop-color:#DAB62F"/>
			<stop  offset="0.9997" style="stop-color:#AE8315"/>
			<stop  offset="1" style="stop-color:#AE8315"/>
		</linearGradient>
		<path class="st9" d="M15.818,1.597H4.176L3.303,0.078h13.388L15.818,1.597z"/>
		
			<linearGradient id="SVGID_11_" gradientUnits="userSpaceOnUse" x1="256.3421" y1="-363.9904" x2="258.853" y2="-363.9904" gradientTransform="matrix(1 0 0 -1 -247.6 -348.96)">
			<stop  offset="0" style="stop-color:#AE8315"/>
			<stop  offset="0.0077" style="stop-color:#B38918"/>
			<stop  offset="0.0611" style="stop-color:#D4AF2B"/>
			<stop  offset="0.1106" style="stop-color:#ECCA39"/>
			<stop  offset="0.1541" style="stop-color:#FADB42"/>
			<stop  offset="0.187" style="stop-color:#FFE145"/>
			<stop  offset="0.2569" style="stop-color:#F8D53D"/>
			<stop  offset="0.3821" style="stop-color:#E7B629"/>
			<stop  offset="0.4868" style="stop-color:#D59715"/>
			<stop  offset="0.5552" style="stop-color:#E3AF25"/>
			<stop  offset="0.6505" style="stop-color:#F2CA36"/>
			<stop  offset="0.7347" style="stop-color:#FCDB41"/>
			<stop  offset="0.7985" style="stop-color:#FFE145"/>
			<stop  offset="0.8373" style="stop-color:#F5D53F"/>
			<stop  offset="0.9072" style="stop-color:#DAB62F"/>
			<stop  offset="0.9997" style="stop-color:#AE8315"/>
			<stop  offset="1" style="stop-color:#AE8315"/>
		</linearGradient>
		<path class="st10" d="M11.253,14.633H8.742v0.795h2.511V14.633z"/>
		
			<linearGradient id="SVGID_12_" gradientUnits="userSpaceOnUse" x1="254.0165" y1="-367.2731" x2="261.1776" y2="-367.2731" gradientTransform="matrix(1 0 0 -1 -247.6 -348.96)">
			<stop  offset="0" style="stop-color:#AE8315"/>
			<stop  offset="0.0077" style="stop-color:#B38918"/>
			<stop  offset="0.0611" style="stop-color:#D4AF2B"/>
			<stop  offset="0.1106" style="stop-color:#ECCA39"/>
			<stop  offset="0.1541" style="stop-color:#FADB42"/>
			<stop  offset="0.187" style="stop-color:#FFE145"/>
			<stop  offset="0.2569" style="stop-color:#F8D53D"/>
			<stop  offset="0.3821" style="stop-color:#E7B629"/>
			<stop  offset="0.4868" style="stop-color:#D59715"/>
			<stop  offset="0.5552" style="stop-color:#E3AF25"/>
			<stop  offset="0.6505" style="stop-color:#F2CA36"/>
			<stop  offset="0.7347" style="stop-color:#FCDB41"/>
			<stop  offset="0.7985" style="stop-color:#FFE145"/>
			<stop  offset="0.8373" style="stop-color:#F5D53F"/>
			<stop  offset="0.9072" style="stop-color:#DAB62F"/>
			<stop  offset="0.9997" style="stop-color:#AE8315"/>
			<stop  offset="1" style="stop-color:#AE8315"/>
		</linearGradient>
		<path class="st11" d="M13.578,17.916H6.417v0.795h7.161V17.916z"/>
		
			<linearGradient id="SVGID_13_" gradientUnits="userSpaceOnUse" x1="255.4344" y1="-365.1476" x2="259.7657" y2="-365.1476" gradientTransform="matrix(1 0 0 -1 -247.6 -348.96)">
			<stop  offset="0" style="stop-color:#AE8315"/>
			<stop  offset="0.0077" style="stop-color:#B38918"/>
			<stop  offset="0.0611" style="stop-color:#D4AF2B"/>
			<stop  offset="0.1106" style="stop-color:#ECCA39"/>
			<stop  offset="0.1541" style="stop-color:#FADB42"/>
			<stop  offset="0.187" style="stop-color:#FFE145"/>
			<stop  offset="0.2569" style="stop-color:#F8D53D"/>
			<stop  offset="0.3821" style="stop-color:#E7B629"/>
			<stop  offset="0.4868" style="stop-color:#D59715"/>
			<stop  offset="0.5552" style="stop-color:#E3AF25"/>
			<stop  offset="0.6505" style="stop-color:#F2CA36"/>
			<stop  offset="0.7347" style="stop-color:#FCDB41"/>
			<stop  offset="0.7985" style="stop-color:#FFE145"/>
			<stop  offset="0.8373" style="stop-color:#F5D53F"/>
			<stop  offset="0.9072" style="stop-color:#DAB62F"/>
			<stop  offset="0.9997" style="stop-color:#AE8315"/>
			<stop  offset="1" style="stop-color:#AE8315"/>
		</linearGradient>
		<path class="st12" d="M11.294,15.428H8.7l-0.866,1.519h4.331L11.294,15.428z"/>
		
			<linearGradient id="SVGID_14_" gradientUnits="userSpaceOnUse" x1="254.0225" y1="-366.3917" x2="261.1776" y2="-366.3917" gradientTransform="matrix(1 0 0 -1 -247.6 -348.96)">
			<stop  offset="0" style="stop-color:#AE8315"/>
			<stop  offset="0.0077" style="stop-color:#B38918"/>
			<stop  offset="0.0611" style="stop-color:#D4AF2B"/>
			<stop  offset="0.1106" style="stop-color:#ECCA39"/>
			<stop  offset="0.1541" style="stop-color:#FADB42"/>
			<stop  offset="0.187" style="stop-color:#FFE145"/>
			<stop  offset="0.2569" style="stop-color:#F8D53D"/>
			<stop  offset="0.3821" style="stop-color:#E7B629"/>
			<stop  offset="0.4868" style="stop-color:#D59715"/>
			<stop  offset="0.5552" style="stop-color:#E3AF25"/>
			<stop  offset="0.6505" style="stop-color:#F2CA36"/>
			<stop  offset="0.7347" style="stop-color:#FCDB41"/>
			<stop  offset="0.7985" style="stop-color:#FFE145"/>
			<stop  offset="0.8373" style="stop-color:#F5D53F"/>
			<stop  offset="0.9072" style="stop-color:#DAB62F"/>
			<stop  offset="0.9997" style="stop-color:#AE8315"/>
			<stop  offset="1" style="stop-color:#AE8315"/>
		</linearGradient>
		<path class="st13" d="M12.138,16.947H7.853l-1.431,0.968h7.155L12.138,16.947z"/>
		
			<linearGradient id="SVGID_15_" gradientUnits="userSpaceOnUse" x1="266.6573" y1="-351.5637" x2="261.8692" y2="-359.1335" gradientTransform="matrix(1 0 0 -1 -247.6 -348.96)">
			<stop  offset="0" style="stop-color:#AE8315"/>
			<stop  offset="0.0017" style="stop-color:#AE8315"/>
			<stop  offset="0.4603" style="stop-color:#DAB62F"/>
			<stop  offset="0.8072" style="stop-color:#F5D53F"/>
			<stop  offset="1" style="stop-color:#FFE145"/>
		</linearGradient>
		<path class="st14" d="M17.511,2.4c0,4.14-0.962,5.605-3.696,7.123c-0.085,0.202-0.303,0.598-0.405,0.879
			c3.594-1.186,5.346-3.053,5.314-8.009L17.511,2.4z"/>
		
			<linearGradient id="SVGID_16_" gradientUnits="userSpaceOnUse" x1="248.5367" y1="-351.5637" x2="253.3248" y2="-359.1335" gradientTransform="matrix(1 0 0 -1 -247.6 -348.96)">
			<stop  offset="0" style="stop-color:#AE8315"/>
			<stop  offset="0.0017" style="stop-color:#AE8315"/>
			<stop  offset="0.4603" style="stop-color:#DAB62F"/>
			<stop  offset="0.8072" style="stop-color:#F5D53F"/>
			<stop  offset="1" style="stop-color:#FFE145"/>
		</linearGradient>
		<path class="st15" d="M2.483,2.4c0,4.14,0.961,5.605,3.696,7.123c0.085,0.202,0.303,0.598,0.405,0.879
			C2.989,9.217,1.237,7.349,1.269,2.393L2.483,2.4z"/>
		
			<linearGradient id="SVGID_17_" gradientUnits="userSpaceOnUse" x1="254.1201" y1="-367.2731" x2="258.4374" y2="-367.2731" gradientTransform="matrix(1 0 0 -1 -247.6 -348.96)">
			<stop  offset="0" style="stop-color:#FFFFFF;stop-opacity:0"/>
			<stop  offset="1" style="stop-color:#FFFFFF"/>
		</linearGradient>
		<path class="st16" d="M10.837,17.916H6.52v0.795h4.317V17.916z"/>
		
			<linearGradient id="SVGID_18_" gradientUnits="userSpaceOnUse" x1="261.1217" y1="-367.2731" x2="259.2755" y2="-367.2731" gradientTransform="matrix(1 0 0 -1 -247.6 -348.96)">
			<stop  offset="0" style="stop-color:#FFFFFF;stop-opacity:0"/>
			<stop  offset="1" style="stop-color:#FFFFFF"/>
		</linearGradient>
		<path class="st17" d="M11.675,18.711h1.846v-0.795h-1.846V18.711z"/>
		
			<linearGradient id="SVGID_19_" gradientUnits="userSpaceOnUse" x1="257.5457" y1="-365.6439" x2="257.5457" y2="-353.1891" gradientTransform="matrix(1 0 0 -1 -247.6 -348.96)">
			<stop  offset="0" style="stop-color:#FFE145"/>
			<stop  offset="0.0514" style="stop-color:#FCDB41"/>
			<stop  offset="0.1193" style="stop-color:#F2CA36"/>
			<stop  offset="0.1961" style="stop-color:#E3AF25"/>
			<stop  offset="0.2513" style="stop-color:#D59715"/>
			<stop  offset="0.3928" style="stop-color:#E7B629"/>
			<stop  offset="0.5621" style="stop-color:#F8D53D"/>
			<stop  offset="0.6565" style="stop-color:#FFE145"/>
			<stop  offset="0.717" style="stop-color:#FADB42"/>
			<stop  offset="0.7969" style="stop-color:#ECCA39"/>
			<stop  offset="0.8877" style="stop-color:#D4AF2B"/>
			<stop  offset="0.9859" style="stop-color:#B38918"/>
			<stop  offset="1" style="stop-color:#AE8315"/>
		</linearGradient>
		<path class="st18" d="M9.946,16.684c3.439,0,6.227-2.788,6.227-6.227c0-3.439-2.788-6.227-6.227-6.227
			c-3.439,0-6.227,2.788-6.227,6.227C3.718,13.896,6.506,16.684,9.946,16.684z"/>
		
			<linearGradient id="SVGID_20_" gradientUnits="userSpaceOnUse" x1="257.8053" y1="-353.8853" x2="257.2973" y2="-364.7076" gradientTransform="matrix(1 0 0 -1 -247.6 -348.96)">
			<stop  offset="0" style="stop-color:#C90303"/>
			<stop  offset="1" style="stop-color:#FF3E3E"/>
		</linearGradient>
		<path class="st19" d="M9.946,15.854c2.981,0,5.397-2.416,5.397-5.397c0-2.981-2.416-5.397-5.397-5.397
			c-2.981,0-5.397,2.416-5.397,5.397C4.549,13.437,6.965,15.854,9.946,15.854z"/>
		<path class="st20" d="M10.248,14.802v-3.565H8.643c-0.205,0-0.402-0.081-0.547-0.226C7.951,10.866,7.87,10.67,7.87,10.465v-0.239
			c0.027-0.137,0.069-0.27,0.127-0.397l2.252-3.939v3.565h1.606c0.205,0,0.402,0.081,0.547,0.226
			c0.145,0.145,0.226,0.341,0.226,0.546v0.242c-0.005,0.061-0.016,0.12-0.036,0.179c-0.026,0.076-0.057,0.149-0.091,0.221
			L10.248,14.802z"/>
	</g>
</g>
</svg>
