<svg width="24" height="24" viewBox="0 0 24 24" fill="none" xmlns="http://www.w3.org/2000/svg">
    <path fill-rule="evenodd" clip-rule="evenodd" d="M7.87868 15.2239L12.5431 19.6796C13.8188 20.8981 16 20.0351 16 18.3118V5.68823C16 3.96491 13.8188 3.10186 12.5431 4.32044L7.87868 8.77607H5.725C4.7723 8.77607 4 9.5138 4 10.4238V13.5762C4 14.4862 4.77231 15.2239 5.725 15.2239H7.87868ZM8.27877 13.9379L13.5391 18.8555C13.8698 19.1714 14.7695 18.9389 14.7695 18.4922V5.48438C14.7695 5.03759 13.823 4.78173 13.4922 5.09766L8.27877 10.0621C8.18031 10.1561 8.125 10.2837 8.125 10.4167V13.5833C8.125 13.7163 8.18031 13.8439 8.27877 13.9379ZM7 9.90234H5.44375C5.31949 9.90234 5.21875 9.99859 5.21875 10.1173V13.8476C5.21875 13.9663 5.31949 14.0625 5.44375 14.0625H7V9.90234Z" fill="#3AF463"/>
    <path d="M19.2656 17.8524C18.9686 17.614 19.0744 17.1735 19.2843 16.8512C21.0748 14.1028 21.4618 10.5841 19.398 7.97248C19.1602 7.67153 18.9995 7.2284 19.2656 6.95381C19.5317 6.67921 19.9666 6.67824 20.2101 6.97433C22.8931 10.2374 22.2812 14.5736 20.2046 17.716C19.9926 18.0368 19.5626 18.0909 19.2656 17.8524Z" fill="#3AF463"/>
    <path d="M17.37 9.76173C17.6395 10.2554 17.8351 10.9568 17.8634 11.7738C17.8955 12.7046 17.7023 13.6358 17.2748 14.3676C17.2458 14.4172 17.2139 14.469 17.181 14.5223C16.9708 14.8633 16.7232 15.2651 16.977 15.5271C17.2704 15.8299 17.7517 15.8325 17.9926 15.4837C18.7569 14.3768 19.0393 12.9793 18.9956 11.7184C18.9549 10.5389 18.6198 9.31018 17.9638 8.46692C17.7039 8.13296 17.2259 8.20416 16.977 8.54683C16.7799 8.81802 17.0134 9.18713 17.2203 9.51429C17.2748 9.60054 17.3275 9.68387 17.37 9.76173Z" fill="#3AF463"/>
</svg>
