<svg width="24" height="24" viewBox="0 0 24 24" fill="none" xmlns="http://www.w3.org/2000/svg">
    <path fill-rule="evenodd" clip-rule="evenodd" d="M7.87868 15.2239L12.5431 19.6796C13.8188 20.8981 16 20.0351 16 18.3118V5.68823C16 3.96491 13.8188 3.10186 12.5431 4.32044L7.87868 8.77607H5.725C4.7723 8.77607 4 9.5138 4 10.4238V13.5762C4 14.4862 4.77231 15.2239 5.725 15.2239H7.87868ZM8.27877 13.9379L13.5391 18.8555C13.8698 19.1714 14.7695 18.9389 14.7695 18.4922V5.48438C14.7695 5.03759 13.823 4.78173 13.4922 5.09766L8.27877 10.0621C8.18031 10.1561 8.125 10.2837 8.125 10.4167V13.5833C8.125 13.7163 8.18031 13.8439 8.27877 13.9379ZM7 9.90234H5.44375C5.31949 9.90234 5.21875 9.99859 5.21875 10.1173V13.8476C5.21875 13.9662 5.31949 14.0625 5.44375 14.0625H7V9.90234Z" fill="url(#paint0_linear_28605_641214)"/>
    <defs>
        <linearGradient id="paint0_linear_28605_641214" x1="24.8121" y1="9.1875" x2="24.8121" y2="14.8125" gradientUnits="userSpaceOnUse">
            <stop stop-color="white"/>
            <stop offset="1" stop-color="#999999"/>
        </linearGradient>
    </defs>
</svg>
