<svg width="24" height="24" viewBox="0 0 24 24" fill="none" xmlns="http://www.w3.org/2000/svg">
<g opacity="0.3">
<path fill-rule="evenodd" clip-rule="evenodd" d="M9.06548 8.99951C9.06548 7.37746 10.3794 6.06253 12.0001 6.06253C13.6209 6.06253 14.9347 7.37746 14.9347 8.99951C14.9347 10.6216 13.6209 11.9365 12.0001 11.9365C10.3794 11.9365 9.06548 10.6216 9.06548 8.99951ZM12.0001 7.26254C11.0416 7.26254 10.2645 8.04021 10.2645 8.99951C10.2645 9.95882 11.0416 10.7365 12.0001 10.7365C12.9586 10.7365 13.7357 9.95882 13.7357 8.99951C13.7357 8.04021 12.9586 7.26254 12.0001 7.26254Z" fill="white"/>
<path fill-rule="evenodd" clip-rule="evenodd" d="M9.43065 17.039C5.83143 17.039 3.00006 13.8459 3.00006 10.0195C3.00006 6.19317 5.83143 3 9.43065 3H14.5694C18.1686 3 21 6.19317 21 10.0195C21 13.8459 18.1686 17.039 14.5694 17.039H9.43065ZM8.22091 15.5588C8.61017 15.6639 9.01551 15.7194 9.43065 15.7194H14.5694C14.9846 15.7194 15.3899 15.6639 15.7792 15.5588C15.723 15.5369 15.6693 15.506 15.6199 15.4661C14.6275 14.6629 13.3405 14.2138 12.0001 14.2138C10.6596 14.2138 9.37264 14.6629 8.38024 15.4661C8.33086 15.506 8.27708 15.5369 8.22091 15.5588ZM7.47871 15.2903C5.63039 14.4436 4.29903 12.4294 4.29903 10.0195C4.29903 6.82113 6.64424 4.31964 9.43065 4.31964H14.5694C17.3558 4.31964 19.701 6.82113 19.701 10.0195C19.701 12.4293 18.3697 14.4435 16.5215 15.2902C16.6602 15.0401 16.6037 14.719 16.3739 14.533C15.1596 13.5502 13.6038 13.0138 12.0001 13.0138C10.3963 13.0138 8.84056 13.5502 7.62628 14.533C7.39639 14.7191 7.33994 15.0402 7.47871 15.2903Z" fill="white"/>
<path d="M3.27668 17.1659C3.57038 16.9438 3.9754 17.0205 4.18133 17.3373C4.5161 17.8522 5.20949 18.4253 6.1424 18.8727C7.06244 19.3139 8.14709 19.5991 9.20162 19.5991H14.7995C15.8581 19.5991 16.9292 19.3102 17.8377 18.8675C18.7568 18.4196 19.4491 17.8444 19.7993 17.3266C20.0107 17.0141 20.4169 16.9455 20.7067 17.1735C20.9965 17.4014 21.0601 17.8396 20.8487 18.1521C20.3219 18.9311 19.415 19.636 18.3726 20.144C17.3196 20.6572 16.0669 21 14.7995 21H9.20162C7.9422 21 6.67836 20.6628 5.61464 20.1527C4.56378 19.6488 3.63811 18.9419 3.11775 18.1415C2.91182 17.8247 2.98298 17.3879 3.27668 17.1659Z" fill="white"/>
</g>
</svg>
