<svg width="16" height="16" viewBox="0 0 16 16" fill="none" xmlns="http://www.w3.org/2000/svg">
<path fill-rule="evenodd" clip-rule="evenodd" d="M7.99612 2C6.80943 2 5.64932 2.35194 4.66262 3.01123C3.67593 3.67052 2.90703 4.6075 2.45291 5.70386C1.99878 6.80021 1.87984 8.00677 2.11135 9.17065C2.34287 10.3345 2.91433 11.4036 3.75344 12.2427C4.59256 13.0818 5.66158 13.6533 6.82547 13.8848C7.98935 14.1163 9.19591 13.9973 10.2923 13.5432C11.3886 13.0891 12.3256 12.3202 12.9849 11.3335C13.6442 10.3468 13.9961 9.18669 13.9961 8C13.9961 6.4087 13.364 4.88254 12.2388 3.75732C11.1136 2.63211 9.58742 2 7.99612 2ZM7.99612 10H5.99612V5C5.99612 4.44772 6.44384 4 6.99612 4C7.5484 4 7.99612 4.44772 7.99612 5V8H10.9961C11.5484 8 11.9961 8.44772 11.9961 9C11.9961 9.55228 11.5484 10 10.9961 10H7.99612Z" fill="#FFFFFF"/>
</svg>
