<svg width="24" height="24" viewBox="0 0 24 24" fill="none" xmlns="http://www.w3.org/2000/svg">
<path fill-rule="evenodd" clip-rule="evenodd" d="M17.8639 6.14587C18.0574 6.33905 18.0574 6.65227 17.8639 6.84545L15.5016 9.20343C15.493 9.21271 15.4841 9.22161 15.4749 9.23012L13.7776 10.9243C13.7728 10.9295 13.7679 10.9346 13.7628 10.9396C13.7322 10.9701 13.7012 11.0008 13.6699 11.0319L11.0313 13.6657C11.0003 13.6968 10.9691 13.7282 10.9376 13.7598C10.9326 13.7648 10.9275 13.7698 10.9223 13.7746L9.22543 15.4683C9.21679 15.4776 9.20784 15.4866 9.1986 15.4951L6.83526 17.8542C6.64172 18.0474 6.32794 18.0474 6.13441 17.8542C5.94087 17.661 5.94087 17.3478 6.13441 17.1546L8.06041 15.2321C7.07378 14.6134 6.17459 13.864 5.38783 13.0034L5.38598 13.0014C5.13753 12.7266 5 12.3696 5 11.9994C5 11.6293 5.13753 11.2723 5.38599 10.9975L5.39081 10.9921C5.93306 10.4096 6.82723 9.54444 7.95519 8.82212C9.08057 8.10145 10.4723 7.50156 12.0001 7.50156H12.0104C13.0684 7.52364 14.1063 7.78247 15.0483 8.25681L17.163 6.14587C17.3565 5.95268 17.6703 5.95268 17.8639 6.14587ZM13.3789 9.92313C12.974 9.65359 12.4958 9.50572 12.0019 9.50364H11.9998C11.3366 9.50364 10.7005 9.76664 10.2315 10.2348C9.7625 10.7029 9.49902 11.3379 9.49902 11.9999L9.49903 12.002C9.50111 12.495 9.64924 12.9724 9.91927 13.3766L8.78087 14.5129C7.79428 13.9201 6.89824 13.1876 6.121 12.3377C6.03741 12.2448 5.99115 12.1243 5.99115 11.9994C5.99115 11.8752 6.03695 11.7553 6.11976 11.6626C6.63047 11.1143 7.45965 10.3149 8.49038 9.65485C9.5242 8.99282 10.7273 8.49229 11.9949 8.49093C12.7926 8.50826 13.5768 8.68201 14.3037 9L13.3789 9.92313Z" fill="white"/>
<path d="M17.6334 10.0301C17.4294 9.84792 17.1161 9.86529 16.9336 10.0689C16.7511 10.2725 16.7685 10.5852 16.9725 10.7674C17.337 11.093 17.6456 11.4103 17.879 11.6627C17.9621 11.7554 18.0081 11.8755 18.0081 12C18.0081 12.1243 17.9623 12.2442 17.8795 12.3369C17.3688 12.8852 16.5396 13.6845 15.5089 14.3446C14.4736 15.0075 13.2687 15.5085 11.9992 15.5085H11.5981C11.3244 15.5085 11.1025 15.73 11.1025 16.0032C11.1025 16.2764 11.3244 16.4979 11.5981 16.4979H11.9992C13.5269 16.4979 14.9187 15.898 16.044 15.1773C17.172 14.455 18.0661 13.5898 18.6084 13.0073L18.6132 13.002C18.8617 12.7272 18.9992 12.3702 18.9992 12C18.9992 11.6299 18.8617 11.2728 18.6132 10.998L18.6095 10.994C18.3619 10.7262 18.0296 10.384 17.6334 10.0301Z" fill="white"/>
</svg>
