<svg width="80" height="80" viewBox="0 0 80 80" fill="none" xmlns="http://www.w3.org/2000/svg">
    <g clip-path="url(#clip0_1_26)">
        <mask id="mask0_1_26" style="mask-type:luminance" maskUnits="userSpaceOnUse" x="0" y="0" width="80" height="80">
            <path d="M80 0H0V80H80V0Z" fill="white"/>
        </mask>
        <g mask="url(#mask0_1_26)">
            <path d="M40 79C61.5391 79 79 61.5391 79 40C79 18.4609 61.5391 1 40 1C18.4609 1 1 18.4609 1 40C1 61.5391 18.4609 79 40 79Z" fill="url(#paint0_linear_1_26)"/>
            <path d="M40 79C61.5391 79 79 61.5391 79 40C79 18.4609 61.5391 1 40 1C18.4609 1 1 18.4609 1 40C1 61.5391 18.4609 79 40 79Z" stroke="url(#paint1_linear_1_26)" stroke-width="2" stroke-miterlimit="2.9238" stroke-linecap="round"/>
        </g>
    </g>
    <defs>
        <linearGradient id="paint0_linear_1_26" x1="41.5" y1="-0.5" x2="41.5" y2="55" gradientUnits="userSpaceOnUse">
            <stop stop-color="#CECECE"/>
            <stop offset="1" stop-color="#696969"/>
        </linearGradient>
        <linearGradient id="paint1_linear_1_26" x1="40" y1="3.27056e-08" x2="39.6119" y2="53.75" gradientUnits="userSpaceOnUse">
            <stop stop-color="#CECECE"/>
            <stop offset="1" stop-color="#696969"/>
        </linearGradient>
        <clipPath id="clip0_1_26">
            <rect width="80" height="80" fill="white"/>
        </clipPath>
    </defs>
</svg>
