<?xml version="1.0" encoding="utf-8"?>
<!-- Generator: Adobe Illustrator 26.5.0, SVG Export Plug-In . SVG Version: 6.00 Build 0)  -->
<svg version="1.1" id="Слой_1" xmlns="http://www.w3.org/2000/svg" xmlns:xlink="http://www.w3.org/1999/xlink" x="0px" y="0px"
	 width="20.7px" height="19px" viewBox="0 0 20.7 19" style="enable-background:new 0 0 20.7 19;" xml:space="preserve">
<style type="text/css">
	.st0{fill:#992429;}
	.st1{fill:#818181;}
	.st2{fill:url(#SVGID_1_);}
	.st3{fill-rule:evenodd;clip-rule:evenodd;fill:#FFFFFF;}
	.st4{fill-rule:evenodd;clip-rule:evenodd;fill:#FFFFFF;fill-opacity:0.7;}
</style>
<g>
	<path class="st0" d="M10.4,19c5.7,0,10.4-4.3,10.4-9.5S16.1,0,10.4,0C4.6,0,0,4.3,0,9.5S4.6,19,10.4,19z"/>
</g>
<path class="st1" d="M12.2,18.8C11.6,18.9,11,19,10.4,19c-0.6,0-1.3-0.1-1.9-0.2v-2.7h3.7V18.8z"/>
<path class="st1" d="M4.9,17.6C3.8,17,2.8,16.1,2,15.1v-2.1h2.9V17.6z"/>
<path class="st1" d="M18.7,15.2c-0.8,1-1.8,1.8-2.9,2.5v-4.5h2.9V15.2z"/>
<g>
	
		<linearGradient id="SVGID_1_" gradientUnits="userSpaceOnUse" x1="10.3636" y1="19.4894" x2="10.3636" y2="2.2166" gradientTransform="matrix(1 0 0 -1 0 19.4894)">
		<stop  offset="0" style="stop-color:#CC261B"/>
		<stop  offset="1" style="stop-color:#FF493C"/>
	</linearGradient>
	<path class="st2" d="M10.4,17.3c5.7,0,10.4-3.9,10.4-8.6S16.1,0,10.4,0C4.6,0,0,3.9,0,8.6S4.6,17.3,10.4,17.3z"/>
</g>
<path class="st3" d="M20.5,10l-0.8-0.2c-0.5-0.1-0.7-0.6-0.7-1.1c0-0.2,0-0.3,0-0.5c0-0.2,0-0.3,0-0.5c0-0.5,0.2-1,0.7-1.1l0.8-0.2
	c0.2,0.6,0.2,1.2,0.2,1.8S20.6,9.4,20.5,10z M18.7,3.4l-0.7,0.6c-0.4,0.3-0.9,0.3-1.2,0c-0.3-0.3-0.7-0.5-1.1-0.8
	c-0.4-0.3-0.6-0.8-0.4-1.2l0.4-0.7C16.9,1.8,17.9,2.5,18.7,3.4z M12.2,0.1l-0.1,0.8c-0.1,0.5-0.5,0.8-1,0.8c-0.2,0-0.5,0-0.8,0
	c-0.3,0-0.5,0-0.8,0c-0.5,0-0.9-0.3-1-0.8L8.5,0.1C9.1,0,9.7,0,10.4,0C11,0,11.6,0,12.2,0.1z M5,1.2l0.4,0.7c0.2,0.4,0.1,1-0.4,1.2
	C4.6,3.3,4.2,3.6,3.9,3.9C3.5,4.2,3,4.2,2.7,3.9L2,3.4C2.8,2.5,3.8,1.8,5,1.2z M0.2,6.4C0.1,7,0,7.6,0,8.2S0.1,9.4,0.2,10L1,9.8
	c0.5-0.1,0.7-0.6,0.7-1.1c0-0.2,0-0.3,0-0.5c0-0.2,0-0.3,0-0.5c0-0.5-0.2-1-0.7-1.1L0.2,6.4z M2,13.1l0.7-0.6c0.4-0.3,0.9-0.3,1.2,0
	c0.3,0.3,0.7,0.5,1.1,0.8c0.4,0.3,0.6,0.8,0.4,1.2L5,15.2C3.8,14.6,2.8,13.9,2,13.1z M8.5,16.3c0.6,0.1,1.2,0.1,1.9,0.1
	c0.6,0,1.3,0,1.9-0.1l-0.1-0.8c-0.1-0.5-0.5-0.8-1-0.8c-0.2,0-0.5,0-0.8,0c-0.3,0-0.5,0-0.8,0c-0.5,0-0.9,0.3-1,0.8L8.5,16.3z
	 M15.8,15.2l-0.4-0.7c-0.2-0.4-0.1-1,0.4-1.2c0.4-0.2,0.7-0.5,1.1-0.8c0.3-0.3,0.9-0.3,1.2,0l0.7,0.6C17.9,13.9,16.9,14.6,15.8,15.2
	z"/>
<path class="st4" d="M15.4,12c-1.3,0.9-3.1,1.5-5.1,1.5S6.6,12.9,5.3,12C4,11,3,9.7,3,8c0-1.6,0.9-3,2.3-3.9
	c1.3-0.9,3.1-1.5,5.1-1.5s3.7,0.6,5.1,1.5c1.3,0.9,2.3,2.3,2.3,3.9C17.7,9.7,16.8,11,15.4,12z M16.8,8c0,2.5-2.9,4.5-6.5,4.5
	c-3.6,0-6.5-2-6.5-4.5c0-2.5,2.9-4.5,6.5-4.5C13.9,3.5,16.8,5.5,16.8,8z"/>
</svg>
