<svg width="41" height="36" viewBox="0 0 41 36" fill="none" xmlns="http://www.w3.org/2000/svg">
<path d="M41 21C41 29.2843 32.0457 36 21 36C9.9543 36 1 29.2843 1 21V15C14.6657 15 30.8679 15 41 15V21Z" fill="#8A181F"/>
<path d="M21 30C32.0457 30 41 23.2843 41 15C41 6.71573 32.0457 0 21 0C9.9543 0 1 6.71573 1 15C1 23.2843 9.9543 30 21 30Z" fill="url(#paint0_linear_1601_244510)"/>
<path d="M36.1957 30.721L36.1533 24.7911C37.8524 23.2559 38.9896 21.8107 39.8994 19.9219L39.8993 25.8134C39.0188 27.7583 37.9104 29.1595 36.1957 30.721Z" fill="#A7A7A7"/>
<path d="M24.167 35.8008V29.8086C23.1144 29.9422 22.0776 29.991 21 29.991C19.9224 29.991 18.8745 29.9362 17.833 29.8086V35.8008C18.8672 35.9492 19.9224 35.9922 21 35.9922C22.0776 35.9922 23.1211 35.9336 24.167 35.8008Z" fill="#A7A7A7"/>
<path d="M5.84478 24.8146L5.80235 30.7444C4.08764 29.1829 2.97926 27.7817 2.09878 25.8368L2.09863 19.9453C3.0084 21.8341 4.14561 23.2793 5.84478 24.8146Z" fill="#A7A7A7"/>
<path d="M24.1507 0.185924C23.1217 0.063554 22.0666 0 20.9917 0C19.9169 0 18.8618 0.0635542 17.8328 0.185924V2.5C17.8328 2.77614 18.0567 3 18.3328 3H23.6507C23.9268 3 24.1507 2.77614 24.1507 2.5V0.185924Z" fill="white"/>
<path d="M33.9873 3.5951C35.8184 4.76908 37.3633 6.18661 38.533 7.78078L36.3767 9.6321C36.1748 9.80549 35.8724 9.79028 35.6889 9.59749L32.1424 5.87198C31.945 5.66468 31.9616 5.33433 32.1788 5.14788L33.9873 3.5951Z" fill="white"/>
<path d="M36.1527 24.7876C37.7827 23.3696 39.0647 21.7205 39.8996 19.9147L37.409 17.7763C37.2071 17.6029 36.9047 17.6181 36.7212 17.8109L33.1739 21.5372C32.9765 21.7445 32.9931 22.0749 33.2103 22.2613L36.1527 24.7876Z" fill="white"/>
<path d="M20.9917 30C22.0666 30 23.1217 29.9364 24.1507 29.8141V25.5C24.1507 25.2239 23.9268 25 23.6507 25H18.3328C18.0567 25 17.8328 25.2239 17.8328 25.5V29.8141C18.8618 29.9364 19.9169 30 20.9917 30Z" fill="white"/>
<path d="M3.49505 7.72042C4.67336 6.1318 6.22538 4.72041 8.06203 3.55305L9.87716 5.1115C10.0943 5.29795 10.1109 5.6283 9.9136 5.83561L6.36708 9.56111C6.18356 9.7539 5.88117 9.76911 5.67922 9.59572L3.49505 7.72042Z" fill="white"/>
<path d="M2.09961 19.9486C2.93969 21.7516 4.22597 23.3976 5.85922 24.8123L8.76774 22.3151C8.9849 22.1286 9.00152 21.7983 8.80418 21.591L5.25599 17.8637C5.07247 17.6709 4.77009 17.6557 4.56814 17.8291L2.09961 19.9486Z" fill="white"/>
<path fill-rule="evenodd" clip-rule="evenodd" d="M29.3548 18.6928C31.4373 17.2911 32.5 15.5154 32.5 13.75C32.5 11.9846 31.4373 10.2089 29.3548 8.8072C27.2815 7.41172 24.3321 6.5 21 6.5C17.6679 6.5 14.7185 7.41172 12.6452 8.8072C10.5627 10.2089 9.5 11.9846 9.5 13.75C9.5 15.5154 10.5627 17.2911 12.6452 18.6928C14.7185 20.0883 17.6679 21 21 21C24.3321 21 27.2815 20.0883 29.3548 18.6928ZM34 13.75C34 18.5825 28.1797 22.5 21 22.5C13.8203 22.5 8 18.5825 8 13.75C8 8.91751 13.8203 5 21 5C28.1797 5 34 8.91751 34 13.75Z" fill="white"/>
<path d="M21 34C32.0457 34 41 27.2843 41 19V21C41 29.2843 32.0457 36 21 36C9.9543 36 1 29.2843 1 21V19C1 27.2843 9.9543 34 21 34Z" fill="black" fill-opacity="0.45"/>
<path d="M40.9563 14C40.2701 21.818 31.5977 28 21 28C10.4023 28 1.72986 21.818 1.04374 14C1.01473 14.3305 1 14.664 1 15C1 23.2843 9.9543 30 21 30C32.0457 30 41 23.2843 41 15C41 14.664 40.9853 14.3305 40.9563 14Z" fill="white" fill-opacity="0.35"/>
<defs>
<linearGradient id="paint0_linear_1601_244510" x1="21" y1="0" x2="21" y2="30" gradientUnits="userSpaceOnUse">
<stop stop-color="#8A181F"/>
<stop offset="1" stop-color="#C92832"/>
</linearGradient>
</defs>
</svg>
