<svg width="40" height="37" viewBox="0 0 40 37" fill="none" xmlns="http://www.w3.org/2000/svg">
<path d="M40 21.1333C40 29.4176 31.0457 36.1333 20 36.1333C8.9543 36.1333 0 29.4176 0 21.1333V15.1333C13.6657 15.1333 29.8679 15.1333 40 15.1333V21.1333Z" fill="#01509A"/>
<path d="M20 30.1333C31.0457 30.1333 40 23.4176 40 15.1333C40 6.84903 31.0457 0.133301 20 0.133301C8.9543 0.133301 0 6.84903 0 15.1333C0 23.4176 8.9543 30.1333 20 30.1333Z" fill="url(#paint0_linear_1601_244503)"/>
<path d="M2.64453 22.5262C6.09064 27.0265 12.559 30.0592 19.9727 30.0666V36.0666C12.559 36.0592 6.09064 33.0265 2.64453 28.5262V22.5262Z" fill="#98670C"/>
<path d="M37.3193 28.5732V22.5732C39.0241 20.3654 40 17.8015 40 15.0667V21.0667C40 23.8015 39.0241 26.3654 37.3193 28.5732Z" fill="#98670C"/>
<path fill-rule="evenodd" clip-rule="evenodd" d="M19.9911 5.1333V0C13.8373 0.00190601 8.33326 2.08828 4.66616 5.3688L9.08384 9.12976C7.76554 10.4984 7 12.1307 7 13.8833C7 15.3276 7.51989 16.6901 8.44058 17.8908L2.63965 22.4537C6.08497 26.9576 12.5566 29.9931 19.9743 30V22.6333C19.9829 22.6333 19.9914 22.6333 20 22.6333C25.1453 22.6333 29.5925 20.6213 31.6996 17.7024L37.3175 22.5083C39.0232 20.3001 39.9995 17.7356 39.9995 15C39.9995 11.3902 38.2994 8.07819 35.4668 5.48988L30.8924 9.10519C28.5721 6.71372 24.5602 5.1333 20 5.1333C19.997 5.1333 19.9941 5.1333 19.9911 5.1333Z" fill="url(#paint1_linear_1601_244503)"/>
<path d="M35.1957 30.8543L35.1533 24.9244C36.8524 23.3892 37.9896 21.944 38.8994 20.0552L38.8993 25.9467C38.0188 27.8916 36.9104 29.2928 35.1957 30.8543Z" fill="#A7A7A7"/>
<path d="M23.167 35.9341V29.9419C22.1144 30.0755 21.0776 30.1243 20 30.1243C18.9224 30.1243 17.8745 30.0695 16.833 29.9419V35.9341C17.8672 36.0825 18.9224 36.1255 20 36.1255C21.0776 36.1255 22.1211 36.0669 23.167 35.9341Z" fill="#A7A7A7"/>
<path d="M4.84478 24.9479L4.80235 30.8777C3.08764 29.3162 1.97926 27.915 1.09878 25.9701L1.09863 20.0786C2.0084 21.9674 3.14561 23.4126 4.84478 24.9479Z" fill="#A7A7A7"/>
<path d="M23.1507 0.319224C22.1217 0.196855 21.0666 0.133301 19.9917 0.133301C18.9169 0.133301 17.8618 0.196855 16.8328 0.319225V2.6333C16.8328 2.90944 17.0567 3.1333 17.3328 3.1333H22.6507C22.9268 3.1333 23.1507 2.90944 23.1507 2.6333V0.319224Z" fill="white"/>
<path d="M32.9873 3.7284C34.8184 4.90238 36.3633 6.31991 37.533 7.91408L35.3767 9.7654C35.1748 9.93879 34.8724 9.92358 34.6889 9.73079L31.1424 6.00529C30.945 5.79798 30.9616 5.46763 31.1788 5.28118L32.9873 3.7284Z" fill="white"/>
<path d="M35.1527 24.9209C36.7827 23.5029 38.0647 21.8538 38.8996 20.048L36.409 17.9096C36.2071 17.7362 35.9047 17.7514 35.7212 17.9442L32.1739 21.6705C31.9765 21.8778 31.9931 22.2082 32.2103 22.3946L35.1527 24.9209Z" fill="white"/>
<path d="M19.9917 30.1333C21.0666 30.1333 22.1217 30.0697 23.1507 29.9474V25.6333C23.1507 25.3572 22.9268 25.1333 22.6507 25.1333H17.3328C17.0567 25.1333 16.8328 25.3572 16.8328 25.6333V29.9474C17.8618 30.0697 18.9169 30.1333 19.9917 30.1333Z" fill="white"/>
<path d="M2.49505 7.85372C3.67336 6.2651 5.22538 4.85371 7.06203 3.68636L8.87716 5.2448C9.09432 5.43125 9.11095 5.7616 8.9136 5.96891L5.36708 9.69441C5.18356 9.8872 4.88117 9.90241 4.67922 9.72902L2.49505 7.85372Z" fill="white"/>
<path d="M1.09961 20.0819C1.93969 21.8849 3.22597 23.5309 4.85922 24.9456L7.76774 22.4484C7.9849 22.2619 8.00152 21.9316 7.80418 21.7243L4.25599 17.997C4.07247 17.8042 3.77009 17.789 3.56814 17.9624L1.09961 20.0819Z" fill="white"/>
<path d="M20 34.1333C31.0457 34.1333 40 27.4176 40 19.1333V21.1333C40 29.4176 31.0457 36.1333 20 36.1333C8.9543 36.1333 0 29.4176 0 21.1333V19.1333C0 27.4176 8.9543 34.1333 20 34.1333Z" fill="black" fill-opacity="0.45"/>
<path d="M39.9563 14.1333C39.2701 21.9513 30.5977 28.1333 20 28.1333C9.40234 28.1333 0.729856 21.9513 0.0437396 14.1333C0.0147325 14.4638 0 14.7973 0 15.1333C0 23.4176 8.9543 30.1333 20 30.1333C31.0457 30.1333 40 23.4176 40 15.1333C40 14.7973 39.9853 14.4638 39.9563 14.1333Z" fill="white" fill-opacity="0.35"/>
<path fill-rule="evenodd" clip-rule="evenodd" d="M28.3548 18.8261C30.4373 17.4244 31.5 15.6487 31.5 13.8833C31.5 12.1179 30.4373 10.3422 28.3548 8.9405C26.2815 7.54502 23.3321 6.6333 20 6.6333C16.6679 6.6333 13.7185 7.54502 11.6452 8.9405C9.56269 10.3422 8.5 12.1179 8.5 13.8833C8.5 15.6487 9.56269 17.4244 11.6452 18.8261C13.7185 20.2216 16.6679 21.1333 20 21.1333C23.3321 21.1333 26.2815 20.2216 28.3548 18.8261ZM33 13.8833C33 18.7158 27.1797 22.6333 20 22.6333C12.8203 22.6333 7 18.7158 7 13.8833C7 9.05081 12.8203 5.1333 20 5.1333C27.1797 5.1333 33 9.05081 33 13.8833Z" fill="white"/>
<defs>
<linearGradient id="paint0_linear_1601_244503" x1="20" y1="0.133301" x2="20" y2="30.1333" gradientUnits="userSpaceOnUse">
<stop stop-color="#01509A"/>
<stop offset="1" stop-color="#3C8EDB"/>
</linearGradient>
<linearGradient id="paint1_linear_1601_244503" x1="21.3196" y1="0" x2="21.3196" y2="30" gradientUnits="userSpaceOnUse">
<stop stop-color="#97660B"/>
<stop offset="1" stop-color="#DFAC44"/>
</linearGradient>
</defs>
</svg>
