<svg width="40" height="37" viewBox="0 0 40 37" fill="none" xmlns="http://www.w3.org/2000/svg">
<path d="M40 21.0667C40 29.3509 31.0457 36.0667 20 36.0667C8.9543 36.0667 0 29.3509 0 21.0667V15.0667C13.6657 15.0667 29.8679 15.0667 40 15.0667V21.0667Z" fill="#A63B00"/>
<path d="M20 30.0667C31.0457 30.0667 40 23.3509 40 15.0667C40 6.78238 31.0457 0.0666504 20 0.0666504C8.9543 0.0666504 0 6.78238 0 15.0667C0 23.3509 8.9543 30.0667 20 30.0667Z" fill="url(#paint0_linear_1601_244498)"/>
<path d="M2.64453 22.5262C6.09064 27.0265 12.559 30.0592 19.9727 30.0666V36.0666C12.559 36.0592 6.09064 33.0265 2.64453 28.5262V22.5262Z" fill="#2E3846"/>
<path d="M37.3193 28.5732V22.5732C39.0241 20.3654 40 17.8015 40 15.0667V21.0667C40 23.8015 39.0241 26.3654 37.3193 28.5732Z" fill="#2E3846"/>
<path fill-rule="evenodd" clip-rule="evenodd" d="M19.9911 5.1333V0C13.8373 0.00190601 8.33326 2.08828 4.66616 5.3688L9.08384 9.12976C7.76554 10.4984 7 12.1307 7 13.8833C7 15.3276 7.51989 16.6901 8.44058 17.8908L2.63965 22.4537C6.08497 26.9576 12.5566 29.9931 19.9743 30V22.6333C19.9829 22.6333 19.9914 22.6333 20 22.6333C25.1453 22.6333 29.5925 20.6213 31.6996 17.7024L37.3175 22.5083C39.0232 20.3001 39.9995 17.7356 39.9995 15C39.9995 11.3902 38.2994 8.07819 35.4668 5.48988L30.8924 9.10519C28.5721 6.71372 24.5602 5.1333 20 5.1333C19.997 5.1333 19.9941 5.1333 19.9911 5.1333Z" fill="url(#paint1_linear_1601_244498)"/>
<path d="M35.1957 30.7876L35.1533 24.8578C36.8524 23.3226 37.9896 21.8774 38.8994 19.9885L38.8993 25.88C38.0188 27.825 36.9104 29.2261 35.1957 30.7876Z" fill="#A7A7A7"/>
<path d="M23.167 35.8674V29.8752C22.1144 30.0088 21.0776 30.0576 20 30.0576C18.9224 30.0576 17.8745 30.0028 16.833 29.8752V35.8674C17.8672 36.0159 18.9224 36.0588 20 36.0588C21.0776 36.0588 22.1211 36.0002 23.167 35.8674Z" fill="#A7A7A7"/>
<path d="M4.84478 24.8812L4.80235 30.8111C3.08764 29.2496 1.97926 27.8484 1.09878 25.9035L1.09863 20.012C2.0084 21.9008 3.14561 23.346 4.84478 24.8812Z" fill="#A7A7A7"/>
<path d="M23.1507 0.252574C22.1217 0.130204 21.0666 0.0666504 19.9917 0.0666504C18.9169 0.0666504 17.8618 0.130205 16.8328 0.252574V2.56665C16.8328 2.84279 17.0567 3.06665 17.3328 3.06665H22.6507C22.9268 3.06665 23.1507 2.84279 23.1507 2.56665V0.252574Z" fill="white"/>
<path d="M32.9873 3.66175C34.8184 4.83573 36.3633 6.25326 37.533 7.84743L35.3767 9.69875C35.1748 9.87214 34.8724 9.85693 34.6889 9.66414L31.1424 5.93864C30.945 5.73133 30.9616 5.40098 31.1788 5.21453L32.9873 3.66175Z" fill="white"/>
<path d="M35.1527 24.8543C36.7827 23.4363 38.0647 21.7871 38.8996 19.9813L36.409 17.8429C36.2071 17.6696 35.9047 17.6848 35.7212 17.8776L32.1739 21.6039C31.9765 21.8112 31.9931 22.1415 32.2103 22.328L35.1527 24.8543Z" fill="white"/>
<path d="M19.9917 30.0667C21.0666 30.0667 22.1217 30.0031 23.1507 29.8807V25.5667C23.1507 25.2905 22.9268 25.0667 22.6507 25.0667H17.3328C17.0567 25.0667 16.8328 25.2905 16.8328 25.5667V29.8807C17.8618 30.0031 18.9169 30.0667 19.9917 30.0667Z" fill="white"/>
<path d="M2.49505 7.78707C3.67336 6.19845 5.22538 4.78706 7.06203 3.6197L8.87716 5.17815C9.09432 5.3646 9.11095 5.69495 8.9136 5.90226L5.36708 9.62776C5.18356 9.82055 4.88117 9.83576 4.67922 9.66237L2.49505 7.78707Z" fill="white"/>
<path d="M1.09961 20.0152C1.93969 21.8182 3.22597 23.4643 4.85922 24.879L7.76774 22.3817C7.9849 22.1953 8.00152 21.8649 7.80418 21.6576L4.25599 17.9304C4.07247 17.7376 3.77009 17.7224 3.56814 17.8958L1.09961 20.0152Z" fill="white"/>
<path fill-rule="evenodd" clip-rule="evenodd" d="M28.3548 18.7595C30.4373 17.3578 31.5 15.582 31.5 13.8167C31.5 12.0513 30.4373 10.2755 28.3548 8.87385C26.2815 7.47837 23.3321 6.56665 20 6.56665C16.6679 6.56665 13.7185 7.47837 11.6452 8.87385C9.56269 10.2755 8.5 12.0513 8.5 13.8167C8.5 15.582 9.56269 17.3578 11.6452 18.7595C13.7185 20.1549 16.6679 21.0667 20 21.0667C23.3321 21.0667 26.2815 20.1549 28.3548 18.7595ZM33 13.8167C33 18.6491 27.1797 22.5667 20 22.5667C12.8203 22.5667 7 18.6491 7 13.8167C7 8.98416 12.8203 5.06665 20 5.06665C27.1797 5.06665 33 8.98416 33 13.8167Z" fill="white"/>
<path d="M20 34.0667C31.0457 34.0667 40 27.3509 40 19.0667V21.0667C40 29.3509 31.0457 36.0667 20 36.0667C8.9543 36.0667 0 29.3509 0 21.0667V19.0667C0 27.3509 8.9543 34.0667 20 34.0667Z" fill="black" fill-opacity="0.45"/>
<path d="M39.9563 14.0667C39.2701 21.8847 30.5977 28.0666 20 28.0666C9.40234 28.0666 0.729856 21.8847 0.0437396 14.0667C0.0147325 14.3972 0 14.7306 0 15.0666C0 23.3509 8.9543 30.0666 20 30.0666C31.0457 30.0666 40 23.3509 40 15.0666C40 14.7306 39.9853 14.3972 39.9563 14.0667Z" fill="white" fill-opacity="0.35"/>
<defs>
<linearGradient id="paint0_linear_1601_244498" x1="20" y1="0.0666504" x2="20" y2="30.0667" gradientUnits="userSpaceOnUse">
<stop stop-color="#A63B00"/>
<stop offset="1" stop-color="#E26721"/>
</linearGradient>
<linearGradient id="paint1_linear_1601_244498" x1="21.3196" y1="0" x2="21.3196" y2="30" gradientUnits="userSpaceOnUse">
<stop stop-color="#2E3846"/>
<stop offset="1" stop-color="#47576F"/>
</linearGradient>
</defs>
</svg>
