<svg width="40" height="36" viewBox="0 0 40 36" fill="none" xmlns="http://www.w3.org/2000/svg">
<path d="M40 21C40 29.2843 31.0457 36 20 36C8.9543 36 0 29.2843 0 21V15C13.6657 15 29.8679 15 40 15V21Z" fill="#4A5565"/>
<path d="M20 30C31.0457 30 40 23.2843 40 15C40 6.71573 31.0457 0 20 0C8.9543 0 0 6.71573 0 15C0 23.2843 8.9543 30 20 30Z" fill="url(#paint0_linear_1601_244490)"/>
<path d="M2.64453 22.4595C6.09064 26.9598 12.559 29.9925 19.9727 30V36C12.559 35.9925 6.09064 32.9598 2.64453 28.4595V22.4595Z" fill="#1C1F23"/>
<path d="M37.3193 28.5065V22.5065C39.0241 20.2987 40 17.7348 40 15V21C40 23.7348 39.0241 26.2987 37.3193 28.5065Z" fill="#1C1F23"/>
<path fill-rule="evenodd" clip-rule="evenodd" d="M19.9911 5.1333V0C13.8373 0.00190601 8.33326 2.08828 4.66616 5.3688L9.08384 9.12976C7.76554 10.4984 7 12.1307 7 13.8833C7 15.3276 7.51989 16.6901 8.44058 17.8908L2.63965 22.4537C6.08497 26.9576 12.5566 29.9931 19.9743 30V22.6333C19.9829 22.6333 19.9914 22.6333 20 22.6333C25.1453 22.6333 29.5925 20.6213 31.6996 17.7024L37.3175 22.5083C39.0232 20.3001 39.9995 17.7356 39.9995 15C39.9995 11.3902 38.2994 8.07819 35.4668 5.48988L30.8924 9.10519C28.5721 6.71372 24.5602 5.1333 20 5.1333C19.997 5.1333 19.9941 5.1333 19.9911 5.1333Z" fill="#30353A"/>
<path d="M35.1957 30.721L35.1533 24.7911C36.8524 23.2559 37.9896 21.8107 38.8994 19.9219L38.8993 25.8134C38.0188 27.7583 36.9104 29.1595 35.1957 30.721Z" fill="#A7A7A7"/>
<path d="M23.167 35.8008V29.8086C22.1144 29.9422 21.0776 29.991 20 29.991C18.9224 29.991 17.8745 29.9362 16.833 29.8086V35.8008C17.8672 35.9492 18.9224 35.9922 20 35.9922C21.0776 35.9922 22.1211 35.9336 23.167 35.8008Z" fill="#A7A7A7"/>
<path d="M4.84478 24.8146L4.80235 30.7444C3.08764 29.1829 1.97926 27.7817 1.09878 25.8368L1.09863 19.9453C2.0084 21.8341 3.14561 23.2793 4.84478 24.8146Z" fill="#A7A7A7"/>
<path d="M23.1507 0.185924C22.1217 0.063554 21.0666 0 19.9917 0C18.9169 0 17.8618 0.0635542 16.8328 0.185924V2.5C16.8328 2.77614 17.0567 3 17.3328 3H22.6507C22.9268 3 23.1507 2.77614 23.1507 2.5V0.185924Z" fill="white"/>
<path d="M32.9873 3.5951C34.8184 4.76908 36.3633 6.18661 37.533 7.78078L35.3767 9.6321C35.1748 9.80549 34.8724 9.79028 34.6889 9.59749L31.1424 5.87198C30.945 5.66468 30.9616 5.33433 31.1788 5.14788L32.9873 3.5951Z" fill="white"/>
<path d="M35.1527 24.7876C36.7827 23.3696 38.0647 21.7205 38.8996 19.9147L36.409 17.7763C36.2071 17.6029 35.9047 17.6181 35.7212 17.8109L32.1739 21.5372C31.9765 21.7445 31.9931 22.0749 32.2103 22.2613L35.1527 24.7876Z" fill="white"/>
<path d="M19.9917 30C21.0666 30 22.1217 29.9364 23.1507 29.8141V25.5C23.1507 25.2239 22.9268 25 22.6507 25H17.3328C17.0567 25 16.8328 25.2239 16.8328 25.5V29.8141C17.8618 29.9364 18.9169 30 19.9917 30Z" fill="white"/>
<path d="M2.49505 7.72042C3.67336 6.1318 5.22538 4.72041 7.06203 3.55305L8.87716 5.1115C9.09432 5.29795 9.11095 5.6283 8.9136 5.83561L5.36708 9.56111C5.18356 9.7539 4.88117 9.76911 4.67922 9.59572L2.49505 7.72042Z" fill="white"/>
<path d="M1.09961 19.9486C1.93969 21.7516 3.22597 23.3976 4.85922 24.8123L7.76774 22.3151C7.9849 22.1286 8.00152 21.7983 7.80418 21.591L4.25599 17.8637C4.07247 17.6709 3.77009 17.6557 3.56814 17.8291L1.09961 19.9486Z" fill="white"/>
<path fill-rule="evenodd" clip-rule="evenodd" d="M28.3548 18.6928C30.4373 17.2911 31.5 15.5154 31.5 13.75C31.5 11.9846 30.4373 10.2089 28.3548 8.8072C26.2815 7.41172 23.3321 6.5 20 6.5C16.6679 6.5 13.7185 7.41172 11.6452 8.8072C9.56269 10.2089 8.5 11.9846 8.5 13.75C8.5 15.5154 9.56269 17.2911 11.6452 18.6928C13.7185 20.0883 16.6679 21 20 21C23.3321 21 26.2815 20.0883 28.3548 18.6928ZM33 13.75C33 18.5825 27.1797 22.5 20 22.5C12.8203 22.5 7 18.5825 7 13.75C7 8.91751 12.8203 5 20 5C27.1797 5 33 8.91751 33 13.75Z" fill="white"/>
<path d="M20 34C31.0457 34 40 27.2843 40 19V21C40 29.2843 31.0457 36 20 36C8.9543 36 0 29.2843 0 21V19C0 27.2843 8.9543 34 20 34Z" fill="black" fill-opacity="0.45"/>
<path d="M39.9563 14C39.2701 21.818 30.5977 28 20 28C9.40234 28 0.729856 21.818 0.0437396 14C0.0147325 14.3305 0 14.664 0 15C0 23.2843 8.9543 30 20 30C31.0457 30 40 23.2843 40 15C40 14.664 39.9853 14.3305 39.9563 14Z" fill="white" fill-opacity="0.35"/>
<defs>
<linearGradient id="paint0_linear_1601_244490" x1="20" y1="0" x2="20" y2="30" gradientUnits="userSpaceOnUse">
<stop stop-color="#4A5565"/>
<stop offset="1" stop-color="#717D8F"/>
</linearGradient>
</defs>
</svg>
