<svg xmlns="http://www.w3.org/2000/svg" viewBox="0 0 21 19"><path fill="none" d="M0 0H21V19H0z"/><linearGradient id="a" gradientUnits="userSpaceOnUse" x1="10.5" y1="-.688" x2="10.5" y2="19.148"><stop offset="0" stop-color="#fff"/><stop offset="1" stop-color="#85858f"/></linearGradient><path d="M21,9.5c0,5.2-4.7,9.5-10.5,9.5S0,14.7,0,9.5S4.7,0,10.5,0S21,4.3,21,9.5z" fill="url(#a)"/><linearGradient id="b" gradientUnits="userSpaceOnUse" x1="10.5" y1="17" x2="10.5" y2="0"><stop offset="0" stop-color="#c9c9c9"/><stop offset="1" stop-color="#fff"/></linearGradient><path d="M21,8.5c0,4.7-4.7,8.5-10.5,8.5S0,13.2,0,8.5S4.7,0,10.5,0S21,3.8,21,8.5z" fill="url(#b)"/><linearGradient id="c" gradientUnits="userSpaceOnUse" x1="10.5" y1="0" x2="10.5" y2="16"><stop offset="0" stop-color="#fff"/><stop offset="1" stop-color="#b8b8bb"/></linearGradient><path d="M20,8c0,4.4-4.3,8-9.5,8S1,12.4,1,8s4.3-8,9.5-8S20,3.6,20,8z" fill="url(#c)"/><path d="M7.8,5c0.8,0,0.9,0,1.9,0c1.8,0,3.1,0.4,3.9,1.1c0.9,0.7,1.4,2,1.4,3.4s-0.5,2.4-1.4,3.2 S11.2,14,9.3,14c-0.9,0-1.5,0-1.5,0L7,13.2V5.8L7.8,5z M8.6,12.4c0.3,0.1,1.1,0,1.6,0c2.4,0,3.4-1.1,3.4-3c0-1.7-0.9-2.8-3.4-2.8 c-0.6,0-1.3-0.1-1.6,0V12.4z" fill="#fff"/><path d="M7.8,4c0.8,0,0.9,0,1.9,0c1.8,0,3.1,0.4,3.9,1.1c0.9,0.7,1.4,2,1.4,3.4s-0.5,2.4-1.4,3.2 S11.2,13,9.3,13c-0.9,0-1.5,0-1.5,0L7,12.2V4.8L7.8,4z M8.6,11.4c0.3,0.1,1.1,0,1.6,0c2.4,0,3.4-1.1,3.4-3c0-1.7-0.9-2.8-3.4-2.8 c-0.6,0-1.3-0.1-1.6,0V11.4z" fill="#272133"/></svg>